<svg id="facebook" xmlns="http://www.w3.org/2000/svg" width="35" height="35" viewBox="0 0 35 35">
  <defs>
    <style>
      .cls-1 {
        fill: none;
      }

      .cls-2 {
        fill: #f2a579;
      }
    </style>
  </defs>
  <g id="invisible_box" data-name="invisible box">
    <rect id="Rectangle_52" data-name="Rectangle 52" class="cls-1" width="35" height="35"/>
    <rect id="Rectangle_53" data-name="Rectangle 53" class="cls-1" width="35" height="35"/>
  </g>
  <g id="icons_Q2" data-name="icons Q2" transform="translate(2.917 2.99)">
    <path id="Path_113" data-name="Path 113" class="cls-2" d="M33.167,5.558v26.1a.219.219,0,0,1-.073.146,1.385,1.385,0,0,1-1.312,1.312H24.125V21.892H27.7c.219,0,.219,0,.292-.219l.219-1.823c.073-.729.146-1.458.292-2.187s0-.219-.146-.219H24.125V14.6c0-.219.073-.51.073-.729A1.313,1.313,0,0,1,25.365,12.7l.948-.146H28.5c.146,0,.146,0,.146-.146V8.694c0-.073,0-.146-.146-.146H25.146a5.25,5.25,0,0,0-2.406.51,4.375,4.375,0,0,0-2.552,2.26,5.323,5.323,0,0,0-.583,2.625c-.073,1.094,0,2.26,0,3.427H15.885c-.146,0-.146.073-.146.146v4.156c0,.146,0,.146.146.146H19.6V33.048a.219.219,0,0,0-.073.146H5.385a1.385,1.385,0,0,1-1.312-1.313C4,31.881,4,31.808,4,31.735V5.558c0-.073,0-.146.073-.146A1.385,1.385,0,0,1,5.385,4.1h26.4a1.385,1.385,0,0,1,1.312,1.313Z" transform="translate(-4 -4.1)"/>
  </g>
</svg>
