<?xml version="1.0" encoding="UTF-8"?>
<svg viewBox="0 0 744.09448 1052.3622" xmlns="http://www.w3.org/2000/svg">
 <path d="m358.14 521.63c-3.3918-3.5403-3.4775-7.4958-0.23254-10.741 3.8614-3.8614 8.6361-2.926 11.382 2.2297 1.6968 3.1859 1.4332 5.703-0.90924 8.6809-2.7847 3.5402-6.7489 3.4744-10.24-0.16986z"/>
 <path d="m338.77 517.31c-4.1106-1.1574-7.3129-5.2704-7.3129-9.3926 0-2.3633-0.68213-3.6971-2.5-4.8882-1.375-0.90094-2.5-2.3327-2.5-3.1817 0-2.1403 4.9343-8.4102 6.6187-8.4102 2.5796 0 1.3963-1.747-1.5874-2.3438-1.6328-0.32656-3.931-1.556-5.1071-2.7321-1.8867-1.8867-2.3124-1.9644-3.6165-0.66027s-2.0085 1.2768-5.9848-0.23256c-2.4786-0.94088-4.8858-2.3241-5.3491-3.0739-2.0003-3.2366 1.7922-11.114 5.9927-12.447 1.2759-0.40495 1.5962-1.5992 1.4126-5.2672-0.39872-7.9658-0.93554-9.7731-5.015-16.884-2.1643-3.7727-4.7673-9.1094-5.7844-11.859s-5.9007-14.675-10.852-26.5-11.673-28.25-14.936-36.5-7.1788-17.7-8.7014-21-4.4278-10.578-6.4562-16.173c-2.2381-6.1738-4.8442-11.411-6.6288-13.322-3.4335-3.6755-5.0136-9.7518-2.8864-11.099 2.1115-1.3373 3.292-1.1038 6.984 1.3815 6.1904 4.1671 7.2091 10.527 1.9535 12.195-1.854 0.58842-1.7812 1.0079 1.5287 8.8177 1.9114 4.51 3.5953 8.9435 3.7421 9.8524s0.71327 2.2589 1.2588 3c1.1265 1.5303 3.5019 6.8216 12.95 28.848 8.4748 19.756 24.011 53.001 27.807 59.5 1.606 2.75 3.4688 6.575 4.1396 8.5 0.67081 1.925 1.6994 3.5 2.2857 3.5 1.7648 0 2.7578 1.5574 1.4918 2.3399-0.862 0.53274-0.49992 2.2054 1.3345 6.1648 1.5229 3.2871 2.8029 4.9718 3.24 4.2646 0.46146-0.74666 1.7963 0.43075 3.6945 3.2589 2.8379 4.2281 5.6417 5.6243 6.972 3.4718 0.97264-1.5738 5.2219-1.167 5.886 0.56338 0.32996 0.85986 0.97283 1.3329 1.4286 1.0512 1.2191-0.75343 4.3623 3.2902 3.563 4.5836-0.46849 0.75803-1.0273 0.63771-1.7802-0.38333-1.061-1.4388-4.8394-3.8148-6.0664-3.8148-0.3303 0 0.93702 1.35 2.8163 3s3.968 3 4.6418 3 0.97822 0.64304 0.67662 1.429c-1.4466 3.7699-1.7524 8.5404-0.67614 10.551 1.5732 2.9396 0.49544 3.7685-1.9834 1.5252-1.9674-1.7805-2.0061-1.7554-2.0061 1.3043 0 2.8819-2.8614 5.9954-4.2415 4.6153-0.27747-0.27746-0.73491 0.37669-1.0166 1.4537-0.45049 1.7227-0.11507 1.8937 2.7896 1.4224 3.5215-0.57147 4.4767-0.04758 10.154 5.5692 1.8738 1.8537 3.6558 3.1213 3.9602 2.817 0.83909-0.83909-1.5502-7.3629-3.1972-8.7298-1.682-1.396-1.906-2.9576-0.4241-2.9576 0.56361 0 1.4165 1.0125 1.8953 2.25s2.5272 3.7046 4.5519 5.4826c4.0536 3.5594 4.3799 6.5716 0.76775 7.087-1.2319 0.17575-2.2398-0.16175-2.2398-0.75 0-1.7626-1.8215-1.2074-2.4408 0.744-0.94663 2.9826-6.8777 8.82-9.5592 9.4082-1.375 0.30163-3.9342 0.14461-5.6871-0.34894z"/>
 <path d="m323.46 515.93c-0.99319-1.1967-0.99319-1.8033 0-3 1.6316-1.9659 3.6292-1.9085 4.4103 0.12675 0.61192 1.5946-0.91949 4.3732-2.4103 4.3732-0.41531 0-1.3153-0.675-2-1.5z"/>
 <path d="m362.96 506.43c0.33992-0.55 1.0415-1 1.559-1s0.94098 0.45 0.94098 1-0.70156 1-1.559 1-1.2809-0.45-0.94098-1z"/>
 <path d="m348.96 491.43c-0.33992-0.55-0.14148-1 0.44098-1s1.059 0.45 1.059 1-0.19844 1-0.44098 1-0.7191-0.45-1.059-1z"/>
 <path d="m311.46 462.43c0-0.55 0.45-1 1-1s1 0.45 1 1-0.45 1-1 1-1-0.45-1-1z"/>
 <path d="m329.71 458.77c-1.7152-0.69212-1.5688-2.8282 0.30019-4.3794 1.2778-1.0604 1.829-1.0077 3.1367 0.30001 2.7878 2.7878 0.3965 5.6262-3.4369 4.0794z"/>
 <path d="m314.46 455.43c0-0.55 0.42344-1 0.94098-1s1.2191 0.45 1.559 1-0.08352 1-0.94098 1-1.559-0.45-1.559-1z"/>
 <path d="m292.63 452.7c-2.5315-2.8421-2.1902-5.7366 1.0021-8.499 1.8163-1.5717 2.2677-1.5923 4.9131-0.22432 2.1447 1.1091 2.909 2.2249 2.8977 4.2307-0.01887 3.3571-0.76953 4.4518-4.0331 5.8814-2.2171 0.97121-2.8386 0.79064-4.7798-1.3888z"/>
 <path d="m311.43 452.9c-1.7365-2.0924-0.28835-3.2109 1.649-1.2736 0.93519 0.93519 1.174 1.8182 0.5895 2.1795-0.54046 0.33402-1.5478-0.07361-2.2385-0.90585z"/>
 <path d="m276.03 446.86c-0.86429-0.86428-1.5714-1.9571-1.5714-2.4286 0-0.9127 2.8073-4 3.6372-4 1.5065 0 4.3628 2.2677 4.3628 3.4638 0 1.5348-2.6466 4.5362-4 4.5362-0.47143 0-1.5643-0.70714-2.4286-1.5714z"/>
 <path d="m324.02075,445.72588c-.54268-1.4252-.42782-1.54006.5598-.5598 .68342.67834.99067,1.48524.68278,1.79313s-.86705-.24711-1.24258-1.23333z"/>
 <path d="m339.67 444.28c0.51953-1.5586 2.6634-1.8126 3.0318-0.3592 0.1375 0.54247-0.58933 1.148-1.6152 1.3455-1.2146 0.23391-1.7087-0.11011-1.4167-0.98631z"/>
 <path d="m299.04 441.57c-0.43077-0.697-0.51316-1.5373-0.18309-1.8674 0.89496-0.89496 1.8708 0.4213 1.3874 1.8714-0.33872 1.0162-0.57427 1.0154-1.2043-0.00404z"/>
 <path d="m332.57 441.07c-0.85852-1.0345-0.79746-1.6473 0.25081-2.5172 1.863-1.5461 4.6391-0.35432 4.6391 1.9916 0 2.2372-3.1853 2.5796-4.8899 0.52569z"/>
 <path d="m321.54 430.59c-1.1658-2.1782 0.33185-4.1532 3.1494-4.1532 2.3474 0 3.3555 2.5879 1.758 4.5127-1.6762 2.0198-3.714 1.8705-4.9074-0.35953z"/>
 <path d="m285.8 429.89c-0.32569-0.84872-0.32244-1.8128 0.00721-2.1425 0.71223-0.71223 3.6477 1.5476 3.6477 2.8081 0 1.5091-3.0323 0.9569-3.6549-0.66557z"/>
 <path d="m332.96 429.79c-1.8218-1.8218-1.3338-5.8686 0.99481-8.2486 1.1589-1.1845 1.6711-0.88591 3.4305 2 2.5712 4.2176 2.5985 5.5422 0.14137 6.8572-2.5113 1.344-2.6298 1.3282-4.5666-0.60858z"/>
 <path d="m352.46 420.51c0-1.4311 0.64223-2.0733 2.0733-2.0733 2.5626 0 2.2719 3.3098-0.3348 3.8118-1.2 0.2311-1.7385-0.30742-1.7385-1.7385z"/>
 <path d="m303.8 404.89c-0.32569-0.84872-0.32683-1.8085-0.00253-2.1328s-0.52011-1.4626-1.8765-2.5295c-2.5711-2.0224-3.2545-5.1893-1.3711-6.3534 0.62111-0.38387-0.60198-1.4365-2.8262-2.4323-3.6529-1.6354-5.6767-4.4723-6.427-9.009-0.39546-2.391 2.754-7.4457 5.5824-8.9594 1.9049-1.0195 3.5638-1.143 6.2395-0.46464 7.5878 1.9238 10.425 11.37 4.8545 16.162-2.5526 2.1957-2.6897 2.5864-1.2 3.4201 2.0264 1.134 2.2115 5.2683 0.31519 7.0397-1.1528 1.0768-1.1273 1.4517 0.16248 2.3948 1.8371 1.3433 0.93622 4.4074-1.2958 4.4074-0.85952 0-1.8292-0.69441-2.1549-1.5431z"/>
 <path d="m348.71 365.71c-2.1075-0.75597-1.4899-4.2817 0.75-4.2817 1.3131 0 2 0.66667 2 1.941 0 2.2047-0.92779 2.9944-2.75 2.3407z"/>
 <path d="m295.67 363.25c-1.8762-1.8762-1.4395-2.9838 1.0375-2.632 1.2375 0.17575 2.25 0.95705 2.25 1.7362 0 1.9039-1.7913 2.392-3.2875 0.89583z"/>
 <path d="m339.05 362.81c-0.37359-0.97356-0.1029-2.072 0.62417-2.5328 1.877-1.1896 3.2839-0.45126 3.2839 1.7234 0 2.4408-3.0404 3.0705-3.908 0.8094z"/>
 <path d="m260.45646,361.43275c0-.55.675-1 1.5-1s1.5.45 1.5,1-.675,1-1.5,1-1.5-.45-1.5-1z"/>
 <path d="m311.87 361.06c-0.83555-2.1774-0.25075-2.7622 1.6114-1.6114 1.1436 0.70678 1.199 1.1677 0.25382 2.1128s-1.352 0.83574-1.8652-0.50149z"/>
 <path d="m329.46 359.85c0-1.7659 2.1528-1.4584 2.7708 0.39583 0.21771 0.65313-0.31666 1.1875-1.1875 1.1875s-1.5833-0.7125-1.5833-1.5833z"/>
 <path d="m333.46 360.43c0-0.55 0.19844-1 0.44098-1s0.7191 0.45 1.059 1 0.14148 1-0.44098 1-1.059-0.45-1.059-1z"/>
 <path d="m252.18 357.66c-1.9579-1.2136-2.955-2.8294-3.3778-5.4734-0.35518-2.2212-1.1596-3.7514-1.9721-3.7514-0.7547 0-1.3722-0.45-1.3722-1 0-0.92602 1.7061-1.3817 4.75-1.2686 1.4854 0.05516 1.6862-3.3437 0.25-4.2314-0.55-0.33992-1-1.068-1-1.618s0.54599-0.66257 1.2133-0.25014 2.8048 0.89554 4.75 1.0736c4.744 0.43425 7.5864 2.011 8.9262 4.9515 1.8576 4.0769 1.2947 7.3127-1.8126 10.42-3.3141 3.3141-6.3222 3.6476-10.355 1.1479z"/>
 <path d="m321.45646,356.93275c0-.825.675-1.5 1.5-1.5s1.5.675 1.5,1.5-.675,1.5-1.5,1.5-1.5-.675-1.5-1.5z"/>
 <path d="m239.46 355.93c0-0.91667 0.5625-1.4792 1.25-1.25 1.4157 0.47189 1.26 2.08-0.25 2.5833-0.55 0.18334-1-0.41666-1-1.3333z"/>
 <path d="m283.85 353.91c-1.5496-2.3651-1.5413-2.6511 0.13194-4.5 3.1397-3.4693 7.4768-1.9087 7.4768 2.6904 0 2.1117-2.5189 4.3352-4.9112 4.3352-0.57347 0-1.7874-1.1365-2.6975-2.5256z"/>
 <path d="m311.98 354.81c-2.3004-2.3004-1.4887-4.8225 1.6698-5.1886 1.8552-0.21501 3 0.29877 3.7379 1.6776 2.2783 4.257-1.9296 6.9891-5.4077 3.511z"/>
 <path d="m239.81 344.92c-0.66274-1.7271 1.2707-4.4873 3.1433-4.4873 0.69031 0 1.8557 0.7237 2.5898 1.6082 1.134 1.3664 1.0485 1.8175-0.56869 3-2.4791 1.8128-4.44 1.7668-5.1644-0.12095z"/>
 <path d="m247.18563,339.82858c-.40105-.40104-.72917-1.41916-.72917-2.2625 0-1.12559.29583-1.2375 1.1125-.42083 .61187.61188.94,1.63.72917,2.2625s-.71146.82188-1.1125.42083z"/>
 <path d="m292.02 322.49c0.2158-3.0297-0.27841-4.5425-2.1403-6.5515-3.0939-3.3384-3.07-6.5843 0.07615-10.323 5.3993-6.4167 11.957-4.2726 11.957 3.9094 0 3.4246-0.54266 4.5281-3.3556 6.8239-1.8459 1.5065-3.4654 3.828-3.5996 5.1597l-0.37167 3.671c-0.07019 0.6875-0.73948 1.25-1.4873 1.25-0.96364 0-1.278-1.1475-1.0791-3.9393z"/>
 <path d="m314.46 322.43c-2.4912-2.4912-2.554-5.1886-0.17126-7.345 4.5186-4.0893 11.821 0.35007 9.0926 5.528-2.2924 4.351-5.6945 5.0439-8.9214 1.8171z"/>
 <path d="m237.96654,317.44906c-.34546-.55897.07344-1.01631.9309-1.01631 1.75653,0 2.01516.60006.62812,1.45729-.512.31644-1.21356.11799-1.55902-.44098z"/>
 <path d="m247.03 287.58c-0.86556-1.6738-1.5538-3.6281-1.5295-4.3429s0.95684 0.4303 2.0723 2.5447 1.8038 4.0687 1.5295 4.3429-1.2068-0.87091-2.0723-2.5447z"/>
 <path d="m242.63 278.92c-0.6873-1.5085-1.0442-2.948-0.79321-3.1991 0.6789-0.6789 2.8049 3.6554 2.3955 4.8837-0.19397 0.58189-0.915-0.17621-1.6023-1.6847z"/>
 <path d="m314.46 274.49c0-0.58246 0.45-1.059 1-1.059s1 0.19844 1 0.44098-0.45 0.7191-1 1.059-1 0.14148-1-0.44098z"/>
 <path d="m236.14 264.89c-0.90674-1.9014-1.2174-3.4572-0.69047-3.4572 1.333 0 4.1912 5.7697 3.1706 6.4004-0.45735 0.28266-1.5734-1.0418-2.4802-2.9432z"/>
 <path d="m329.15 261.79c-0.79893-0.79893 0.10419-2.3605 1.3652-2.3605 0.51754 0 0.94098 0.675 0.94098 1.5 0 1.5464-1.18 1.9867-2.3062 0.86052z"/>
 <path d="m333.15 260.79c-0.93324-0.93324 0.19452-2.3605 1.8652-2.3605 0.79254 0 1.441 0.675 1.441 1.5 0 1.5062-2.111 2.0557-3.3062 0.86052z"/>
</svg>
