<svg id="insta" xmlns="http://www.w3.org/2000/svg" width="35" height="35" viewBox="0 0 35 35">
  <defs>
    <style>
      .cls-1 {
        fill: none;
      }

      .cls-2 {
        fill: #f2a579;
      }
    </style>
  </defs>
  <g id="invisible_box" data-name="invisible box">
    <rect id="Rectangle_55" data-name="Rectangle 55" class="cls-1" width="35" height="35"/>
    <rect id="Rectangle_56" data-name="Rectangle 56" class="cls-1" width="35" height="35"/>
  </g>
  <g id="icons_Q2" data-name="icons Q2" transform="translate(2.917 2.917)">
    <path id="Path_116" data-name="Path 116" class="cls-2" d="M18.583,6.625H24.49a7.875,7.875,0,0,1,2.7.51,4.885,4.885,0,0,1,2.771,2.771,7.875,7.875,0,0,1,.51,2.7c.073,1.531.073,2.042.073,5.906s0,4.375-.073,5.906a7.875,7.875,0,0,1-.51,2.7,4.885,4.885,0,0,1-2.771,2.771,7.875,7.875,0,0,1-2.7.51H12.677a7.875,7.875,0,0,1-2.7-.51,4.885,4.885,0,0,1-2.771-2.771,7.875,7.875,0,0,1-.51-2.7c-.073-1.531-.073-2.042-.073-5.906s0-4.375.073-5.906a7.875,7.875,0,0,1,.51-2.7A4.885,4.885,0,0,1,9.979,7.135a7.875,7.875,0,0,1,2.7-.51h5.906m0-2.625H12.6a13.052,13.052,0,0,0-3.573.656A7.292,7.292,0,0,0,6.479,6.479,6.2,6.2,0,0,0,4.8,9.031,10.573,10.573,0,0,0,4.073,12.6C4,14.135,4,14.646,4,18.583s0,4.448.073,5.979A10.573,10.573,0,0,0,4.8,28.135a6.2,6.2,0,0,0,1.677,2.552,6.2,6.2,0,0,0,2.552,1.677,10.573,10.573,0,0,0,3.573.729H24.563a10.573,10.573,0,0,0,3.573-.729,6.2,6.2,0,0,0,2.552-1.677,7.292,7.292,0,0,0,1.75-2.552,13.052,13.052,0,0,0,.656-3.573c.073-1.531.073-2.042.073-5.979s0-4.448-.073-5.979a13.052,13.052,0,0,0-.656-3.573,7.292,7.292,0,0,0-1.75-2.552,7.292,7.292,0,0,0-2.552-1.75,13.052,13.052,0,0,0-3.573-.656H18.583" transform="translate(-4 -4)"/>
    <path id="Path_117" data-name="Path 117" class="cls-2" d="M21.21,13.7a7.51,7.51,0,1,0,7.51,7.51,7.51,7.51,0,0,0-7.51-7.51m0,12.4A4.885,4.885,0,1,1,26.1,21.21,4.885,4.885,0,0,1,21.21,26.1" transform="translate(-6.627 -6.627)"/>
    <path id="Path_118" data-name="Path 118" class="cls-2" d="M35.8,12.65a1.75,1.75,0,1,1-1.75-1.75,1.75,1.75,0,0,1,1.75,1.75" transform="translate(-11.665 -5.869)"/>
  </g>
</svg>
