<svg id="Layer_2" data-name="Layer 2" xmlns="http://www.w3.org/2000/svg" width="48" height="48" viewBox="0 0 48 48">
  <g id="invisible_box" data-name="invisible box">
    <rect id="Rectangle_191" data-name="Rectangle 191" width="48" height="48" fill="none"/>
  </g>
  <g id="icons_Q2" data-name="icons Q2">
    <path id="Path_625" data-name="Path 625" d="M26.8,24l5.6-5.5a2.1,2.1,0,0,0,.2-2.7,1.9,1.9,0,0,0-3-.2L24,21.2l-5.6-5.6a1.9,1.9,0,0,0-3,.2,2.1,2.1,0,0,0,.2,2.7L21.2,24l-5.6,5.5a2.1,2.1,0,0,0-.2,2.7,1.9,1.9,0,0,0,3,.2L24,26.8l5.6,5.6a1.9,1.9,0,0,0,3-.2,2.1,2.1,0,0,0-.2-2.7Z" fill="#0f1f33"/>
    <path id="Path_626" data-name="Path 626" d="M40,8V40H8V8H40m2-4H6A2,2,0,0,0,4,6V42a2,2,0,0,0,2,2H42a2,2,0,0,0,2-2V6A2,2,0,0,0,42,4Z" fill="#0f1f33"/>
  </g>
</svg>
