<svg id="Layer_1" data-name="Layer 1" xmlns="http://www.w3.org/2000/svg" viewBox="0 0 89.12 18.91"><defs><style>.cls-1,.cls-2{fill:#fff;}.cls-2{stroke:#fff;stroke-miterlimit:10;stroke-width:0.75px;}</style></defs><path class="cls-1" d="M2.77,10.26v-4a2.82,2.82,0,0,1,5.64,0H6.54a.94.94,0,1,0-1.88,0v4a.94.94,0,0,0,1.88,0H8.42a2.83,2.83,0,0,1-5.65,0Zm4.49,1.67a2.57,2.57,0,0,0,.65-1.2h-1a1.4,1.4,0,0,1-1.33.94A1.43,1.43,0,0,1,5,11.55s0,0,0,0a2.7,2.7,0,0,0,.91,1A2.43,2.43,0,0,0,7.26,11.93Zm.65-6.17a2.57,2.57,0,0,0-.65-1.2,2.37,2.37,0,0,0-1.37-.67,2.81,2.81,0,0,0-.9,1s0,0,0,0a1.31,1.31,0,0,1,.56-.12,1.4,1.4,0,0,1,1.33.94Z" transform="translate(-2.77 -3.41)"/><path class="cls-1" d="M10.7,10.26v-4a2.82,2.82,0,0,1,5.64,0v4a2.82,2.82,0,1,1-5.64,0Zm5.18,0v-4a2.36,2.36,0,0,0-2.35-2.35,2,2,0,0,0-.34,0,3.07,3.07,0,0,0-1.08,1.84s0,0,0,0,0,0,0,0a1.46,1.46,0,0,1,1.37-.93,1.41,1.41,0,0,1,1.41,1.41V10.3a3,3,0,0,1-1,2.23s0,.05,0,0A2.35,2.35,0,0,0,15.88,10.26Zm-1.42,0v-4a.94.94,0,0,0-1.88,0v4a.94.94,0,0,0,1.88,0Z" transform="translate(-2.77 -3.41)"/><path class="cls-1" d="M18.9,3.54h1.88l1.88,4.07,1.88-4.07h1.88V13H24.54V7.61L23.6,9.66H21.72l-.94-2V13H18.9Zm3.51,4.64L20.78,4.67,20.48,4h-.85L22,9.09ZM26,12.48V4.56l-.94,2v5.89Z" transform="translate(-2.77 -3.41)"/><path class="cls-1" d="M29.11,3.54H31l1.88,4.07,1.88-4.07h1.88V13H34.75V7.61l-.94,2H31.93l-.94-2V13H29.11Zm3.51,4.64L31,4.67,30.69,4h-.85l2.34,5.08Zm3.55,4.3V4.56l-.94,2v5.89Z" transform="translate(-2.77 -3.41)"/><path class="cls-1" d="M39.32,10.13V3.54H41.2v6.59a.94.94,0,0,0,1.88,0V3.54H45v6.59a2.82,2.82,0,1,1-5.64,0Zm4.49,1.66a2.36,2.36,0,0,0,.69-1.67V4h-.94v6.12a1.41,1.41,0,0,1-1.41,1.41,1.31,1.31,0,0,1-.65-.16,2.91,2.91,0,0,0,.94,1.09A2.36,2.36,0,0,0,43.81,11.79Z" transform="translate(-2.77 -3.41)"/><path class="cls-1" d="M47.66,3.54h1.88l2.82,5.65V3.54h1.88V13H52.36L49.54,7.3V13H47.66Zm5.82,8.94-1.12-2.24L49.54,4.59V6.26l3.12,6.22Z" transform="translate(-2.77 -3.41)"/><path class="cls-1" d="M56.93,3.54h1.88V13H56.93Z" transform="translate(-2.77 -3.41)"/><path class="cls-1" d="M63,5.42H60.69V3.54h6.59V5.42H64.93V13H63.05V5.42Zm1.42,7.06V5.42h-.94v7.06Z" transform="translate(-2.77 -3.41)"/><path class="cls-1" d="M70.57,9.66,68.22,3.54H70.1l1.41,3.67,1.41-3.67H74.8L72.45,9.66V13H70.57Zm.69-1.79L69.78,4H68.9l1.93,5Z" transform="translate(-2.77 -3.41)"/><path class="cls-1" d="M4.63,19.29a1.31,1.31,0,0,0-.39-.05.76.76,0,0,0-.5.15.48.48,0,0,0-.19.4.43.43,0,0,0,.1.29.9.9,0,0,0,.26.2l.4.17a3.3,3.3,0,0,1,.45.2.89.89,0,0,1,.3.28.79.79,0,0,1,.12.45.83.83,0,0,1-.13.47.9.9,0,0,1-.35.32,1.08,1.08,0,0,1-.52.11,1.78,1.78,0,0,1-1-.33l.1-.18a1.75,1.75,0,0,0,.41.22,1.35,1.35,0,0,0,.47.09A1,1,0,0,0,4.54,22a.7.7,0,0,0,.3-.24A.61.61,0,0,0,5,21.38a.63.63,0,0,0-.1-.35,1,1,0,0,0-.26-.23,3.11,3.11,0,0,0-.4-.18,2.9,2.9,0,0,1-.45-.19.85.85,0,0,1-.29-.24.6.6,0,0,1-.12-.38.77.77,0,0,1,.11-.4.86.86,0,0,1,.32-.27,1.15,1.15,0,0,1,.46-.1,1.86,1.86,0,0,1,.45.06,2.19,2.19,0,0,1,.41.15L5,19.42A2.32,2.32,0,0,0,4.63,19.29Z" transform="translate(-2.77 -3.41)"/><path class="cls-1" d="M10.26,22.21a1.45,1.45,0,0,1-.47.07,1.7,1.7,0,0,1-.85-.21,1.44,1.44,0,0,1-.57-.58,1.6,1.6,0,0,1-.2-.81,1.69,1.69,0,0,1,.21-.84A1.5,1.5,0,0,1,9,19.25,1.61,1.61,0,0,1,9.77,19a1.68,1.68,0,0,1,.87.24l-.09.2a1.41,1.41,0,0,0-.77-.23,1.28,1.28,0,0,0-.69.19,1.39,1.39,0,0,0-.5.52,1.33,1.33,0,0,0-.19.71,1.55,1.55,0,0,0,.17.71,1.3,1.3,0,0,0,.48.51,1.44,1.44,0,0,0,.73.18,1.5,1.5,0,0,0,.78-.23l.1.19A1.64,1.64,0,0,1,10.26,22.21Z" transform="translate(-2.77 -3.41)"/><path class="cls-1" d="M14.06,19.06v3.18h-.22V19.06Z" transform="translate(-2.77 -3.41)"/><path class="cls-1" d="M19.41,19.06v.21H17.67v1.26h1.57v.21H17.67V22h1.81v.21h-2V19.06Z" transform="translate(-2.77 -3.41)"/><path class="cls-1" d="M25.35,19.06v3.26h0l-2.45-2.76v2.68h-.21V19h0l2.45,2.78V19.06Z" transform="translate(-2.77 -3.41)"/><path class="cls-1" d="M30.63,22.21a1.45,1.45,0,0,1-.47.07,1.7,1.7,0,0,1-.85-.21,1.44,1.44,0,0,1-.57-.58,1.6,1.6,0,0,1-.2-.81,1.69,1.69,0,0,1,.21-.84,1.5,1.5,0,0,1,.58-.59,1.61,1.61,0,0,1,.81-.22,1.68,1.68,0,0,1,.87.24l-.09.2a1.41,1.41,0,0,0-.77-.23,1.28,1.28,0,0,0-.69.19A1.39,1.39,0,0,0,29,20a1.49,1.49,0,0,0-.19.72,1.55,1.55,0,0,0,.17.71,1.3,1.3,0,0,0,.48.51,1.35,1.35,0,0,0,.73.19,1.5,1.5,0,0,0,.78-.23L31,22A3,3,0,0,1,30.63,22.21Z" transform="translate(-2.77 -3.41)"/><path class="cls-1" d="M36.17,19.06v.21H34.43v1.26H36v.21H34.43V22h1.81v.21h-2V19.06Z" transform="translate(-2.77 -3.41)"/><path class="cls-1" d="M46.24,19v3.25H46V19.63l-1.31,1.84h0l-1.3-1.82v2.59H43.2V19h0l1.51,2.15L46.24,19Z" transform="translate(-2.77 -3.41)"/><path class="cls-1" d="M49.94,21.64a.77.77,0,0,0,.31.31.94.94,0,0,0,.45.11,1,1,0,0,0,.46-.11.71.71,0,0,0,.31-.31.92.92,0,0,0,.11-.48V19.05h.21v2.12a1.22,1.22,0,0,1-.14.59,1,1,0,0,1-.39.38,1.27,1.27,0,0,1-1.12,0,.89.89,0,0,1-.39-.38,1.22,1.22,0,0,1-.14-.59V19.05h.22v2.11A1,1,0,0,0,49.94,21.64Z" transform="translate(-2.77 -3.41)"/><path class="cls-1" d="M56.4,19.29a1.31,1.31,0,0,0-.39-.05.76.76,0,0,0-.5.15.48.48,0,0,0-.19.4.43.43,0,0,0,.1.29.9.9,0,0,0,.26.2l.4.17a3.3,3.3,0,0,1,.45.2.89.89,0,0,1,.3.28.79.79,0,0,1,.12.45.91.91,0,0,1-.12.47.84.84,0,0,1-.35.32,1.21,1.21,0,0,1-.52.11A1.78,1.78,0,0,1,55,22l.1-.18a1.75,1.75,0,0,0,.41.22,1.35,1.35,0,0,0,.47.09,1,1,0,0,0,.38-.08.7.7,0,0,0,.3-.24.61.61,0,0,0,.11-.38.56.56,0,0,0-.11-.35,1,1,0,0,0-.26-.23,3.11,3.11,0,0,0-.4-.18,4.08,4.08,0,0,1-.44-.19.85.85,0,0,1-.29-.24.6.6,0,0,1-.12-.38.77.77,0,0,1,.11-.4.86.86,0,0,1,.32-.27A1,1,0,0,1,56,19a1.86,1.86,0,0,1,.45.06,2.19,2.19,0,0,1,.41.15l-.08.17A2.84,2.84,0,0,0,56.4,19.29Z" transform="translate(-2.77 -3.41)"/><path class="cls-1" d="M62.11,19.06v.21H60.37v1.26h1.57v.21H60.37V22h1.81v.21h-2V19.06Z" transform="translate(-2.77 -3.41)"/><path class="cls-1" d="M65.7,21.64A.77.77,0,0,0,66,22a.94.94,0,0,0,.45.11,1,1,0,0,0,.46-.11.71.71,0,0,0,.31-.31.92.92,0,0,0,.11-.48V19.05h.21v2.12a1.22,1.22,0,0,1-.14.59,1,1,0,0,1-.39.38,1.27,1.27,0,0,1-1.12,0,.89.89,0,0,1-.39-.38,1.22,1.22,0,0,1-.14-.59V19.05h.22v2.11A.83.83,0,0,0,65.7,21.64Z" transform="translate(-2.77 -3.41)"/><path class="cls-1" d="M74,19v3.25h-.22V19.63l-1.31,1.84h0l-1.3-1.82v2.59h-.22V19h0l1.51,2.15L74,19Z" transform="translate(-2.77 -3.41)"/><path class="cls-2" d="M7.44,16.31H69.69" transform="translate(-2.77 -3.41)"/><path class="cls-1" d="M87.65,18.52H82.6a1.36,1.36,0,0,1-1.31-1,9.89,9.89,0,0,0-1.61-3.33,6.77,6.77,0,0,1,1.45-9.46l.4-.27a7,7,0,0,1,6.85-.27,5.91,5.91,0,0,1,2.75,2.75,7,7,0,0,1-.59,7.32A9.25,9.25,0,0,0,89,17.51a1.36,1.36,0,0,1-1.32,1ZM85.12,4A6.22,6.22,0,0,0,78.9,10.2h0a6.15,6.15,0,0,0,1.21,3.68,10.4,10.4,0,0,1,1.7,3.51.81.81,0,0,0,.79.6h5.05a.83.83,0,0,0,.8-.61,9.63,9.63,0,0,1,1.66-3.44,6.43,6.43,0,0,0,.54-6.76,5.28,5.28,0,0,0-2.49-2.49,7,7,0,0,0-3-.72Z" transform="translate(-2.77 -3.41)"/><path class="cls-1" d="M87,22.19H83.25A1.27,1.27,0,0,1,82,20.92V18.33a.27.27,0,1,1,.54,0v2.59a.74.74,0,0,0,.74.74H87a.74.74,0,0,0,.74-.74V18.33a.27.27,0,1,1,.54,0v2.59A1.3,1.3,0,0,1,87,22.19Z" transform="translate(-2.77 -3.41)"/><path class="cls-1" d="M82.25,20.39H81.5a.27.27,0,0,1,0-.54h.75a.27.27,0,1,1,0,.54Z" transform="translate(-2.77 -3.41)"/><path class="cls-1" d="M88.77,20.39H88a.27.27,0,0,1,0-.54h.75a.27.27,0,0,1,0,.54Z" transform="translate(-2.77 -3.41)"/><path class="cls-1" d="M85.13,15.59c-1.29,0-2.31-2.22-2.31-5.06s1-5.06,2.31-5.06,2.31,2.22,2.31,5.06S86.42,15.59,85.13,15.59Zm0-9.59c-.84,0-1.77,1.86-1.77,4.53s.93,4.53,1.77,4.53,1.77-1.86,1.77-4.53S86,6,85.13,6Z" transform="translate(-2.77 -3.41)"/><path class="cls-1" d="M82.4,13.77a1.8,1.8,0,0,1-1.66-.71c-.33-.57-.15-1.37.51-2.25A9,9,0,0,1,84,8.53l.13.23L84,8.53c2.46-1.42,4.89-1.65,5.54-.53.33.57.15,1.37-.51,2.25a9,9,0,0,1-2.72,2.28,8.35,8.35,0,0,1-3.88,1.24Zm5.47-5.95A7.75,7.75,0,0,0,84.25,9a8.78,8.78,0,0,0-2.56,2.14c-.52.68-.69,1.29-.48,1.66.42.73,2.5.6,4.81-.73a8.78,8.78,0,0,0,2.56-2.14c.52-.68.69-1.29.48-1.66a1.35,1.35,0,0,0-1.19-.44Z" transform="translate(-2.77 -3.41)"/><path class="cls-1" d="M87.86,13.77A8.23,8.23,0,0,1,84,12.53a9.2,9.2,0,0,1-2.72-2.28c-.66-.89-.84-1.68-.51-2.25.65-1.12,3.08-.88,5.54.53A9.2,9.2,0,0,1,89,10.81c.66.88.84,1.68.51,2.25a1.8,1.8,0,0,1-1.66.71ZM82.39,7.82c-.59,0-1,.15-1.18.44s0,1,.48,1.66a8.66,8.66,0,0,0,2.56,2.14c2.31,1.33,4.39,1.46,4.81.73.21-.37,0-1-.48-1.66A8.75,8.75,0,0,0,86,9a7.81,7.81,0,0,0-3.63-1.18Z" transform="translate(-2.77 -3.41)"/><path class="cls-1" d="M88,19.72H82.24a.27.27,0,0,1,0-.54H88a.27.27,0,1,1,0,.54Z" transform="translate(-2.77 -3.41)"/><path class="cls-1" d="M88,21H82.24a.27.27,0,0,1,0-.54H88A.27.27,0,1,1,88,21Z" transform="translate(-2.77 -3.41)"/></svg>