<svg xmlns="http://www.w3.org/2000/svg" width="1947.116" height="192.672" viewBox="0 0 1947.116 192.672">
  <g id="over-cosmo_decor" transform="translate(-240.616 -1127.663)">
    <g id="ink-24501" transform="translate(-130.14 1331.395) rotate(-66)">
      <path id="Path_580" data-name="Path 580" d="M358.14,521.63c-3.392-3.54-3.478-7.5-.233-10.741,3.861-3.861,8.636-2.926,11.382,2.23,1.7,3.186,1.433,5.7-.909,8.681-2.785,3.54-6.749,3.474-10.24-.17Z" fill="#0e0e0c"/>
      <path id="Path_581" data-name="Path 581" d="M338.77,517.31a10.274,10.274,0,0,1-7.313-9.393,5.069,5.069,0,0,0-2.5-4.888c-1.375-.9-2.5-2.333-2.5-3.182,0-2.14,4.934-8.41,6.619-8.41,2.58,0,1.4-1.747-1.587-2.344a11.775,11.775,0,0,1-5.107-2.732c-1.887-1.887-2.312-1.964-3.616-.66s-2.009,1.277-5.985-.233c-2.479-.941-4.886-2.324-5.349-3.074-2-3.237,1.792-11.114,5.993-12.447,1.276-.4,1.6-1.6,1.413-5.267-.4-7.966-.936-9.773-5.015-16.884a99.072,99.072,0,0,1-5.784-11.859c-1.017-2.75-5.9-14.675-10.852-26.5s-11.673-28.25-14.936-36.5-7.179-17.7-8.7-21-4.428-10.578-6.456-16.173c-2.238-6.174-4.844-11.411-6.629-13.322-3.434-3.676-5.014-9.752-2.886-11.1,2.112-1.337,3.292-1.1,6.984,1.382,6.19,4.167,7.209,10.527,1.953,12.2-1.854.588-1.781,1.008,1.529,8.818a91.822,91.822,0,0,1,3.742,9.852,8.237,8.237,0,0,0,1.259,3c1.126,1.53,3.5,6.822,12.95,28.848,8.475,19.756,24.011,53,27.807,59.5a61.7,61.7,0,0,1,4.14,8.5c.671,1.925,1.7,3.5,2.286,3.5,1.765,0,2.758,1.557,1.492,2.34-.862.533-.5,2.205,1.335,6.165,1.523,3.287,2.8,4.972,3.24,4.265.461-.747,1.8.431,3.694,3.259,2.838,4.228,5.642,5.624,6.972,3.472.973-1.574,5.222-1.167,5.886.563.33.86.973,1.333,1.429,1.051,1.219-.753,4.362,3.29,3.563,4.584-.468.758-1.027.638-1.78-.383-1.061-1.439-4.839-3.815-6.066-3.815-.33,0,.937,1.35,2.816,3s3.968,3,4.642,3,.978.643.677,1.429c-1.447,3.77-1.752,8.54-.676,10.551,1.573,2.94.5,3.768-1.983,1.525-1.967-1.78-2.006-1.755-2.006,1.3,0,2.882-2.861,6-4.241,4.615-.277-.277-.735.377-1.017,1.454-.451,1.723-.115,1.894,2.79,1.422,3.522-.571,4.477-.048,10.154,5.569,1.874,1.854,3.656,3.121,3.96,2.817.839-.839-1.55-7.363-3.2-8.73-1.682-1.4-1.906-2.958-.424-2.958.564,0,1.417,1.013,1.9,2.25a19.779,19.779,0,0,0,4.552,5.483c4.054,3.559,4.38,6.572.768,7.087-1.232.176-2.24-.162-2.24-.75,0-1.763-1.822-1.207-2.441.744-.947,2.983-6.878,8.82-9.559,9.408a14.146,14.146,0,0,1-5.687-.349Z" fill="#0e0e0c"/>
      <path id="Path_582" data-name="Path 582" d="M323.46,515.93c-.993-1.2-.993-1.8,0-3,1.632-1.966,3.629-1.909,4.41.127.612,1.595-.919,4.373-2.41,4.373A4.092,4.092,0,0,1,323.46,515.93Z" fill="#0e0e0c"/>
      <path id="Path_583" data-name="Path 583" d="M362.96,506.43a2.144,2.144,0,0,1,1.559-1,.975.975,0,0,1,.941,1c0,.55-.7,1-1.559,1S362.62,506.98,362.96,506.43Z" fill="#0e0e0c"/>
      <path id="Path_584" data-name="Path 584" d="M348.96,491.43c-.34-.55-.141-1,.441-1a1.034,1.034,0,0,1,1.059,1c0,.55-.2,1-.441,1S349.3,491.98,348.96,491.43Z" fill="#0e0e0c"/>
      <path id="Path_585" data-name="Path 585" d="M311.46,462.43a1,1,0,1,1,1,1A1,1,0,0,1,311.46,462.43Z" fill="#0e0e0c"/>
      <path id="Path_586" data-name="Path 586" d="M329.71,458.77c-1.715-.692-1.569-2.828.3-4.379,1.278-1.06,1.829-1.008,3.137.3,2.788,2.788.4,5.626-3.437,4.079Z" fill="#0e0e0c"/>
      <path id="Path_587" data-name="Path 587" d="M314.46,455.43a.975.975,0,0,1,.941-1,2.144,2.144,0,0,1,1.559,1c.34.55-.084,1-.941,1S314.46,455.98,314.46,455.43Z" fill="#0e0e0c"/>
      <path id="Path_588" data-name="Path 588" d="M292.63,452.7c-2.531-2.842-2.19-5.737,1-8.5,1.816-1.572,2.268-1.592,4.913-.224,2.145,1.109,2.909,2.225,2.9,4.231-.019,3.357-.77,4.452-4.033,5.881C295.193,455.06,294.571,454.879,292.63,452.7Z" fill="#0e0e0c"/>
      <path id="Path_589" data-name="Path 589" d="M311.43,452.9c-1.737-2.092-.288-3.211,1.649-1.274.935.935,1.174,1.818.59,2.18-.54.334-1.548-.074-2.238-.906Z" fill="#0e0e0c"/>
      <path id="Path_590" data-name="Path 590" d="M276.03,446.86a5.315,5.315,0,0,1-1.571-2.429c0-.913,2.807-4,3.637-4,1.507,0,4.363,2.268,4.363,3.464,0,1.535-2.647,4.536-4,4.536A5.316,5.316,0,0,1,276.03,446.86Z" fill="#0e0e0c"/>
      <path id="Path_591" data-name="Path 591" d="M324.021,445.726c-.543-1.425-.428-1.54.56-.56.683.678.991,1.485.683,1.793s-.867-.247-1.243-1.233Z" fill="#0e0e0c"/>
      <path id="Path_592" data-name="Path 592" d="M339.67,444.28c.52-1.559,2.663-1.813,3.032-.359.138.542-.589,1.148-1.615,1.345-1.215.234-1.709-.11-1.417-.986Z" fill="#0e0e0c"/>
      <path id="Path_593" data-name="Path 593" d="M299.04,441.57c-.431-.7-.513-1.537-.183-1.867.895-.895,1.871.421,1.387,1.871-.339,1.016-.574,1.015-1.2,0Z" fill="#0e0e0c"/>
      <path id="Path_594" data-name="Path 594" d="M332.57,441.07c-.859-1.034-.8-1.647.251-2.517a2.778,2.778,0,0,1,4.639,1.992c0,2.237-3.185,2.58-4.89.526Z" fill="#0e0e0c"/>
      <path id="Path_595" data-name="Path 595" d="M321.54,430.59c-1.166-2.178.332-4.153,3.149-4.153,2.347,0,3.355,2.588,1.758,4.513-1.676,2.02-3.714,1.871-4.907-.36Z" fill="#0e0e0c"/>
      <path id="Path_596" data-name="Path 596" d="M285.8,429.89a2.384,2.384,0,0,1,.007-2.142c.712-.712,3.648,1.548,3.648,2.808,0,1.509-3.032.957-3.655-.666Z" fill="#0e0e0c"/>
      <path id="Path_597" data-name="Path 597" d="M332.96,429.79c-1.822-1.822-1.334-5.869.995-8.249,1.159-1.185,1.671-.886,3.431,2,2.571,4.218,2.6,5.542.141,6.857-2.511,1.344-2.63,1.328-4.567-.609Z" fill="#0e0e0c"/>
      <path id="Path_598" data-name="Path 598" d="M352.46,420.51c0-1.431.642-2.073,2.073-2.073,2.563,0,2.272,3.31-.335,3.812C353,422.48,352.46,421.941,352.46,420.51Z" fill="#0e0e0c"/>
      <path id="Path_599" data-name="Path 599" d="M303.8,404.89a2.385,2.385,0,0,1,0-2.133c.324-.324-.52-1.463-1.876-2.53-2.571-2.022-3.254-5.189-1.371-6.353.621-.384-.6-1.436-2.826-2.432-3.653-1.635-5.677-4.472-6.427-9.009-.4-2.391,2.754-7.446,5.582-8.959,1.9-1.02,3.564-1.143,6.24-.465,7.588,1.924,10.425,11.37,4.854,16.162-2.553,2.2-2.69,2.586-1.2,3.42,2.026,1.134,2.211,5.268.315,7.04-1.153,1.077-1.127,1.452.162,2.395a2.445,2.445,0,0,1-1.3,4.407,2.527,2.527,0,0,1-2.155-1.543Z" fill="#0e0e0c"/>
      <path id="Path_600" data-name="Path 600" d="M348.71,365.71c-2.108-.756-1.49-4.282.75-4.282a1.758,1.758,0,0,1,2,1.941C351.46,365.574,350.532,366.364,348.71,365.71Z" fill="#0e0e0c"/>
      <path id="Path_601" data-name="Path 601" d="M295.67,363.25c-1.876-1.876-1.44-2.984,1.038-2.632,1.237.176,2.25.957,2.25,1.736,0,1.9-1.791,2.392-3.288.9Z" fill="#0e0e0c"/>
      <path id="Path_602" data-name="Path 602" d="M339.05,362.81a2.12,2.12,0,0,1,.624-2.533c1.877-1.19,3.284-.451,3.284,1.723a2.007,2.007,0,0,1-3.908.809Z" fill="#0e0e0c"/>
      <path id="Path_603" data-name="Path 603" d="M260.456,361.433c0-.55.675-1,1.5-1s1.5.45,1.5,1-.675,1-1.5,1S260.456,361.983,260.456,361.433Z" fill="#0e0e0c"/>
      <path id="Path_604" data-name="Path 604" d="M311.87,361.06c-.836-2.177-.251-2.762,1.611-1.611,1.144.707,1.2,1.168.254,2.113s-1.352.836-1.865-.5Z" fill="#0e0e0c"/>
      <path id="Path_605" data-name="Path 605" d="M329.46,359.85c0-1.766,2.153-1.458,2.771.4.218.653-.317,1.188-1.187,1.188a1.588,1.588,0,0,1-1.583-1.583Z" fill="#0e0e0c"/>
      <path id="Path_606" data-name="Path 606" d="M333.46,360.43c0-.55.2-1,.441-1s.719.45,1.059,1,.141,1-.441,1A1.034,1.034,0,0,1,333.46,360.43Z" fill="#0e0e0c"/>
      <path id="Path_607" data-name="Path 607" d="M252.18,357.66a7.074,7.074,0,0,1-3.378-5.473c-.355-2.221-1.16-3.751-1.972-3.751-.755,0-1.372-.45-1.372-1,0-.926,1.706-1.382,4.75-1.269,1.485.055,1.686-3.344.25-4.231a2.19,2.19,0,0,1-1-1.618c0-.55.546-.663,1.213-.25a15.069,15.069,0,0,0,4.75,1.074c4.744.434,7.586,2.011,8.926,4.952,1.858,4.077,1.295,7.313-1.813,10.42-3.314,3.314-6.322,3.648-10.355,1.148Z" fill="#0e0e0c"/>
      <path id="Path_608" data-name="Path 608" d="M321.456,356.933a1.5,1.5,0,1,1,1.5,1.5A1.5,1.5,0,0,1,321.456,356.933Z" fill="#0e0e0c"/>
      <path id="Path_609" data-name="Path 609" d="M239.46,355.93c0-.917.563-1.479,1.25-1.25,1.416.472,1.26,2.08-.25,2.583C239.91,357.447,239.46,356.847,239.46,355.93Z" fill="#0e0e0c"/>
      <path id="Path_610" data-name="Path 610" d="M283.85,353.91c-1.55-2.365-1.541-2.651.132-4.5,3.14-3.469,7.477-1.909,7.477,2.69,0,2.112-2.519,4.335-4.911,4.335-.573,0-1.787-1.137-2.7-2.526Z" fill="#0e0e0c"/>
      <path id="Path_611" data-name="Path 611" d="M311.98,354.81c-2.3-2.3-1.489-4.823,1.67-5.189,1.855-.215,3,.3,3.738,1.678C319.666,355.556,315.458,358.288,311.98,354.81Z" fill="#0e0e0c"/>
      <path id="Path_612" data-name="Path 612" d="M239.81,344.92c-.663-1.727,1.271-4.487,3.143-4.487a4.329,4.329,0,0,1,2.59,1.608c1.134,1.366,1.048,1.818-.569,3-2.479,1.813-4.44,1.767-5.164-.121Z" fill="#0e0e0c"/>
      <path id="Path_613" data-name="Path 613" d="M247.186,339.829a3.707,3.707,0,0,1-.729-2.263c0-1.126.3-1.237,1.113-.421a2.523,2.523,0,0,1,.729,2.263C248.088,340.041,247.587,340.23,247.186,339.829Z" fill="#0e0e0c"/>
      <path id="Path_614" data-name="Path 614" d="M292.02,322.49c.216-3.03-.278-4.543-2.14-6.552-3.094-3.338-3.07-6.584.076-10.323,5.4-6.417,11.957-4.273,11.957,3.909,0,3.425-.543,4.528-3.356,6.824-1.846,1.507-3.465,3.828-3.6,5.16l-.372,3.671a1.487,1.487,0,0,1-1.487,1.25c-.964,0-1.278-1.147-1.079-3.939Z" fill="#0e0e0c"/>
      <path id="Path_615" data-name="Path 615" d="M314.46,322.43c-2.491-2.491-2.554-5.189-.171-7.345,4.519-4.089,11.821.35,9.093,5.528-2.292,4.351-5.694,5.044-8.921,1.817Z" fill="#0e0e0c"/>
      <path id="Path_616" data-name="Path 616" d="M237.967,317.449c-.345-.559.073-1.016.931-1.016,1.757,0,2.015.6.628,1.457a1.151,1.151,0,0,1-1.559-.441Z" fill="#0e0e0c"/>
      <path id="Path_619" data-name="Path 619" d="M314.46,274.49a1.034,1.034,0,0,1,1-1.059c.55,0,1,.2,1,.441s-.45.719-1,1.059S314.46,275.072,314.46,274.49Z" fill="#0e0e0c"/>
      <path id="Path_621" data-name="Path 621" d="M329.15,261.79c-.8-.8.1-2.361,1.365-2.361.518,0,.941.675.941,1.5,0,1.546-1.18,1.987-2.306.861Z" fill="#0e0e0c"/>
      <path id="Path_622" data-name="Path 622" d="M333.15,260.79c-.933-.933.195-2.361,1.865-2.361a1.476,1.476,0,0,1,1.441,1.5c0,1.506-2.111,2.056-3.306.861Z" fill="#0e0e0c"/>
    </g>
    <g id="ink-24501-2" data-name="ink-24501" transform="matrix(-0.391, 0.921, -0.921, -0.391, 1046.264, 1108.779)">
      <path id="Path_580-2" data-name="Path 580" d="M358.14,521.63c-3.392-3.54-3.478-7.5-.233-10.741,3.861-3.861,8.636-2.926,11.382,2.23,1.7,3.186,1.433,5.7-.909,8.681-2.785,3.54-6.749,3.474-10.24-.17Z" fill="#0e0e0c"/>
      <path id="Path_581-2" data-name="Path 581" d="M338.77,517.31a10.274,10.274,0,0,1-7.313-9.393,5.069,5.069,0,0,0-2.5-4.888c-1.375-.9-2.5-2.333-2.5-3.182,0-2.14,4.934-8.41,6.619-8.41,2.58,0,1.4-1.747-1.587-2.344a11.775,11.775,0,0,1-5.107-2.732c-1.887-1.887-2.312-1.964-3.616-.66s-2.009,1.277-5.985-.233c-2.479-.941-4.886-2.324-5.349-3.074-2-3.237,1.792-11.114,5.993-12.447,1.276-.4,1.6-1.6,1.413-5.267-.4-7.966-.936-9.773-5.015-16.884a99.072,99.072,0,0,1-5.784-11.859c-1.017-2.75-5.9-14.675-10.852-26.5s-11.673-28.25-14.936-36.5-7.179-17.7-8.7-21-4.428-10.578-6.456-16.173c-2.238-6.174-4.844-11.411-6.629-13.322-3.434-3.676-5.014-9.752-2.886-11.1,2.112-1.337,3.292-1.1,6.984,1.382,6.19,4.167,7.209,10.527,1.953,12.2-1.854.588-1.781,1.008,1.529,8.818a91.822,91.822,0,0,1,3.742,9.852,8.237,8.237,0,0,0,1.259,3c1.126,1.53,3.5,6.822,12.95,28.848,8.475,19.756,24.011,53,27.807,59.5a61.7,61.7,0,0,1,4.14,8.5c.671,1.925,1.7,3.5,2.286,3.5,1.765,0,2.758,1.557,1.492,2.34-.862.533-.5,2.205,1.335,6.165,1.523,3.287,2.8,4.972,3.24,4.265.461-.747,1.8.431,3.694,3.259,2.838,4.228,5.642,5.624,6.972,3.472.973-1.574,5.222-1.167,5.886.563.33.86.973,1.333,1.429,1.051,1.219-.753,4.362,3.29,3.563,4.584-.468.758-1.027.638-1.78-.383-1.061-1.439-4.839-3.815-6.066-3.815-.33,0,.937,1.35,2.816,3s3.968,3,4.642,3,.978.643.677,1.429c-1.447,3.77-1.752,8.54-.676,10.551,1.573,2.94.5,3.768-1.983,1.525-1.967-1.78-2.006-1.755-2.006,1.3,0,2.882-2.861,6-4.241,4.615-.277-.277-.735.377-1.017,1.454-.451,1.723-.115,1.894,2.79,1.422,3.522-.571,4.477-.048,10.154,5.569,1.874,1.854,3.656,3.121,3.96,2.817.839-.839-1.55-7.363-3.2-8.73-1.682-1.4-1.906-2.958-.424-2.958.564,0,1.417,1.013,1.9,2.25a19.779,19.779,0,0,0,4.552,5.483c4.054,3.559,4.38,6.572.768,7.087-1.232.176-2.24-.162-2.24-.75,0-1.763-1.822-1.207-2.441.744-.947,2.983-6.878,8.82-9.559,9.408a14.146,14.146,0,0,1-5.687-.349Z" fill="#0e0e0c"/>
      <path id="Path_582-2" data-name="Path 582" d="M323.46,515.93c-.993-1.2-.993-1.8,0-3,1.632-1.966,3.629-1.909,4.41.127.612,1.595-.919,4.373-2.41,4.373A4.092,4.092,0,0,1,323.46,515.93Z" fill="#0e0e0c"/>
      <path id="Path_583-2" data-name="Path 583" d="M362.96,506.43a2.144,2.144,0,0,1,1.559-1,.975.975,0,0,1,.941,1c0,.55-.7,1-1.559,1S362.62,506.98,362.96,506.43Z" fill="#0e0e0c"/>
      <path id="Path_584-2" data-name="Path 584" d="M348.96,491.43c-.34-.55-.141-1,.441-1a1.034,1.034,0,0,1,1.059,1c0,.55-.2,1-.441,1S349.3,491.98,348.96,491.43Z" fill="#0e0e0c"/>
      <path id="Path_585-2" data-name="Path 585" d="M311.46,462.43a1,1,0,1,1,1,1A1,1,0,0,1,311.46,462.43Z" fill="#0e0e0c"/>
      <path id="Path_586-2" data-name="Path 586" d="M329.71,458.77c-1.715-.692-1.569-2.828.3-4.379,1.278-1.06,1.829-1.008,3.137.3,2.788,2.788.4,5.626-3.437,4.079Z" fill="#0e0e0c"/>
      <path id="Path_587-2" data-name="Path 587" d="M314.46,455.43a.975.975,0,0,1,.941-1,2.144,2.144,0,0,1,1.559,1c.34.55-.084,1-.941,1S314.46,455.98,314.46,455.43Z" fill="#0e0e0c"/>
      <path id="Path_588-2" data-name="Path 588" d="M292.63,452.7c-2.531-2.842-2.19-5.737,1-8.5,1.816-1.572,2.268-1.592,4.913-.224,2.145,1.109,2.909,2.225,2.9,4.231-.019,3.357-.77,4.452-4.033,5.881C295.193,455.06,294.571,454.879,292.63,452.7Z" fill="#0e0e0c"/>
      <path id="Path_589-2" data-name="Path 589" d="M311.43,452.9c-1.737-2.092-.288-3.211,1.649-1.274.935.935,1.174,1.818.59,2.18-.54.334-1.548-.074-2.238-.906Z" fill="#0e0e0c"/>
      <path id="Path_590-2" data-name="Path 590" d="M276.03,446.86a5.315,5.315,0,0,1-1.571-2.429c0-.913,2.807-4,3.637-4,1.507,0,4.363,2.268,4.363,3.464,0,1.535-2.647,4.536-4,4.536A5.316,5.316,0,0,1,276.03,446.86Z" fill="#0e0e0c"/>
      <path id="Path_591-2" data-name="Path 591" d="M324.021,445.726c-.543-1.425-.428-1.54.56-.56.683.678.991,1.485.683,1.793s-.867-.247-1.243-1.233Z" fill="#0e0e0c"/>
      <path id="Path_592-2" data-name="Path 592" d="M339.67,444.28c.52-1.559,2.663-1.813,3.032-.359.138.542-.589,1.148-1.615,1.345-1.215.234-1.709-.11-1.417-.986Z" fill="#0e0e0c"/>
      <path id="Path_593-2" data-name="Path 593" d="M299.04,441.57c-.431-.7-.513-1.537-.183-1.867.895-.895,1.871.421,1.387,1.871-.339,1.016-.574,1.015-1.2,0Z" fill="#0e0e0c"/>
      <path id="Path_594-2" data-name="Path 594" d="M332.57,441.07c-.859-1.034-.8-1.647.251-2.517a2.778,2.778,0,0,1,4.639,1.992c0,2.237-3.185,2.58-4.89.526Z" fill="#0e0e0c"/>
      <path id="Path_595-2" data-name="Path 595" d="M321.54,430.59c-1.166-2.178.332-4.153,3.149-4.153,2.347,0,3.355,2.588,1.758,4.513-1.676,2.02-3.714,1.871-4.907-.36Z" fill="#0e0e0c"/>
      <path id="Path_596-2" data-name="Path 596" d="M285.8,429.89a2.384,2.384,0,0,1,.007-2.142c.712-.712,3.648,1.548,3.648,2.808,0,1.509-3.032.957-3.655-.666Z" fill="#0e0e0c"/>
      <path id="Path_597-2" data-name="Path 597" d="M332.96,429.79c-1.822-1.822-1.334-5.869.995-8.249,1.159-1.185,1.671-.886,3.431,2,2.571,4.218,2.6,5.542.141,6.857-2.511,1.344-2.63,1.328-4.567-.609Z" fill="#0e0e0c"/>
      <path id="Path_598-2" data-name="Path 598" d="M352.46,420.51c0-1.431.642-2.073,2.073-2.073,2.563,0,2.272,3.31-.335,3.812C353,422.48,352.46,421.941,352.46,420.51Z" fill="#0e0e0c"/>
      <path id="Path_599-2" data-name="Path 599" d="M303.8,404.89a2.385,2.385,0,0,1,0-2.133c.324-.324-.52-1.463-1.876-2.53-2.571-2.022-3.254-5.189-1.371-6.353.621-.384-.6-1.436-2.826-2.432-3.653-1.635-5.677-4.472-6.427-9.009-.4-2.391,2.754-7.446,5.582-8.959,1.9-1.02,3.564-1.143,6.24-.465,7.588,1.924,10.425,11.37,4.854,16.162-2.553,2.2-2.69,2.586-1.2,3.42,2.026,1.134,2.211,5.268.315,7.04-1.153,1.077-1.127,1.452.162,2.395a2.445,2.445,0,0,1-1.3,4.407,2.527,2.527,0,0,1-2.155-1.543Z" fill="#0e0e0c"/>
      <path id="Path_600-2" data-name="Path 600" d="M348.71,365.71c-2.108-.756-1.49-4.282.75-4.282a1.758,1.758,0,0,1,2,1.941C351.46,365.574,350.532,366.364,348.71,365.71Z" fill="#0e0e0c"/>
      <path id="Path_601-2" data-name="Path 601" d="M295.67,363.25c-1.876-1.876-1.44-2.984,1.038-2.632,1.237.176,2.25.957,2.25,1.736,0,1.9-1.791,2.392-3.288.9Z" fill="#0e0e0c"/>
      <path id="Path_602-2" data-name="Path 602" d="M339.05,362.81a2.12,2.12,0,0,1,.624-2.533c1.877-1.19,3.284-.451,3.284,1.723a2.007,2.007,0,0,1-3.908.809Z" fill="#0e0e0c"/>
      <path id="Path_603-2" data-name="Path 603" d="M260.456,361.433c0-.55.675-1,1.5-1s1.5.45,1.5,1-.675,1-1.5,1S260.456,361.983,260.456,361.433Z" fill="#0e0e0c"/>
      <path id="Path_604-2" data-name="Path 604" d="M311.87,361.06c-.836-2.177-.251-2.762,1.611-1.611,1.144.707,1.2,1.168.254,2.113s-1.352.836-1.865-.5Z" fill="#0e0e0c"/>
      <path id="Path_605-2" data-name="Path 605" d="M329.46,359.85c0-1.766,2.153-1.458,2.771.4.218.653-.317,1.188-1.187,1.188a1.588,1.588,0,0,1-1.583-1.583Z" fill="#0e0e0c"/>
      <path id="Path_606-2" data-name="Path 606" d="M333.46,360.43c0-.55.2-1,.441-1s.719.45,1.059,1,.141,1-.441,1A1.034,1.034,0,0,1,333.46,360.43Z" fill="#0e0e0c"/>
      <path id="Path_607-2" data-name="Path 607" d="M252.18,357.66a7.074,7.074,0,0,1-3.378-5.473c-.355-2.221-1.16-3.751-1.972-3.751-.755,0-1.372-.45-1.372-1,0-.926,1.706-1.382,4.75-1.269,1.485.055,1.686-3.344.25-4.231a2.19,2.19,0,0,1-1-1.618c0-.55.546-.663,1.213-.25a15.069,15.069,0,0,0,4.75,1.074c4.744.434,7.586,2.011,8.926,4.952,1.858,4.077,1.295,7.313-1.813,10.42-3.314,3.314-6.322,3.648-10.355,1.148Z" fill="#0e0e0c"/>
      <path id="Path_608-2" data-name="Path 608" d="M321.456,356.933a1.5,1.5,0,1,1,1.5,1.5A1.5,1.5,0,0,1,321.456,356.933Z" fill="#0e0e0c"/>
      <path id="Path_609-2" data-name="Path 609" d="M239.46,355.93c0-.917.563-1.479,1.25-1.25,1.416.472,1.26,2.08-.25,2.583C239.91,357.447,239.46,356.847,239.46,355.93Z" fill="#0e0e0c"/>
      <path id="Path_610-2" data-name="Path 610" d="M283.85,353.91c-1.55-2.365-1.541-2.651.132-4.5,3.14-3.469,7.477-1.909,7.477,2.69,0,2.112-2.519,4.335-4.911,4.335-.573,0-1.787-1.137-2.7-2.526Z" fill="#0e0e0c"/>
      <path id="Path_611-2" data-name="Path 611" d="M311.98,354.81c-2.3-2.3-1.489-4.823,1.67-5.189,1.855-.215,3,.3,3.738,1.678C319.666,355.556,315.458,358.288,311.98,354.81Z" fill="#0e0e0c"/>
      <path id="Path_612-2" data-name="Path 612" d="M239.81,344.92c-.663-1.727,1.271-4.487,3.143-4.487a4.329,4.329,0,0,1,2.59,1.608c1.134,1.366,1.048,1.818-.569,3-2.479,1.813-4.44,1.767-5.164-.121Z" fill="#0e0e0c"/>
      <path id="Path_613-2" data-name="Path 613" d="M247.186,339.829a3.707,3.707,0,0,1-.729-2.263c0-1.126.3-1.237,1.113-.421a2.523,2.523,0,0,1,.729,2.263C248.088,340.041,247.587,340.23,247.186,339.829Z" fill="#0e0e0c"/>
      <path id="Path_614-2" data-name="Path 614" d="M292.02,322.49c.216-3.03-.278-4.543-2.14-6.552-3.094-3.338-3.07-6.584.076-10.323,5.4-6.417,11.957-4.273,11.957,3.909,0,3.425-.543,4.528-3.356,6.824-1.846,1.507-3.465,3.828-3.6,5.16l-.372,3.671a1.487,1.487,0,0,1-1.487,1.25c-.964,0-1.278-1.147-1.079-3.939Z" fill="#0e0e0c"/>
      <path id="Path_615-2" data-name="Path 615" d="M314.46,322.43c-2.491-2.491-2.554-5.189-.171-7.345,4.519-4.089,11.821.35,9.093,5.528-2.292,4.351-5.694,5.044-8.921,1.817Z" fill="#0e0e0c"/>
      <path id="Path_616-2" data-name="Path 616" d="M237.967,317.449c-.345-.559.073-1.016.931-1.016,1.757,0,2.015.6.628,1.457a1.151,1.151,0,0,1-1.559-.441Z" fill="#0e0e0c"/>
      <path id="Path_619-2" data-name="Path 619" d="M314.46,274.49a1.034,1.034,0,0,1,1-1.059c.55,0,1,.2,1,.441s-.45.719-1,1.059S314.46,275.072,314.46,274.49Z" fill="#0e0e0c"/>
      <path id="Path_621-2" data-name="Path 621" d="M329.15,261.79c-.8-.8.1-2.361,1.365-2.361.518,0,.941.675.941,1.5,0,1.546-1.18,1.987-2.306.861Z" fill="#0e0e0c"/>
      <path id="Path_622-2" data-name="Path 622" d="M333.15,260.79c-.933-.933.195-2.361,1.865-2.361a1.476,1.476,0,0,1,1.441,1.5c0,1.506-2.111,2.056-3.306.861Z" fill="#0e0e0c"/>
    </g>
    <g id="ink-24501-3" data-name="ink-24501" transform="matrix(-0.391, 0.921, -0.921, -0.391, 1259.264, 1108.779)">
      <path id="Path_580-3" data-name="Path 580" d="M358.14,521.63c-3.392-3.54-3.478-7.5-.233-10.741,3.861-3.861,8.636-2.926,11.382,2.23,1.7,3.186,1.433,5.7-.909,8.681-2.785,3.54-6.749,3.474-10.24-.17Z" fill="#0e0e0c"/>
      <path id="Path_581-3" data-name="Path 581" d="M338.77,517.31a10.274,10.274,0,0,1-7.313-9.393,5.069,5.069,0,0,0-2.5-4.888c-1.375-.9-2.5-2.333-2.5-3.182,0-2.14,4.934-8.41,6.619-8.41,2.58,0,1.4-1.747-1.587-2.344a11.775,11.775,0,0,1-5.107-2.732c-1.887-1.887-2.312-1.964-3.616-.66s-2.009,1.277-5.985-.233c-2.479-.941-4.886-2.324-5.349-3.074-2-3.237,1.792-11.114,5.993-12.447,1.276-.4,1.6-1.6,1.413-5.267-.4-7.966-.936-9.773-5.015-16.884a99.072,99.072,0,0,1-5.784-11.859c-1.017-2.75-5.9-14.675-10.852-26.5s-11.673-28.25-14.936-36.5-7.179-17.7-8.7-21-4.428-10.578-6.456-16.173c-2.238-6.174-4.844-11.411-6.629-13.322-3.434-3.676-5.014-9.752-2.886-11.1,2.112-1.337,3.292-1.1,6.984,1.382,6.19,4.167,7.209,10.527,1.953,12.2-1.854.588-1.781,1.008,1.529,8.818a91.822,91.822,0,0,1,3.742,9.852,8.237,8.237,0,0,0,1.259,3c1.126,1.53,3.5,6.822,12.95,28.848,8.475,19.756,24.011,53,27.807,59.5a61.7,61.7,0,0,1,4.14,8.5c.671,1.925,1.7,3.5,2.286,3.5,1.765,0,2.758,1.557,1.492,2.34-.862.533-.5,2.205,1.335,6.165,1.523,3.287,2.8,4.972,3.24,4.265.461-.747,1.8.431,3.694,3.259,2.838,4.228,5.642,5.624,6.972,3.472.973-1.574,5.222-1.167,5.886.563.33.86.973,1.333,1.429,1.051,1.219-.753,4.362,3.29,3.563,4.584-.468.758-1.027.638-1.78-.383-1.061-1.439-4.839-3.815-6.066-3.815-.33,0,.937,1.35,2.816,3s3.968,3,4.642,3,.978.643.677,1.429c-1.447,3.77-1.752,8.54-.676,10.551,1.573,2.94.5,3.768-1.983,1.525-1.967-1.78-2.006-1.755-2.006,1.3,0,2.882-2.861,6-4.241,4.615-.277-.277-.735.377-1.017,1.454-.451,1.723-.115,1.894,2.79,1.422,3.522-.571,4.477-.048,10.154,5.569,1.874,1.854,3.656,3.121,3.96,2.817.839-.839-1.55-7.363-3.2-8.73-1.682-1.4-1.906-2.958-.424-2.958.564,0,1.417,1.013,1.9,2.25a19.779,19.779,0,0,0,4.552,5.483c4.054,3.559,4.38,6.572.768,7.087-1.232.176-2.24-.162-2.24-.75,0-1.763-1.822-1.207-2.441.744-.947,2.983-6.878,8.82-9.559,9.408a14.146,14.146,0,0,1-5.687-.349Z" fill="#0e0e0c"/>
      <path id="Path_582-3" data-name="Path 582" d="M323.46,515.93c-.993-1.2-.993-1.8,0-3,1.632-1.966,3.629-1.909,4.41.127.612,1.595-.919,4.373-2.41,4.373A4.092,4.092,0,0,1,323.46,515.93Z" fill="#0e0e0c"/>
      <path id="Path_583-3" data-name="Path 583" d="M362.96,506.43a2.144,2.144,0,0,1,1.559-1,.975.975,0,0,1,.941,1c0,.55-.7,1-1.559,1S362.62,506.98,362.96,506.43Z" fill="#0e0e0c"/>
      <path id="Path_584-3" data-name="Path 584" d="M348.96,491.43c-.34-.55-.141-1,.441-1a1.034,1.034,0,0,1,1.059,1c0,.55-.2,1-.441,1S349.3,491.98,348.96,491.43Z" fill="#0e0e0c"/>
      <path id="Path_585-3" data-name="Path 585" d="M311.46,462.43a1,1,0,1,1,1,1A1,1,0,0,1,311.46,462.43Z" fill="#0e0e0c"/>
      <path id="Path_586-3" data-name="Path 586" d="M329.71,458.77c-1.715-.692-1.569-2.828.3-4.379,1.278-1.06,1.829-1.008,3.137.3,2.788,2.788.4,5.626-3.437,4.079Z" fill="#0e0e0c"/>
      <path id="Path_587-3" data-name="Path 587" d="M314.46,455.43a.975.975,0,0,1,.941-1,2.144,2.144,0,0,1,1.559,1c.34.55-.084,1-.941,1S314.46,455.98,314.46,455.43Z" fill="#0e0e0c"/>
      <path id="Path_588-3" data-name="Path 588" d="M292.63,452.7c-2.531-2.842-2.19-5.737,1-8.5,1.816-1.572,2.268-1.592,4.913-.224,2.145,1.109,2.909,2.225,2.9,4.231-.019,3.357-.77,4.452-4.033,5.881C295.193,455.06,294.571,454.879,292.63,452.7Z" fill="#0e0e0c"/>
      <path id="Path_589-3" data-name="Path 589" d="M311.43,452.9c-1.737-2.092-.288-3.211,1.649-1.274.935.935,1.174,1.818.59,2.18-.54.334-1.548-.074-2.238-.906Z" fill="#0e0e0c"/>
      <path id="Path_590-3" data-name="Path 590" d="M276.03,446.86a5.315,5.315,0,0,1-1.571-2.429c0-.913,2.807-4,3.637-4,1.507,0,4.363,2.268,4.363,3.464,0,1.535-2.647,4.536-4,4.536A5.316,5.316,0,0,1,276.03,446.86Z" fill="#0e0e0c"/>
      <path id="Path_591-3" data-name="Path 591" d="M324.021,445.726c-.543-1.425-.428-1.54.56-.56.683.678.991,1.485.683,1.793s-.867-.247-1.243-1.233Z" fill="#0e0e0c"/>
      <path id="Path_592-3" data-name="Path 592" d="M339.67,444.28c.52-1.559,2.663-1.813,3.032-.359.138.542-.589,1.148-1.615,1.345-1.215.234-1.709-.11-1.417-.986Z" fill="#0e0e0c"/>
      <path id="Path_593-3" data-name="Path 593" d="M299.04,441.57c-.431-.7-.513-1.537-.183-1.867.895-.895,1.871.421,1.387,1.871-.339,1.016-.574,1.015-1.2,0Z" fill="#0e0e0c"/>
      <path id="Path_594-3" data-name="Path 594" d="M332.57,441.07c-.859-1.034-.8-1.647.251-2.517a2.778,2.778,0,0,1,4.639,1.992c0,2.237-3.185,2.58-4.89.526Z" fill="#0e0e0c"/>
      <path id="Path_595-3" data-name="Path 595" d="M321.54,430.59c-1.166-2.178.332-4.153,3.149-4.153,2.347,0,3.355,2.588,1.758,4.513-1.676,2.02-3.714,1.871-4.907-.36Z" fill="#0e0e0c"/>
      <path id="Path_596-3" data-name="Path 596" d="M285.8,429.89a2.384,2.384,0,0,1,.007-2.142c.712-.712,3.648,1.548,3.648,2.808,0,1.509-3.032.957-3.655-.666Z" fill="#0e0e0c"/>
      <path id="Path_599-3" data-name="Path 599" d="M303.8,404.89a2.385,2.385,0,0,1,0-2.133c.324-.324-.52-1.463-1.876-2.53-2.571-2.022-3.254-5.189-1.371-6.353.621-.384-.6-1.436-2.826-2.432-3.653-1.635-5.677-4.472-6.427-9.009-.4-2.391,2.754-7.446,5.582-8.959,1.9-1.02,3.564-1.143,6.24-.465,7.588,1.924,10.425,11.37,4.854,16.162-2.553,2.2-2.69,2.586-1.2,3.42,2.026,1.134,2.211,5.268.315,7.04-1.153,1.077-1.127,1.452.162,2.395a2.445,2.445,0,0,1-1.3,4.407,2.527,2.527,0,0,1-2.155-1.543Z" transform="translate(20.905 58.663)" fill="#0e0e0c"/>
      <path id="Path_601-3" data-name="Path 601" d="M295.67,363.25c-1.876-1.876-1.44-2.984,1.038-2.632,1.237.176,2.25.957,2.25,1.736,0,1.9-1.791,2.392-3.288.9Z" fill="#0e0e0c"/>
      <path id="Path_603-3" data-name="Path 603" d="M260.456,361.433c0-.55.675-1,1.5-1s1.5.45,1.5,1-.675,1-1.5,1S260.456,361.983,260.456,361.433Z" fill="#0e0e0c"/>
      <path id="Path_607-3" data-name="Path 607" d="M252.18,357.66a7.074,7.074,0,0,1-3.378-5.473c-.355-2.221-1.16-3.751-1.972-3.751-.755,0-1.372-.45-1.372-1,0-.926,1.706-1.382,4.75-1.269,1.485.055,1.686-3.344.25-4.231a2.19,2.19,0,0,1-1-1.618c0-.55.546-.663,1.213-.25a15.069,15.069,0,0,0,4.75,1.074c4.744.434,7.586,2.011,8.926,4.952,1.858,4.077,1.295,7.313-1.813,10.42-3.314,3.314-6.322,3.648-10.355,1.148Z" transform="translate(15.426 -4.013)" fill="#0e0e0c"/>
      <path id="Path_609-3" data-name="Path 609" d="M239.46,355.93c0-.917.563-1.479,1.25-1.25,1.416.472,1.26,2.08-.25,2.583C239.91,357.447,239.46,356.847,239.46,355.93Z" fill="#0e0e0c"/>
      <path id="Path_610-3" data-name="Path 610" d="M283.85,353.91c-1.55-2.365-1.541-2.651.132-4.5,3.14-3.469,7.477-1.909,7.477,2.69,0,2.112-2.519,4.335-4.911,4.335-.573,0-1.787-1.137-2.7-2.526Z" fill="#0e0e0c"/>
      <path id="Path_612-3" data-name="Path 612" d="M239.81,344.92c-.663-1.727,1.271-4.487,3.143-4.487a4.329,4.329,0,0,1,2.59,1.608c1.134,1.366,1.048,1.818-.569,3-2.479,1.813-4.44,1.767-5.164-.121Z" fill="#0e0e0c"/>
      <path id="Path_613-3" data-name="Path 613" d="M247.186,339.829a3.707,3.707,0,0,1-.729-2.263c0-1.126.3-1.237,1.113-.421a2.523,2.523,0,0,1,.729,2.263C248.088,340.041,247.587,340.23,247.186,339.829Z" fill="#0e0e0c"/>
      <path id="Path_616-3" data-name="Path 616" d="M237.967,317.449c-.345-.559.073-1.016.931-1.016,1.757,0,2.015.6.628,1.457a1.151,1.151,0,0,1-1.559-.441Z" fill="#0e0e0c"/>
    </g>
    <g id="ink-24501-4" data-name="ink-24501" transform="translate(437.269 1323.786) rotate(-65)">
      <path id="Path_580-4" data-name="Path 580" d="M358.14,521.63c-3.392-3.54-3.478-7.5-.233-10.741,3.861-3.861,8.636-2.926,11.382,2.23,1.7,3.186,1.433,5.7-.909,8.681-2.785,3.54-6.749,3.474-10.24-.17Z" fill="#0e0e0c"/>
      <path id="Path_581-4" data-name="Path 581" d="M338.77,517.31a10.274,10.274,0,0,1-7.313-9.393,5.069,5.069,0,0,0-2.5-4.888c-1.375-.9-2.5-2.333-2.5-3.182,0-2.14,4.934-8.41,6.619-8.41,2.58,0,1.4-1.747-1.587-2.344a11.775,11.775,0,0,1-5.107-2.732c-1.887-1.887-2.312-1.964-3.616-.66s-2.009,1.277-5.985-.233c-2.479-.941-4.886-2.324-5.349-3.074-2-3.237,1.792-11.114,5.993-12.447,1.276-.4,1.6-1.6,1.413-5.267-.4-7.966-.936-9.773-5.015-16.884a99.072,99.072,0,0,1-5.784-11.859c-1.017-2.75-5.9-14.675-10.852-26.5s-11.673-28.25-14.936-36.5-7.179-17.7-8.7-21-4.428-10.578-6.456-16.173c-2.238-6.174-4.844-11.411-6.629-13.322-3.434-3.676-5.014-9.752-2.886-11.1,2.112-1.337,3.292-1.1,6.984,1.382,6.19,4.167,7.209,10.527,1.953,12.2-1.854.588-1.781,1.008,1.529,8.818a91.822,91.822,0,0,1,3.742,9.852,8.237,8.237,0,0,0,1.259,3c1.126,1.53,3.5,6.822,12.95,28.848,8.475,19.756,24.011,53,27.807,59.5a61.7,61.7,0,0,1,4.14,8.5c.671,1.925,1.7,3.5,2.286,3.5,1.765,0,2.758,1.557,1.492,2.34-.862.533-.5,2.205,1.335,6.165,1.523,3.287,2.8,4.972,3.24,4.265.461-.747,1.8.431,3.694,3.259,2.838,4.228,5.642,5.624,6.972,3.472.973-1.574,5.222-1.167,5.886.563.33.86.973,1.333,1.429,1.051,1.219-.753,4.362,3.29,3.563,4.584-.468.758-1.027.638-1.78-.383-1.061-1.439-4.839-3.815-6.066-3.815-.33,0,.937,1.35,2.816,3s3.968,3,4.642,3,.978.643.677,1.429c-1.447,3.77-1.752,8.54-.676,10.551,1.573,2.94.5,3.768-1.983,1.525-1.967-1.78-2.006-1.755-2.006,1.3,0,2.882-2.861,6-4.241,4.615-.277-.277-.735.377-1.017,1.454-.451,1.723-.115,1.894,2.79,1.422,3.522-.571,4.477-.048,10.154,5.569,1.874,1.854,3.656,3.121,3.96,2.817.839-.839-1.55-7.363-3.2-8.73-1.682-1.4-1.906-2.958-.424-2.958.564,0,1.417,1.013,1.9,2.25a19.779,19.779,0,0,0,4.552,5.483c4.054,3.559,4.38,6.572.768,7.087-1.232.176-2.24-.162-2.24-.75,0-1.763-1.822-1.207-2.441.744-.947,2.983-6.878,8.82-9.559,9.408a14.146,14.146,0,0,1-5.687-.349Z" fill="#0e0e0c"/>
      <path id="Path_582-4" data-name="Path 582" d="M323.46,515.93c-.993-1.2-.993-1.8,0-3,1.632-1.966,3.629-1.909,4.41.127.612,1.595-.919,4.373-2.41,4.373A4.092,4.092,0,0,1,323.46,515.93Z" fill="#0e0e0c"/>
      <path id="Path_583-4" data-name="Path 583" d="M362.96,506.43a2.144,2.144,0,0,1,1.559-1,.975.975,0,0,1,.941,1c0,.55-.7,1-1.559,1S362.62,506.98,362.96,506.43Z" fill="#0e0e0c"/>
      <path id="Path_584-4" data-name="Path 584" d="M348.96,491.43c-.34-.55-.141-1,.441-1a1.034,1.034,0,0,1,1.059,1c0,.55-.2,1-.441,1S349.3,491.98,348.96,491.43Z" fill="#0e0e0c"/>
      <path id="Path_585-4" data-name="Path 585" d="M311.46,462.43a1,1,0,1,1,1,1A1,1,0,0,1,311.46,462.43Z" fill="#0e0e0c"/>
      <path id="Path_586-4" data-name="Path 586" d="M329.71,458.77c-1.715-.692-1.569-2.828.3-4.379,1.278-1.06,1.829-1.008,3.137.3,2.788,2.788.4,5.626-3.437,4.079Z" fill="#0e0e0c"/>
      <path id="Path_587-4" data-name="Path 587" d="M314.46,455.43a.975.975,0,0,1,.941-1,2.144,2.144,0,0,1,1.559,1c.34.55-.084,1-.941,1S314.46,455.98,314.46,455.43Z" fill="#0e0e0c"/>
      <path id="Path_588-4" data-name="Path 588" d="M292.63,452.7c-2.531-2.842-2.19-5.737,1-8.5,1.816-1.572,2.268-1.592,4.913-.224,2.145,1.109,2.909,2.225,2.9,4.231-.019,3.357-.77,4.452-4.033,5.881C295.193,455.06,294.571,454.879,292.63,452.7Z" transform="translate(-20.886 -48.972)" fill="#0e0e0c"/>
      <path id="Path_589-4" data-name="Path 589" d="M311.43,452.9c-1.737-2.092-.288-3.211,1.649-1.274.935.935,1.174,1.818.59,2.18-.54.334-1.548-.074-2.238-.906Z" fill="#0e0e0c"/>
      <path id="Path_590-4" data-name="Path 590" d="M276.03,446.86a5.315,5.315,0,0,1-1.571-2.429c0-.913,2.807-4,3.637-4,1.507,0,4.363,2.268,4.363,3.464,0,1.535-2.647,4.536-4,4.536A5.316,5.316,0,0,1,276.03,446.86Z" transform="translate(23.722 -21.255)" fill="#0e0e0c"/>
      <path id="Path_591-4" data-name="Path 591" d="M324.021,445.726c-.543-1.425-.428-1.54.56-.56.683.678.991,1.485.683,1.793s-.867-.247-1.243-1.233Z" fill="#0e0e0c"/>
      <path id="Path_592-4" data-name="Path 592" d="M339.67,444.28c.52-1.559,2.663-1.813,3.032-.359.138.542-.589,1.148-1.615,1.345-1.215.234-1.709-.11-1.417-.986Z" fill="#0e0e0c"/>
      <path id="Path_593-4" data-name="Path 593" d="M299.04,441.57c-.431-.7-.513-1.537-.183-1.867.895-.895,1.871.421,1.387,1.871-.339,1.016-.574,1.015-1.2,0Z" fill="#0e0e0c"/>
      <path id="Path_594-4" data-name="Path 594" d="M332.57,441.07c-.859-1.034-.8-1.647.251-2.517a2.778,2.778,0,0,1,4.639,1.992c0,2.237-3.185,2.58-4.89.526Z" fill="#0e0e0c"/>
      <path id="Path_595-4" data-name="Path 595" d="M321.54,430.59c-1.166-2.178.332-4.153,3.149-4.153,2.347,0,3.355,2.588,1.758,4.513-1.676,2.02-3.714,1.871-4.907-.36Z" fill="#0e0e0c"/>
      <path id="Path_596-4" data-name="Path 596" d="M285.8,429.89a2.384,2.384,0,0,1,.007-2.142c.712-.712,3.648,1.548,3.648,2.808,0,1.509-3.032.957-3.655-.666Z" fill="#0e0e0c"/>
      <path id="Path_599-4" data-name="Path 599" d="M303.8,404.89a2.385,2.385,0,0,1,0-2.133c.324-.324-.52-1.463-1.876-2.53-2.571-2.022-3.254-5.189-1.371-6.353.621-.384-.6-1.436-2.826-2.432-3.653-1.635-5.677-4.472-6.427-9.009-.4-2.391,2.754-7.446,5.582-8.959,1.9-1.02,3.564-1.143,6.24-.465,7.588,1.924,10.425,11.37,4.854,16.162-2.553,2.2-2.69,2.586-1.2,3.42,2.026,1.134,2.211,5.268.315,7.04-1.153,1.077-1.127,1.452.162,2.395a2.445,2.445,0,0,1-1.3,4.407,2.527,2.527,0,0,1-2.155-1.543Z" transform="translate(20.905 58.663)" fill="#0e0e0c"/>
      <path id="Path_601-4" data-name="Path 601" d="M295.67,363.25c-1.876-1.876-1.44-2.984,1.038-2.632,1.237.176,2.25.957,2.25,1.736,0,1.9-1.791,2.392-3.288.9Z" fill="#0e0e0c"/>
      <path id="Path_603-4" data-name="Path 603" d="M260.456,361.433c0-.55.675-1,1.5-1s1.5.45,1.5,1-.675,1-1.5,1S260.456,361.983,260.456,361.433Z" fill="#0e0e0c"/>
      <path id="Path_607-4" data-name="Path 607" d="M252.18,357.66a7.074,7.074,0,0,1-3.378-5.473c-.355-2.221-1.16-3.751-1.972-3.751-.755,0-1.372-.45-1.372-1,0-.926,1.706-1.382,4.75-1.269,1.485.055,1.686-3.344.25-4.231a2.19,2.19,0,0,1-1-1.618c0-.55.546-.663,1.213-.25a15.069,15.069,0,0,0,4.75,1.074c4.744.434,7.586,2.011,8.926,4.952,1.858,4.077,1.295,7.313-1.813,10.42-3.314,3.314-6.322,3.648-10.355,1.148Z" transform="translate(15.426 -4.013)" fill="#0e0e0c"/>
      <path id="Path_609-4" data-name="Path 609" d="M239.46,355.93c0-.917.563-1.479,1.25-1.25,1.416.472,1.26,2.08-.25,2.583C239.91,357.447,239.46,356.847,239.46,355.93Z" fill="#0e0e0c"/>
      <path id="Path_610-4" data-name="Path 610" d="M283.85,353.91c-1.55-2.365-1.541-2.651.132-4.5,3.14-3.469,7.477-1.909,7.477,2.69,0,2.112-2.519,4.335-4.911,4.335-.573,0-1.787-1.137-2.7-2.526Z" fill="#0e0e0c"/>
      <path id="Path_612-4" data-name="Path 612" d="M239.81,344.92c-.663-1.727,1.271-4.487,3.143-4.487a4.329,4.329,0,0,1,2.59,1.608c1.134,1.366,1.048,1.818-.569,3-2.479,1.813-4.44,1.767-5.164-.121Z" fill="#0e0e0c"/>
      <path id="Path_613-4" data-name="Path 613" d="M247.186,339.829a3.707,3.707,0,0,1-.729-2.263c0-1.126.3-1.237,1.113-.421a2.523,2.523,0,0,1,.729,2.263C248.088,340.041,247.587,340.23,247.186,339.829Z" fill="#0e0e0c"/>
      <path id="Path_616-4" data-name="Path 616" d="M237.967,317.449c-.345-.559.073-1.016.931-1.016,1.757,0,2.015.6.628,1.457a1.151,1.151,0,0,1-1.559-.441Z" fill="#0e0e0c"/>
    </g>
    <g id="ink-24501-5" data-name="ink-24501" transform="translate(652.269 1323.786) rotate(-65)">
      <path id="Path_580-5" data-name="Path 580" d="M358.14,521.63c-3.392-3.54-3.478-7.5-.233-10.741,3.861-3.861,8.636-2.926,11.382,2.23,1.7,3.186,1.433,5.7-.909,8.681-2.785,3.54-6.749,3.474-10.24-.17Z" fill="#0e0e0c"/>
      <path id="Path_581-5" data-name="Path 581" d="M338.77,517.31a10.274,10.274,0,0,1-7.313-9.393,5.069,5.069,0,0,0-2.5-4.888c-1.375-.9-2.5-2.333-2.5-3.182,0-2.14,4.934-8.41,6.619-8.41,2.58,0,1.4-1.747-1.587-2.344a11.775,11.775,0,0,1-5.107-2.732c-1.887-1.887-2.312-1.964-3.616-.66s-2.009,1.277-5.985-.233c-2.479-.941-4.886-2.324-5.349-3.074-2-3.237,1.792-11.114,5.993-12.447,1.276-.4,1.6-1.6,1.413-5.267-.4-7.966-.936-9.773-5.015-16.884a99.072,99.072,0,0,1-5.784-11.859c-1.017-2.75-5.9-14.675-10.852-26.5s-11.673-28.25-14.936-36.5-7.179-17.7-8.7-21-4.428-10.578-6.456-16.173c-2.238-6.174-4.844-11.411-6.629-13.322-3.434-3.676-5.014-9.752-2.886-11.1,2.112-1.337,3.292-1.1,6.984,1.382,6.19,4.167,7.209,10.527,1.953,12.2-1.854.588-1.781,1.008,1.529,8.818a91.822,91.822,0,0,1,3.742,9.852,8.237,8.237,0,0,0,1.259,3c1.126,1.53,3.5,6.822,12.95,28.848,8.475,19.756,24.011,53,27.807,59.5a61.7,61.7,0,0,1,4.14,8.5c.671,1.925,1.7,3.5,2.286,3.5,1.765,0,2.758,1.557,1.492,2.34-.862.533-.5,2.205,1.335,6.165,1.523,3.287,2.8,4.972,3.24,4.265.461-.747,1.8.431,3.694,3.259,2.838,4.228,5.642,5.624,6.972,3.472.973-1.574,5.222-1.167,5.886.563.33.86.973,1.333,1.429,1.051,1.219-.753,4.362,3.29,3.563,4.584-.468.758-1.027.638-1.78-.383-1.061-1.439-4.839-3.815-6.066-3.815-.33,0,.937,1.35,2.816,3s3.968,3,4.642,3,.978.643.677,1.429c-1.447,3.77-1.752,8.54-.676,10.551,1.573,2.94.5,3.768-1.983,1.525-1.967-1.78-2.006-1.755-2.006,1.3,0,2.882-2.861,6-4.241,4.615-.277-.277-.735.377-1.017,1.454-.451,1.723-.115,1.894,2.79,1.422,3.522-.571,4.477-.048,10.154,5.569,1.874,1.854,3.656,3.121,3.96,2.817.839-.839-1.55-7.363-3.2-8.73-1.682-1.4-1.906-2.958-.424-2.958.564,0,1.417,1.013,1.9,2.25a19.779,19.779,0,0,0,4.552,5.483c4.054,3.559,4.38,6.572.768,7.087-1.232.176-2.24-.162-2.24-.75,0-1.763-1.822-1.207-2.441.744-.947,2.983-6.878,8.82-9.559,9.408a14.146,14.146,0,0,1-5.687-.349Z" fill="#0e0e0c"/>
      <path id="Path_582-5" data-name="Path 582" d="M323.46,515.93c-.993-1.2-.993-1.8,0-3,1.632-1.966,3.629-1.909,4.41.127.612,1.595-.919,4.373-2.41,4.373A4.092,4.092,0,0,1,323.46,515.93Z" transform="translate(-5.461 -25.566)" fill="#0e0e0c"/>
      <path id="Path_583-5" data-name="Path 583" d="M362.96,506.43a2.144,2.144,0,0,1,1.559-1,.975.975,0,0,1,.941,1c0,.55-.7,1-1.559,1S362.62,506.98,362.96,506.43Z" fill="#0e0e0c"/>
      <path id="Path_584-5" data-name="Path 584" d="M348.96,491.43c-.34-.55-.141-1,.441-1a1.034,1.034,0,0,1,1.059,1c0,.55-.2,1-.441,1S349.3,491.98,348.96,491.43Z" fill="#0e0e0c"/>
      <path id="Path_585-5" data-name="Path 585" d="M311.46,462.43a1,1,0,1,1,1,1A1,1,0,0,1,311.46,462.43Z" fill="#0e0e0c"/>
      <path id="Path_586-5" data-name="Path 586" d="M329.71,458.77c-1.715-.692-1.569-2.828.3-4.379,1.278-1.06,1.829-1.008,3.137.3,2.788,2.788.4,5.626-3.437,4.079Z" fill="#0e0e0c"/>
      <path id="Path_587-5" data-name="Path 587" d="M314.46,455.43a.975.975,0,0,1,.941-1,2.144,2.144,0,0,1,1.559,1c.34.55-.084,1-.941,1S314.46,455.98,314.46,455.43Z" fill="#0e0e0c"/>
      <path id="Path_588-5" data-name="Path 588" d="M292.63,452.7c-2.531-2.842-2.19-5.737,1-8.5,1.816-1.572,2.268-1.592,4.913-.224,2.145,1.109,2.909,2.225,2.9,4.231-.019,3.357-.77,4.452-4.033,5.881C295.193,455.06,294.571,454.879,292.63,452.7Z" transform="translate(43.764 47.118)" fill="#0e0e0c"/>
      <path id="Path_589-5" data-name="Path 589" d="M311.43,452.9c-1.737-2.092-.288-3.211,1.649-1.274.935.935,1.174,1.818.59,2.18-.54.334-1.548-.074-2.238-.906Z" fill="#0e0e0c"/>
      <path id="Path_590-5" data-name="Path 590" d="M276.03,446.86a5.315,5.315,0,0,1-1.571-2.429c0-.913,2.807-4,3.637-4,1.507,0,4.363,2.268,4.363,3.464,0,1.535-2.647,4.536-4,4.536A5.316,5.316,0,0,1,276.03,446.86Z" transform="translate(23.722 -21.255)" fill="#0e0e0c"/>
      <path id="Path_591-5" data-name="Path 591" d="M324.021,445.726c-.543-1.425-.428-1.54.56-.56.683.678.991,1.485.683,1.793s-.867-.247-1.243-1.233Z" fill="#0e0e0c"/>
      <path id="Path_592-5" data-name="Path 592" d="M339.67,444.28c.52-1.559,2.663-1.813,3.032-.359.138.542-.589,1.148-1.615,1.345-1.215.234-1.709-.11-1.417-.986Z" fill="#0e0e0c"/>
      <path id="Path_593-5" data-name="Path 593" d="M299.04,441.57c-.431-.7-.513-1.537-.183-1.867.895-.895,1.871.421,1.387,1.871-.339,1.016-.574,1.015-1.2,0Z" fill="#0e0e0c"/>
      <path id="Path_594-5" data-name="Path 594" d="M332.57,441.07c-.859-1.034-.8-1.647.251-2.517a2.778,2.778,0,0,1,4.639,1.992c0,2.237-3.185,2.58-4.89.526Z" fill="#0e0e0c"/>
      <path id="Path_595-5" data-name="Path 595" d="M321.54,430.59c-1.166-2.178.332-4.153,3.149-4.153,2.347,0,3.355,2.588,1.758,4.513-1.676,2.02-3.714,1.871-4.907-.36Z" fill="#0e0e0c"/>
      <path id="Path_596-5" data-name="Path 596" d="M285.8,429.89a2.384,2.384,0,0,1,.007-2.142c.712-.712,3.648,1.548,3.648,2.808,0,1.509-3.032.957-3.655-.666Z" fill="#0e0e0c"/>
      <path id="Path_599-5" data-name="Path 599" d="M303.8,404.89a2.385,2.385,0,0,1,0-2.133c.324-.324-.52-1.463-1.876-2.53-2.571-2.022-3.254-5.189-1.371-6.353.621-.384-.6-1.436-2.826-2.432-3.653-1.635-5.677-4.472-6.427-9.009-.4-2.391,2.754-7.446,5.582-8.959,1.9-1.02,3.564-1.143,6.24-.465,7.588,1.924,10.425,11.37,4.854,16.162-2.553,2.2-2.69,2.586-1.2,3.42,2.026,1.134,2.211,5.268.315,7.04-1.153,1.077-1.127,1.452.162,2.395a2.445,2.445,0,0,1-1.3,4.407,2.527,2.527,0,0,1-2.155-1.543Z" transform="translate(20.905 58.663)" fill="#0e0e0c"/>
      <path id="Path_601-5" data-name="Path 601" d="M295.67,363.25c-1.876-1.876-1.44-2.984,1.038-2.632,1.237.176,2.25.957,2.25,1.736,0,1.9-1.791,2.392-3.288.9Z" fill="#0e0e0c"/>
      <path id="Path_603-5" data-name="Path 603" d="M260.456,361.433c0-.55.675-1,1.5-1s1.5.45,1.5,1-.675,1-1.5,1S260.456,361.983,260.456,361.433Z" fill="#0e0e0c"/>
      <path id="Path_607-5" data-name="Path 607" d="M252.18,357.66a7.074,7.074,0,0,1-3.378-5.473c-.355-2.221-1.16-3.751-1.972-3.751-.755,0-1.372-.45-1.372-1,0-.926,1.706-1.382,4.75-1.269,1.485.055,1.686-3.344.25-4.231a2.19,2.19,0,0,1-1-1.618c0-.55.546-.663,1.213-.25a15.069,15.069,0,0,0,4.75,1.074c4.744.434,7.586,2.011,8.926,4.952,1.858,4.077,1.295,7.313-1.813,10.42-3.314,3.314-6.322,3.648-10.355,1.148Z" transform="translate(52.185 77.557)" fill="#0e0e0c"/>
      <path id="Path_609-5" data-name="Path 609" d="M239.46,355.93c0-.917.563-1.479,1.25-1.25,1.416.472,1.26,2.08-.25,2.583C239.91,357.447,239.46,356.847,239.46,355.93Z" fill="#0e0e0c"/>
      <path id="Path_610-5" data-name="Path 610" d="M283.85,353.91c-1.55-2.365-1.541-2.651.132-4.5,3.14-3.469,7.477-1.909,7.477,2.69,0,2.112-2.519,4.335-4.911,4.335-.573,0-1.787-1.137-2.7-2.526Z" fill="#0e0e0c"/>
      <path id="Path_612-5" data-name="Path 612" d="M239.81,344.92c-.663-1.727,1.271-4.487,3.143-4.487a4.329,4.329,0,0,1,2.59,1.608c1.134,1.366,1.048,1.818-.569,3-2.479,1.813-4.44,1.767-5.164-.121Z" fill="#0e0e0c"/>
      <path id="Path_613-5" data-name="Path 613" d="M247.186,339.829a3.707,3.707,0,0,1-.729-2.263c0-1.126.3-1.237,1.113-.421a2.523,2.523,0,0,1,.729,2.263C248.088,340.041,247.587,340.23,247.186,339.829Z" fill="#0e0e0c"/>
      <path id="Path_616-5" data-name="Path 616" d="M237.967,317.449c-.345-.559.073-1.016.931-1.016,1.757,0,2.015.6.628,1.457a1.151,1.151,0,0,1-1.559-.441Z" fill="#0e0e0c"/>
    </g>
    <g id="ink-24501-6" data-name="ink-24501" transform="matrix(-0.391, 0.921, -0.921, -0.391, 1869.265, 1109.182)">
      <path id="Path_580-6" data-name="Path 580" d="M358.14,521.63c-3.392-3.54-3.478-7.5-.233-10.741,3.861-3.861,8.636-2.926,11.382,2.23,1.7,3.186,1.433,5.7-.909,8.681-2.785,3.54-6.749,3.474-10.24-.17Z" fill="#0e0e0c"/>
      <path id="Path_581-6" data-name="Path 581" d="M338.77,517.31a10.274,10.274,0,0,1-7.313-9.393,5.069,5.069,0,0,0-2.5-4.888c-1.375-.9-2.5-2.333-2.5-3.182,0-2.14,4.934-8.41,6.619-8.41,2.58,0,1.4-1.747-1.587-2.344a11.775,11.775,0,0,1-5.107-2.732c-1.887-1.887-2.312-1.964-3.616-.66s-2.009,1.277-5.985-.233c-2.479-.941-4.886-2.324-5.349-3.074-2-3.237,1.792-11.114,5.993-12.447,1.276-.4,1.6-1.6,1.413-5.267-.4-7.966-.936-9.773-5.015-16.884a99.072,99.072,0,0,1-5.784-11.859c-1.017-2.75-5.9-14.675-10.852-26.5s-11.673-28.25-14.936-36.5-7.179-17.7-8.7-21-4.428-10.578-6.456-16.173c-2.238-6.174-4.844-11.411-6.629-13.322-3.434-3.676-5.014-9.752-2.886-11.1,2.112-1.337,3.292-1.1,6.984,1.382,6.19,4.167,7.209,10.527,1.953,12.2-1.854.588-1.781,1.008,1.529,8.818a91.822,91.822,0,0,1,3.742,9.852,8.237,8.237,0,0,0,1.259,3c1.126,1.53,3.5,6.822,12.95,28.848,8.475,19.756,24.011,53,27.807,59.5a61.7,61.7,0,0,1,4.14,8.5c.671,1.925,1.7,3.5,2.286,3.5,1.765,0,2.758,1.557,1.492,2.34-.862.533-.5,2.205,1.335,6.165,1.523,3.287,2.8,4.972,3.24,4.265.461-.747,1.8.431,3.694,3.259,2.838,4.228,5.642,5.624,6.972,3.472.973-1.574,5.222-1.167,5.886.563.33.86.973,1.333,1.429,1.051,1.219-.753,4.362,3.29,3.563,4.584-.468.758-1.027.638-1.78-.383-1.061-1.439-4.839-3.815-6.066-3.815-.33,0,.937,1.35,2.816,3s3.968,3,4.642,3,.978.643.677,1.429c-1.447,3.77-1.752,8.54-.676,10.551,1.573,2.94.5,3.768-1.983,1.525-1.967-1.78-2.006-1.755-2.006,1.3,0,2.882-2.861,6-4.241,4.615-.277-.277-.735.377-1.017,1.454-.451,1.723-.115,1.894,2.79,1.422,3.522-.571,4.477-.048,10.154,5.569,1.874,1.854,3.656,3.121,3.96,2.817.839-.839-1.55-7.363-3.2-8.73-1.682-1.4-1.906-2.958-.424-2.958.564,0,1.417,1.013,1.9,2.25a19.779,19.779,0,0,0,4.552,5.483c4.054,3.559,4.38,6.572.768,7.087-1.232.176-2.24-.162-2.24-.75,0-1.763-1.822-1.207-2.441.744-.947,2.983-6.878,8.82-9.559,9.408a14.146,14.146,0,0,1-5.687-.349Z" fill="#0e0e0c"/>
      <path id="Path_582-6" data-name="Path 582" d="M323.46,515.93c-.993-1.2-.993-1.8,0-3,1.632-1.966,3.629-1.909,4.41.127.612,1.595-.919,4.373-2.41,4.373A4.092,4.092,0,0,1,323.46,515.93Z" transform="translate(-5.461 -25.566)" fill="#0e0e0c"/>
      <path id="Path_583-6" data-name="Path 583" d="M362.96,506.43a2.144,2.144,0,0,1,1.559-1,.975.975,0,0,1,.941,1c0,.55-.7,1-1.559,1S362.62,506.98,362.96,506.43Z" fill="#0e0e0c"/>
      <path id="Path_584-6" data-name="Path 584" d="M348.96,491.43c-.34-.55-.141-1,.441-1a1.034,1.034,0,0,1,1.059,1c0,.55-.2,1-.441,1S349.3,491.98,348.96,491.43Z" fill="#0e0e0c"/>
      <path id="Path_585-6" data-name="Path 585" d="M311.46,462.43a1,1,0,1,1,1,1A1,1,0,0,1,311.46,462.43Z" fill="#0e0e0c"/>
      <path id="Path_586-6" data-name="Path 586" d="M329.71,458.77c-1.715-.692-1.569-2.828.3-4.379,1.278-1.06,1.829-1.008,3.137.3,2.788,2.788.4,5.626-3.437,4.079Z" fill="#0e0e0c"/>
      <path id="Path_587-6" data-name="Path 587" d="M314.46,455.43a.975.975,0,0,1,.941-1,2.144,2.144,0,0,1,1.559,1c.34.55-.084,1-.941,1S314.46,455.98,314.46,455.43Z" fill="#0e0e0c"/>
      <path id="Path_588-6" data-name="Path 588" d="M292.63,452.7c-2.531-2.842-2.19-5.737,1-8.5,1.816-1.572,2.268-1.592,4.913-.224,2.145,1.109,2.909,2.225,2.9,4.231-.019,3.357-.77,4.452-4.033,5.881C295.193,455.06,294.571,454.879,292.63,452.7Z" transform="translate(43.764 47.118)" fill="#0e0e0c"/>
      <path id="Path_589-6" data-name="Path 589" d="M311.43,452.9c-1.737-2.092-.288-3.211,1.649-1.274.935.935,1.174,1.818.59,2.18-.54.334-1.548-.074-2.238-.906Z" fill="#0e0e0c"/>
      <path id="Path_590-6" data-name="Path 590" d="M276.03,446.86a5.315,5.315,0,0,1-1.571-2.429c0-.913,2.807-4,3.637-4,1.507,0,4.363,2.268,4.363,3.464,0,1.535-2.647,4.536-4,4.536A5.316,5.316,0,0,1,276.03,446.86Z" transform="translate(23.722 -21.255)" fill="#0e0e0c"/>
      <path id="Path_591-6" data-name="Path 591" d="M324.021,445.726c-.543-1.425-.428-1.54.56-.56.683.678.991,1.485.683,1.793s-.867-.247-1.243-1.233Z" fill="#0e0e0c"/>
      <path id="Path_592-6" data-name="Path 592" d="M339.67,444.28c.52-1.559,2.663-1.813,3.032-.359.138.542-.589,1.148-1.615,1.345-1.215.234-1.709-.11-1.417-.986Z" fill="#0e0e0c"/>
      <path id="Path_593-6" data-name="Path 593" d="M299.04,441.57c-.431-.7-.513-1.537-.183-1.867.895-.895,1.871.421,1.387,1.871-.339,1.016-.574,1.015-1.2,0Z" fill="#0e0e0c"/>
      <path id="Path_594-6" data-name="Path 594" d="M332.57,441.07c-.859-1.034-.8-1.647.251-2.517a2.778,2.778,0,0,1,4.639,1.992c0,2.237-3.185,2.58-4.89.526Z" fill="#0e0e0c"/>
      <path id="Path_595-6" data-name="Path 595" d="M321.54,430.59c-1.166-2.178.332-4.153,3.149-4.153,2.347,0,3.355,2.588,1.758,4.513-1.676,2.02-3.714,1.871-4.907-.36Z" transform="translate(-24.605 -42.787)" fill="#0e0e0c"/>
      <path id="Path_596-6" data-name="Path 596" d="M285.8,429.89a2.384,2.384,0,0,1,.007-2.142c.712-.712,3.648,1.548,3.648,2.808,0,1.509-3.032.957-3.655-.666Z" fill="#0e0e0c"/>
      <path id="Path_599-6" data-name="Path 599" d="M303.8,404.89a2.385,2.385,0,0,1,0-2.133c.324-.324-.52-1.463-1.876-2.53-2.571-2.022-3.254-5.189-1.371-6.353.621-.384-.6-1.436-2.826-2.432-3.653-1.635-5.677-4.472-6.427-9.009-.4-2.391,2.754-7.446,5.582-8.959,1.9-1.02,3.564-1.143,6.24-.465,7.588,1.924,10.425,11.37,4.854,16.162-2.553,2.2-2.69,2.586-1.2,3.42,2.026,1.134,2.211,5.268.315,7.04-1.153,1.077-1.127,1.452.162,2.395a2.445,2.445,0,0,1-1.3,4.407,2.527,2.527,0,0,1-2.155-1.543Z" transform="translate(20.905 58.663)" fill="#0e0e0c"/>
      <path id="Path_601-6" data-name="Path 601" d="M295.67,363.25c-1.876-1.876-1.44-2.984,1.038-2.632,1.237.176,2.25.957,2.25,1.736,0,1.9-1.791,2.392-3.288.9Z" fill="#0e0e0c"/>
      <path id="Path_603-6" data-name="Path 603" d="M260.456,361.433c0-.55.675-1,1.5-1s1.5.45,1.5,1-.675,1-1.5,1S260.456,361.983,260.456,361.433Z" fill="#0e0e0c"/>
      <path id="Path_607-6" data-name="Path 607" d="M252.18,357.66a7.074,7.074,0,0,1-3.378-5.473c-.355-2.221-1.16-3.751-1.972-3.751-.755,0-1.372-.45-1.372-1,0-.926,1.706-1.382,4.75-1.269,1.485.055,1.686-3.344.25-4.231a2.19,2.19,0,0,1-1-1.618c0-.55.546-.663,1.213-.25a15.069,15.069,0,0,0,4.75,1.074c4.744.434,7.586,2.011,8.926,4.952,1.858,4.077,1.295,7.313-1.813,10.42-3.314,3.314-6.322,3.648-10.355,1.148Z" transform="translate(52.185 77.557)" fill="#0e0e0c"/>
      <path id="Path_609-6" data-name="Path 609" d="M239.46,355.93c0-.917.563-1.479,1.25-1.25,1.416.472,1.26,2.08-.25,2.583C239.91,357.447,239.46,356.847,239.46,355.93Z" fill="#0e0e0c"/>
      <path id="Path_610-6" data-name="Path 610" d="M283.85,353.91c-1.55-2.365-1.541-2.651.132-4.5,3.14-3.469,7.477-1.909,7.477,2.69,0,2.112-2.519,4.335-4.911,4.335-.573,0-1.787-1.137-2.7-2.526Z" transform="translate(-13.793 -8.098)" fill="#0e0e0c"/>
      <path id="Path_612-6" data-name="Path 612" d="M239.81,344.92c-.663-1.727,1.271-4.487,3.143-4.487a4.329,4.329,0,0,1,2.59,1.608c1.134,1.366,1.048,1.818-.569,3-2.479,1.813-4.44,1.767-5.164-.121Z" fill="#0e0e0c"/>
      <path id="Path_613-6" data-name="Path 613" d="M247.186,339.829a3.707,3.707,0,0,1-.729-2.263c0-1.126.3-1.237,1.113-.421a2.523,2.523,0,0,1,.729,2.263C248.088,340.041,247.587,340.23,247.186,339.829Z" fill="#0e0e0c"/>
      <path id="Path_616-6" data-name="Path 616" d="M237.967,317.449c-.345-.559.073-1.016.931-1.016,1.757,0,2.015.6.628,1.457a1.151,1.151,0,0,1-1.559-.441Z" fill="#0e0e0c"/>
    </g>
    <g id="ink-24501-7" data-name="ink-24501" transform="matrix(-0.391, 0.921, -0.921, -0.391, 2430.265, 1107.779)">
      <path id="Path_580-7" data-name="Path 580" d="M358.14,521.63c-3.392-3.54-3.478-7.5-.233-10.741,3.861-3.861,8.636-2.926,11.382,2.23,1.7,3.186,1.433,5.7-.909,8.681-2.785,3.54-6.749,3.474-10.24-.17Z" fill="#0e0e0c"/>
      <path id="Path_581-7" data-name="Path 581" d="M338.77,517.31a10.274,10.274,0,0,1-7.313-9.393,5.069,5.069,0,0,0-2.5-4.888c-1.375-.9-2.5-2.333-2.5-3.182,0-2.14,4.934-8.41,6.619-8.41,2.58,0,1.4-1.747-1.587-2.344a11.775,11.775,0,0,1-5.107-2.732c-1.887-1.887-2.312-1.964-3.616-.66s-2.009,1.277-5.985-.233c-2.479-.941-4.886-2.324-5.349-3.074-2-3.237,1.792-11.114,5.993-12.447,1.276-.4,1.6-1.6,1.413-5.267-.4-7.966-.936-9.773-5.015-16.884a99.072,99.072,0,0,1-5.784-11.859c-1.017-2.75-5.9-14.675-10.852-26.5s-11.673-28.25-14.936-36.5-7.179-17.7-8.7-21-4.428-10.578-6.456-16.173c-2.238-6.174-4.844-11.411-6.629-13.322-3.434-3.676-5.014-9.752-2.886-11.1,2.112-1.337,3.292-1.1,6.984,1.382,6.19,4.167,7.209,10.527,1.953,12.2-1.854.588-1.781,1.008,1.529,8.818a91.822,91.822,0,0,1,3.742,9.852,8.237,8.237,0,0,0,1.259,3c1.126,1.53,3.5,6.822,12.95,28.848,8.475,19.756,24.011,53,27.807,59.5a61.7,61.7,0,0,1,4.14,8.5c.671,1.925,1.7,3.5,2.286,3.5,1.765,0,2.758,1.557,1.492,2.34-.862.533-.5,2.205,1.335,6.165,1.523,3.287,2.8,4.972,3.24,4.265.461-.747,1.8.431,3.694,3.259,2.838,4.228,5.642,5.624,6.972,3.472.973-1.574,5.222-1.167,5.886.563.33.86.973,1.333,1.429,1.051,1.219-.753,4.362,3.29,3.563,4.584-.468.758-1.027.638-1.78-.383-1.061-1.439-4.839-3.815-6.066-3.815-.33,0,.937,1.35,2.816,3s3.968,3,4.642,3,.978.643.677,1.429c-1.447,3.77-1.752,8.54-.676,10.551,1.573,2.94.5,3.768-1.983,1.525-1.967-1.78-2.006-1.755-2.006,1.3,0,2.882-2.861,6-4.241,4.615-.277-.277-.735.377-1.017,1.454-.451,1.723-.115,1.894,2.79,1.422,3.522-.571,4.477-.048,10.154,5.569,1.874,1.854,3.656,3.121,3.96,2.817.839-.839-1.55-7.363-3.2-8.73-1.682-1.4-1.906-2.958-.424-2.958.564,0,1.417,1.013,1.9,2.25a19.779,19.779,0,0,0,4.552,5.483c4.054,3.559,4.38,6.572.768,7.087-1.232.176-2.24-.162-2.24-.75,0-1.763-1.822-1.207-2.441.744-.947,2.983-6.878,8.82-9.559,9.408a14.146,14.146,0,0,1-5.687-.349Z" fill="#0e0e0c"/>
      <path id="Path_582-7" data-name="Path 582" d="M323.46,515.93c-.993-1.2-.993-1.8,0-3,1.632-1.966,3.629-1.909,4.41.127.612,1.595-.919,4.373-2.41,4.373A4.092,4.092,0,0,1,323.46,515.93Z" transform="translate(-5.461 -25.566)" fill="#0e0e0c"/>
      <path id="Path_583-7" data-name="Path 583" d="M362.96,506.43a2.144,2.144,0,0,1,1.559-1,.975.975,0,0,1,.941,1c0,.55-.7,1-1.559,1S362.62,506.98,362.96,506.43Z" fill="#0e0e0c"/>
      <path id="Path_584-7" data-name="Path 584" d="M348.96,491.43c-.34-.55-.141-1,.441-1a1.034,1.034,0,0,1,1.059,1c0,.55-.2,1-.441,1S349.3,491.98,348.96,491.43Z" fill="#0e0e0c"/>
      <path id="Path_585-7" data-name="Path 585" d="M311.46,462.43a1,1,0,1,1,1,1A1,1,0,0,1,311.46,462.43Z" fill="#0e0e0c"/>
      <path id="Path_586-7" data-name="Path 586" d="M329.71,458.77c-1.715-.692-1.569-2.828.3-4.379,1.278-1.06,1.829-1.008,3.137.3,2.788,2.788.4,5.626-3.437,4.079Z" fill="#0e0e0c"/>
      <path id="Path_587-7" data-name="Path 587" d="M314.46,455.43a.975.975,0,0,1,.941-1,2.144,2.144,0,0,1,1.559,1c.34.55-.084,1-.941,1S314.46,455.98,314.46,455.43Z" fill="#0e0e0c"/>
      <path id="Path_588-7" data-name="Path 588" d="M292.63,452.7c-2.531-2.842-2.19-5.737,1-8.5,1.816-1.572,2.268-1.592,4.913-.224,2.145,1.109,2.909,2.225,2.9,4.231-.019,3.357-.77,4.452-4.033,5.881C295.193,455.06,294.571,454.879,292.63,452.7Z" transform="translate(43.764 47.118)" fill="#0e0e0c"/>
      <path id="Path_589-7" data-name="Path 589" d="M311.43,452.9c-1.737-2.092-.288-3.211,1.649-1.274.935.935,1.174,1.818.59,2.18-.54.334-1.548-.074-2.238-.906Z" fill="#0e0e0c"/>
      <path id="Path_590-7" data-name="Path 590" d="M276.03,446.86a5.315,5.315,0,0,1-1.571-2.429c0-.913,2.807-4,3.637-4,1.507,0,4.363,2.268,4.363,3.464,0,1.535-2.647,4.536-4,4.536A5.316,5.316,0,0,1,276.03,446.86Z" transform="translate(23.722 -21.255)" fill="#0e0e0c"/>
      <path id="Path_591-7" data-name="Path 591" d="M324.021,445.726c-.543-1.425-.428-1.54.56-.56.683.678.991,1.485.683,1.793s-.867-.247-1.243-1.233Z" fill="#0e0e0c"/>
      <path id="Path_592-7" data-name="Path 592" d="M339.67,444.28c.52-1.559,2.663-1.813,3.032-.359.138.542-.589,1.148-1.615,1.345-1.215.234-1.709-.11-1.417-.986Z" fill="#0e0e0c"/>
      <path id="Path_593-7" data-name="Path 593" d="M299.04,441.57c-.431-.7-.513-1.537-.183-1.867.895-.895,1.871.421,1.387,1.871-.339,1.016-.574,1.015-1.2,0Z" fill="#0e0e0c"/>
      <path id="Path_594-7" data-name="Path 594" d="M332.57,441.07c-.859-1.034-.8-1.647.251-2.517a2.778,2.778,0,0,1,4.639,1.992c0,2.237-3.185,2.58-4.89.526Z" fill="#0e0e0c"/>
      <path id="Path_595-7" data-name="Path 595" d="M321.54,430.59c-1.166-2.178.332-4.153,3.149-4.153,2.347,0,3.355,2.588,1.758,4.513-1.676,2.02-3.714,1.871-4.907-.36Z" transform="translate(-24.605 -42.787)" fill="#0e0e0c"/>
      <path id="Path_596-7" data-name="Path 596" d="M285.8,429.89a2.384,2.384,0,0,1,.007-2.142c.712-.712,3.648,1.548,3.648,2.808,0,1.509-3.032.957-3.655-.666Z" fill="#0e0e0c"/>
      <path id="Path_599-7" data-name="Path 599" d="M303.8,404.89a2.385,2.385,0,0,1,0-2.133c.324-.324-.52-1.463-1.876-2.53-2.571-2.022-3.254-5.189-1.371-6.353.621-.384-.6-1.436-2.826-2.432-3.653-1.635-5.677-4.472-6.427-9.009-.4-2.391,2.754-7.446,5.582-8.959,1.9-1.02,3.564-1.143,6.24-.465,7.588,1.924,10.425,11.37,4.854,16.162-2.553,2.2-2.69,2.586-1.2,3.42,2.026,1.134,2.211,5.268.315,7.04-1.153,1.077-1.127,1.452.162,2.395a2.445,2.445,0,0,1-1.3,4.407,2.527,2.527,0,0,1-2.155-1.543Z" transform="translate(20.905 58.663)" fill="#0e0e0c"/>
      <path id="Path_601-7" data-name="Path 601" d="M295.67,363.25c-1.876-1.876-1.44-2.984,1.038-2.632,1.237.176,2.25.957,2.25,1.736,0,1.9-1.791,2.392-3.288.9Z" fill="#0e0e0c"/>
      <path id="Path_603-7" data-name="Path 603" d="M260.456,361.433c0-.55.675-1,1.5-1s1.5.45,1.5,1-.675,1-1.5,1S260.456,361.983,260.456,361.433Z" fill="#0e0e0c"/>
      <path id="Path_607-7" data-name="Path 607" d="M252.18,357.66a7.074,7.074,0,0,1-3.378-5.473c-.355-2.221-1.16-3.751-1.972-3.751-.755,0-1.372-.45-1.372-1,0-.926,1.706-1.382,4.75-1.269,1.485.055,1.686-3.344.25-4.231a2.19,2.19,0,0,1-1-1.618c0-.55.546-.663,1.213-.25a15.069,15.069,0,0,0,4.75,1.074c4.744.434,7.586,2.011,8.926,4.952,1.858,4.077,1.295,7.313-1.813,10.42-3.314,3.314-6.322,3.648-10.355,1.148Z" transform="translate(52.185 77.557)" fill="#0e0e0c"/>
      <path id="Path_609-7" data-name="Path 609" d="M239.46,355.93c0-.917.563-1.479,1.25-1.25,1.416.472,1.26,2.08-.25,2.583C239.91,357.447,239.46,356.847,239.46,355.93Z" fill="#0e0e0c"/>
      <path id="Path_610-7" data-name="Path 610" d="M283.85,353.91c-1.55-2.365-1.541-2.651.132-4.5,3.14-3.469,7.477-1.909,7.477,2.69,0,2.112-2.519,4.335-4.911,4.335-.573,0-1.787-1.137-2.7-2.526Z" transform="translate(-13.793 -8.098)" fill="#0e0e0c"/>
      <path id="Path_612-7" data-name="Path 612" d="M239.81,344.92c-.663-1.727,1.271-4.487,3.143-4.487a4.329,4.329,0,0,1,2.59,1.608c1.134,1.366,1.048,1.818-.569,3-2.479,1.813-4.44,1.767-5.164-.121Z" fill="#0e0e0c"/>
      <path id="Path_613-7" data-name="Path 613" d="M247.186,339.829a3.707,3.707,0,0,1-.729-2.263c0-1.126.3-1.237,1.113-.421a2.523,2.523,0,0,1,.729,2.263C248.088,340.041,247.587,340.23,247.186,339.829Z" fill="#0e0e0c"/>
      <path id="Path_616-7" data-name="Path 616" d="M237.967,317.449c-.345-.559.073-1.016.931-1.016,1.757,0,2.015.6.628,1.457a1.151,1.151,0,0,1-1.559-.441Z" fill="#0e0e0c"/>
    </g>
    <g id="ink-24501-8" data-name="ink-24501" transform="translate(2575.035 1123.939) rotate(115)">
      <path id="Path_580-8" data-name="Path 580" d="M359.123,536.408c-4.672-7.531-16.348-18.572-11.879-25.475,5.318-8.213,16.888-4.219,20.67,6.747,2.337,6.777,8.54,12.754,5.313,19.088-3.835,7.53-9.3,7.39-14.1-.361Z" transform="translate(-7.439 5.398)" fill="#0e0e0c"/>
      <path id="Path_581-8" data-name="Path 581" d="M338.77,517.31a10.274,10.274,0,0,1-7.313-9.393,5.069,5.069,0,0,0-2.5-4.888c-1.375-.9-2.5-2.333-2.5-3.182,0-2.14,4.934-8.41,6.619-8.41,2.58,0,1.4-1.747-1.587-2.344a11.775,11.775,0,0,1-5.107-2.732c-1.887-1.887-2.312-1.964-3.616-.66s-2.009,1.277-5.985-.233c-2.479-.941-4.886-2.324-5.349-3.074-2-3.237,1.792-11.114,5.993-12.447,1.276-.4,1.6-1.6,1.413-5.267-.4-7.966-.936-9.773-5.015-16.884a99.072,99.072,0,0,1-5.784-11.859c-1.017-2.75-5.9-14.675-10.852-26.5s-11.673-28.25-14.936-36.5-7.179-17.7-8.7-21-4.428-10.578-6.456-16.173c-2.238-6.174-4.844-11.411-6.629-13.322-3.434-3.676-5.014-9.752-2.886-11.1,2.112-1.337,3.292-1.1,6.984,1.382,6.19,4.167,7.209,10.527,1.953,12.2-1.854.588-1.781,1.008,1.529,8.818a91.822,91.822,0,0,1,3.742,9.852,8.237,8.237,0,0,0,1.259,3c1.126,1.53,3.5,6.822,12.95,28.848,8.475,19.756,24.011,53,27.807,59.5a61.7,61.7,0,0,1,4.14,8.5c.671,1.925,1.7,3.5,2.286,3.5,1.765,0,2.758,1.557,1.492,2.34-.862.533-.5,2.205,1.335,6.165,1.523,3.287,2.8,4.972,3.24,4.265.461-.747,1.8.431,3.694,3.259,2.838,4.228,5.642,5.624,6.972,3.472.973-1.574,5.222-1.167,5.886.563.33.86.973,1.333,1.429,1.051,1.219-.753,4.362,3.29,3.563,4.584-.468.758-1.027.638-1.78-.383-1.061-1.439-4.839-3.815-6.066-3.815-.33,0,.937,1.35,2.816,3s3.968,3,4.642,3,.978.643.677,1.429c-1.447,3.77-1.752,8.54-.676,10.551,1.573,2.94.5,3.768-1.983,1.525-1.967-1.78-2.006-1.755-2.006,1.3,0,2.882-2.861,6-4.241,4.615-.277-.277-.735.377-1.017,1.454-.451,1.723-.115,1.894,2.79,1.422,3.522-.571,4.477-.048,10.154,5.569,1.874,1.854,3.656,3.121,3.96,2.817.839-.839-1.55-7.363-3.2-8.73-1.682-1.4-1.906-2.958-.424-2.958.564,0,1.417,1.013,1.9,2.25a19.779,19.779,0,0,0,4.552,5.483c4.054,3.559,4.38,6.572.768,7.087-1.232.176-2.24-.162-2.24-.75,0-1.763-1.822-1.207-2.441.744-.947,2.983-6.878,8.82-9.559,9.408a14.146,14.146,0,0,1-5.687-.349Z" fill="#0e0e0c"/>
      <path id="Path_582-8" data-name="Path 582" d="M323.46,515.93c-.993-1.2-.993-1.8,0-3,1.632-1.966,3.629-1.909,4.41.127.612,1.595-.919,4.373-2.41,4.373A4.092,4.092,0,0,1,323.46,515.93Z" transform="translate(-5.461 -25.566)" fill="#0e0e0c"/>
      <path id="Path_583-8" data-name="Path 583" d="M362.96,506.43a2.144,2.144,0,0,1,1.559-1,.975.975,0,0,1,.941,1c0,.55-.7,1-1.559,1S362.62,506.98,362.96,506.43Z" fill="#0e0e0c"/>
      <path id="Path_584-8" data-name="Path 584" d="M348.96,491.43c-.34-.55-.141-1,.441-1a1.034,1.034,0,0,1,1.059,1c0,.55-.2,1-.441,1S349.3,491.98,348.96,491.43Z" fill="#0e0e0c"/>
      <path id="Path_585-8" data-name="Path 585" d="M311.46,462.43a1,1,0,1,1,1,1A1,1,0,0,1,311.46,462.43Z" fill="#0e0e0c"/>
      <path id="Path_586-8" data-name="Path 586" d="M329.71,458.77c-1.715-.692-1.569-2.828.3-4.379,1.278-1.06,1.829-1.008,3.137.3,2.788,2.788.4,5.626-3.437,4.079Z" fill="#0e0e0c"/>
      <path id="Path_587-8" data-name="Path 587" d="M314.46,455.43a.975.975,0,0,1,.941-1,2.144,2.144,0,0,1,1.559,1c.34.55-.084,1-.941,1S314.46,455.98,314.46,455.43Z" fill="#0e0e0c"/>
      <path id="Path_588-8" data-name="Path 588" d="M292.63,452.7c-2.531-2.842-2.19-5.737,1-8.5,1.816-1.572,2.268-1.592,4.913-.224,2.145,1.109,2.909,2.225,2.9,4.231-.019,3.357-.77,4.452-4.033,5.881C295.193,455.06,294.571,454.879,292.63,452.7Z" transform="translate(43.764 47.118)" fill="#0e0e0c"/>
      <path id="Path_589-8" data-name="Path 589" d="M311.43,452.9c-1.737-2.092-.288-3.211,1.649-1.274.935.935,1.174,1.818.59,2.18-.54.334-1.548-.074-2.238-.906Z" fill="#0e0e0c"/>
      <path id="Path_590-8" data-name="Path 590" d="M276.03,446.86a5.315,5.315,0,0,1-1.571-2.429c0-.913,2.807-4,3.637-4,1.507,0,4.363,2.268,4.363,3.464,0,1.535-2.647,4.536-4,4.536A5.316,5.316,0,0,1,276.03,446.86Z" transform="translate(23.722 -21.255)" fill="#0e0e0c"/>
      <path id="Path_591-8" data-name="Path 591" d="M324.021,445.726c-.543-1.425-.428-1.54.56-.56.683.678.991,1.485.683,1.793s-.867-.247-1.243-1.233Z" fill="#0e0e0c"/>
      <path id="Path_592-8" data-name="Path 592" d="M339.67,444.28c.52-1.559,2.663-1.813,3.032-.359.138.542-.589,1.148-1.615,1.345-1.215.234-1.709-.11-1.417-.986Z" fill="#0e0e0c"/>
      <path id="Path_593-8" data-name="Path 593" d="M299.04,441.57c-.431-.7-.513-1.537-.183-1.867.895-.895,1.871.421,1.387,1.871-.339,1.016-.574,1.015-1.2,0Z" fill="#0e0e0c"/>
      <path id="Path_594-8" data-name="Path 594" d="M332.57,441.07c-.859-1.034-.8-1.647.251-2.517a2.778,2.778,0,0,1,4.639,1.992c0,2.237-3.185,2.58-4.89.526Z" fill="#0e0e0c"/>
      <path id="Path_595-8" data-name="Path 595" d="M321.54,430.59c-1.166-2.178.332-4.153,3.149-4.153,2.347,0,3.355,2.588,1.758,4.513-1.676,2.02-3.714,1.871-4.907-.36Z" transform="translate(-24.605 -42.787)" fill="#0e0e0c"/>
      <path id="Path_596-8" data-name="Path 596" d="M285.8,429.89a2.384,2.384,0,0,1,.007-2.142c.712-.712,3.648,1.548,3.648,2.808,0,1.509-3.032.957-3.655-.666Z" fill="#0e0e0c"/>
      <path id="Path_599-8" data-name="Path 599" d="M303.8,404.89a2.385,2.385,0,0,1,0-2.133c.324-.324-.52-1.463-1.876-2.53-2.571-2.022-3.254-5.189-1.371-6.353.621-.384-.6-1.436-2.826-2.432-3.653-1.635-5.677-4.472-6.427-9.009-.4-2.391,2.754-7.446,5.582-8.959,1.9-1.02,3.564-1.143,6.24-.465,7.588,1.924,10.425,11.37,4.854,16.162-2.553,2.2-2.69,2.586-1.2,3.42,2.026,1.134,2.211,5.268.315,7.04-1.153,1.077-1.127,1.452.162,2.395a2.445,2.445,0,0,1-1.3,4.407,2.527,2.527,0,0,1-2.155-1.543Z" transform="translate(20.905 58.663)" fill="#0e0e0c"/>
      <path id="Path_601-8" data-name="Path 601" d="M295.67,363.25c-1.876-1.876-1.44-2.984,1.038-2.632,1.237.176,2.25.957,2.25,1.736,0,1.9-1.791,2.392-3.288.9Z" fill="#0e0e0c"/>
      <path id="Path_603-8" data-name="Path 603" d="M260.456,361.433c0-.55.675-1,1.5-1s1.5.45,1.5,1-.675,1-1.5,1S260.456,361.983,260.456,361.433Z" fill="#0e0e0c"/>
      <path id="Path_607-8" data-name="Path 607" d="M252.18,357.66a7.074,7.074,0,0,1-3.378-5.473c-.355-2.221-1.16-3.751-1.972-3.751-.755,0-1.372-.45-1.372-1,0-.926,1.706-1.382,4.75-1.269,1.485.055,1.686-3.344.25-4.231a2.19,2.19,0,0,1-1-1.618c0-.55.546-.663,1.213-.25a15.069,15.069,0,0,0,4.75,1.074c4.744.434,7.586,2.011,8.926,4.952,1.858,4.077,1.295,7.313-1.813,10.42-3.314,3.314-6.322,3.648-10.355,1.148Z" transform="translate(52.185 77.557)" fill="#0e0e0c"/>
      <path id="Path_609-8" data-name="Path 609" d="M239.46,355.93c0-.917.563-1.479,1.25-1.25,1.416.472,1.26,2.08-.25,2.583C239.91,357.447,239.46,356.847,239.46,355.93Z" fill="#0e0e0c"/>
      <path id="Path_610-8" data-name="Path 610" d="M283.85,353.91c-1.55-2.365-1.541-2.651.132-4.5,3.14-3.469,7.477-1.909,7.477,2.69,0,2.112-2.519,4.335-4.911,4.335-.573,0-1.787-1.137-2.7-2.526Z" transform="translate(-13.793 -8.098)" fill="#0e0e0c"/>
      <path id="Path_612-8" data-name="Path 612" d="M239.81,344.92c-.663-1.727,1.271-4.487,3.143-4.487a4.329,4.329,0,0,1,2.59,1.608c1.134,1.366,1.048,1.818-.569,3-2.479,1.813-4.44,1.767-5.164-.121Z" fill="#0e0e0c"/>
      <path id="Path_613-8" data-name="Path 613" d="M247.186,339.829a3.707,3.707,0,0,1-.729-2.263c0-1.126.3-1.237,1.113-.421a2.523,2.523,0,0,1,.729,2.263C248.088,340.041,247.587,340.23,247.186,339.829Z" fill="#0e0e0c"/>
      <path id="Path_616-8" data-name="Path 616" d="M237.967,317.449c-.345-.559.073-1.016.931-1.016,1.757,0,2.015.6.628,1.457a1.151,1.151,0,0,1-1.559-.441Z" fill="#0e0e0c"/>
    </g>
    <g id="ink-24501-9" data-name="ink-24501" transform="translate(1025.585 1293.609) rotate(-61)">
      <path id="Path_580-9" data-name="Path 580" d="M358.14,521.63c-3.392-3.54-3.478-7.5-.233-10.741,3.861-3.861,8.636-2.926,11.382,2.23,1.7,3.186,1.433,5.7-.909,8.681-2.785,3.54-6.749,3.474-10.24-.17Z" fill="#0e0e0c"/>
      <path id="Path_581-9" data-name="Path 581" d="M338.77,517.31a10.274,10.274,0,0,1-7.313-9.393,5.069,5.069,0,0,0-2.5-4.888c-1.375-.9-2.5-2.333-2.5-3.182,0-2.14,4.934-8.41,6.619-8.41,2.58,0,1.4-1.747-1.587-2.344a11.775,11.775,0,0,1-5.107-2.732c-1.887-1.887-2.312-1.964-3.616-.66s-2.009,1.277-5.985-.233c-2.479-.941-4.886-2.324-5.349-3.074-2-3.237,1.792-11.114,5.993-12.447,1.276-.4,1.6-1.6,1.413-5.267-.4-7.966-.936-9.773-5.015-16.884a99.072,99.072,0,0,1-5.784-11.859c-1.017-2.75-5.9-14.675-10.852-26.5s-11.673-28.25-14.936-36.5-7.179-17.7-8.7-21-4.428-10.578-6.456-16.173c-2.238-6.174-4.844-11.411-6.629-13.322-3.434-3.676-5.014-9.752-2.886-11.1,2.112-1.337,3.292-1.1,6.984,1.382,6.19,4.167,7.209,10.527,1.953,12.2-1.854.588-1.781,1.008,1.529,8.818a91.822,91.822,0,0,1,3.742,9.852,8.237,8.237,0,0,0,1.259,3c1.126,1.53,3.5,6.822,12.95,28.848,8.475,19.756,24.011,53,27.807,59.5a61.7,61.7,0,0,1,4.14,8.5c.671,1.925,1.7,3.5,2.286,3.5,1.765,0,2.758,1.557,1.492,2.34-.862.533-.5,2.205,1.335,6.165,1.523,3.287,2.8,4.972,3.24,4.265.461-.747,1.8.431,3.694,3.259,2.838,4.228,5.642,5.624,6.972,3.472.973-1.574,5.222-1.167,5.886.563.33.86.973,1.333,1.429,1.051,1.219-.753,4.362,3.29,3.563,4.584-.468.758-1.027.638-1.78-.383-1.061-1.439-4.839-3.815-6.066-3.815-.33,0,.937,1.35,2.816,3s3.968,3,4.642,3,.978.643.677,1.429c-1.447,3.77-1.752,8.54-.676,10.551,1.573,2.94.5,3.768-1.983,1.525-1.967-1.78-2.006-1.755-2.006,1.3,0,2.882-2.861,6-4.241,4.615-.277-.277-.735.377-1.017,1.454-.451,1.723-.115,1.894,2.79,1.422,3.522-.571,4.477-.048,10.154,5.569,1.874,1.854,3.656,3.121,3.96,2.817.839-.839-1.55-7.363-3.2-8.73-1.682-1.4-1.906-2.958-.424-2.958.564,0,1.417,1.013,1.9,2.25a19.779,19.779,0,0,0,4.552,5.483c4.054,3.559,4.38,6.572.768,7.087-1.232.176-2.24-.162-2.24-.75,0-1.763-1.822-1.207-2.441.744-.947,2.983-6.878,8.82-9.559,9.408a14.146,14.146,0,0,1-5.687-.349Z" fill="#0e0e0c"/>
      <path id="Path_582-9" data-name="Path 582" d="M323.46,515.93c-.993-1.2-.993-1.8,0-3,1.632-1.966,3.629-1.909,4.41.127.612,1.595-.919,4.373-2.41,4.373A4.092,4.092,0,0,1,323.46,515.93Z" transform="translate(-5.461 -25.566)" fill="#0e0e0c"/>
      <path id="Path_583-9" data-name="Path 583" d="M362.96,506.43a2.144,2.144,0,0,1,1.559-1,.975.975,0,0,1,.941,1c0,.55-.7,1-1.559,1S362.62,506.98,362.96,506.43Z" fill="#0e0e0c"/>
      <path id="Path_584-9" data-name="Path 584" d="M348.96,491.43c-.34-.55-.141-1,.441-1a1.034,1.034,0,0,1,1.059,1c0,.55-.2,1-.441,1S349.3,491.98,348.96,491.43Z" fill="#0e0e0c"/>
      <path id="Path_585-9" data-name="Path 585" d="M311.46,462.43a1,1,0,1,1,1,1A1,1,0,0,1,311.46,462.43Z" fill="#0e0e0c"/>
      <path id="Path_586-9" data-name="Path 586" d="M329.71,458.77c-1.715-.692-1.569-2.828.3-4.379,1.278-1.06,1.829-1.008,3.137.3,2.788,2.788.4,5.626-3.437,4.079Z" fill="#0e0e0c"/>
      <path id="Path_587-9" data-name="Path 587" d="M314.46,455.43a.975.975,0,0,1,.941-1,2.144,2.144,0,0,1,1.559,1c.34.55-.084,1-.941,1S314.46,455.98,314.46,455.43Z" fill="#0e0e0c"/>
      <path id="Path_588-9" data-name="Path 588" d="M292.63,452.7c-2.531-2.842-2.19-5.737,1-8.5,1.816-1.572,2.268-1.592,4.913-.224,2.145,1.109,2.909,2.225,2.9,4.231-.019,3.357-.77,4.452-4.033,5.881C295.193,455.06,294.571,454.879,292.63,452.7Z" transform="translate(43.764 47.118)" fill="#0e0e0c"/>
      <path id="Path_589-9" data-name="Path 589" d="M311.43,452.9c-1.737-2.092-.288-3.211,1.649-1.274.935.935,1.174,1.818.59,2.18-.54.334-1.548-.074-2.238-.906Z" fill="#0e0e0c"/>
      <path id="Path_590-9" data-name="Path 590" d="M276.03,446.86a5.315,5.315,0,0,1-1.571-2.429c0-.913,2.807-4,3.637-4,1.507,0,4.363,2.268,4.363,3.464,0,1.535-2.647,4.536-4,4.536A5.316,5.316,0,0,1,276.03,446.86Z" transform="translate(23.722 -21.255)" fill="#0e0e0c"/>
      <path id="Path_591-9" data-name="Path 591" d="M324.021,445.726c-.543-1.425-.428-1.54.56-.56.683.678.991,1.485.683,1.793s-.867-.247-1.243-1.233Z" fill="#0e0e0c"/>
      <path id="Path_592-9" data-name="Path 592" d="M339.67,444.28c.52-1.559,2.663-1.813,3.032-.359.138.542-.589,1.148-1.615,1.345-1.215.234-1.709-.11-1.417-.986Z" fill="#0e0e0c"/>
      <path id="Path_593-9" data-name="Path 593" d="M299.04,441.57c-.431-.7-.513-1.537-.183-1.867.895-.895,1.871.421,1.387,1.871-.339,1.016-.574,1.015-1.2,0Z" fill="#0e0e0c"/>
      <path id="Path_594-9" data-name="Path 594" d="M332.57,441.07c-.859-1.034-.8-1.647.251-2.517a2.778,2.778,0,0,1,4.639,1.992c0,2.237-3.185,2.58-4.89.526Z" fill="#0e0e0c"/>
      <path id="Path_595-9" data-name="Path 595" d="M321.54,430.59c-1.166-2.178.332-4.153,3.149-4.153,2.347,0,3.355,2.588,1.758,4.513-1.676,2.02-3.714,1.871-4.907-.36Z" transform="translate(-24.605 -42.787)" fill="#0e0e0c"/>
      <path id="Path_596-9" data-name="Path 596" d="M285.8,429.89a2.384,2.384,0,0,1,.007-2.142c.712-.712,3.648,1.548,3.648,2.808,0,1.509-3.032.957-3.655-.666Z" fill="#0e0e0c"/>
      <path id="Path_599-9" data-name="Path 599" d="M303.8,404.89a2.385,2.385,0,0,1,0-2.133c.324-.324-.52-1.463-1.876-2.53-2.571-2.022-3.254-5.189-1.371-6.353.621-.384-.6-1.436-2.826-2.432-3.653-1.635-5.677-4.472-6.427-9.009-.4-2.391,2.754-7.446,5.582-8.959,1.9-1.02,3.564-1.143,6.24-.465,7.588,1.924,10.425,11.37,4.854,16.162-2.553,2.2-2.69,2.586-1.2,3.42,2.026,1.134,2.211,5.268.315,7.04-1.153,1.077-1.127,1.452.162,2.395a2.445,2.445,0,0,1-1.3,4.407,2.527,2.527,0,0,1-2.155-1.543Z" transform="translate(20.905 58.663)" fill="#0e0e0c"/>
      <path id="Path_601-9" data-name="Path 601" d="M295.67,363.25c-1.876-1.876-1.44-2.984,1.038-2.632,1.237.176,2.25.957,2.25,1.736,0,1.9-1.791,2.392-3.288.9Z" fill="#0e0e0c"/>
      <path id="Path_603-9" data-name="Path 603" d="M260.456,361.433c0-.55.675-1,1.5-1s1.5.45,1.5,1-.675,1-1.5,1S260.456,361.983,260.456,361.433Z" fill="#0e0e0c"/>
      <path id="Path_607-9" data-name="Path 607" d="M258.354,369.225c-1.958-1.214-9.129-14.394-9.552-17.038-.355-2.221-1.16-3.751-1.972-3.751-.755,0-1.372-.45-1.372-1,0-.926,1.706-1.382,4.75-1.269,1.485.055,1.686-3.344.25-4.231a2.19,2.19,0,0,1-1-1.618c0-.55.546-.663,1.213-.25a15.069,15.069,0,0,0,4.75,1.074c4.744.434,29.657,62.913,31,65.854.043.094-6.986-2.209-6.929-1.827.919,2.988-12.793-19.507-15.829-16.471-3.314,3.314-1.273-16.972-5.306-19.472Z" transform="translate(40.773 28.345)" fill="#0e0e0c"/>
      <path id="Path_609-9" data-name="Path 609" d="M239.46,355.93c0-.917.563-1.479,1.25-1.25,1.416.472,1.26,2.08-.25,2.583C239.91,357.447,239.46,356.847,239.46,355.93Z" fill="#0e0e0c"/>
      <path id="Path_610-9" data-name="Path 610" d="M283.85,353.91c-1.55-2.365-1.541-2.651.132-4.5,3.14-3.469,7.477-1.909,7.477,2.69,0,2.112-2.519,4.335-4.911,4.335-.573,0-1.787-1.137-2.7-2.526Z" transform="translate(-13.793 -8.098)" fill="#0e0e0c"/>
      <path id="Path_612-9" data-name="Path 612" d="M239.81,344.92c-.663-1.727,1.271-4.487,3.143-4.487a4.329,4.329,0,0,1,2.59,1.608c1.134,1.366,1.048,1.818-.569,3-2.479,1.813-4.44,1.767-5.164-.121Z" fill="#0e0e0c"/>
      <path id="Path_613-9" data-name="Path 613" d="M247.186,339.829a3.707,3.707,0,0,1-.729-2.263c0-1.126.3-1.237,1.113-.421a2.523,2.523,0,0,1,.729,2.263C248.088,340.041,247.587,340.23,247.186,339.829Z" fill="#0e0e0c"/>
      <path id="Path_616-9" data-name="Path 616" d="M237.967,317.449c-.345-.559.073-1.016.931-1.016,1.757,0,2.015.6.628,1.457a1.151,1.151,0,0,1-1.559-.441Z" fill="#0e0e0c"/>
    </g>
    <g id="ink-24501-10" data-name="ink-24501" transform="matrix(0.342, -0.94, 0.94, 0.342, 1221.843, 1377.01)">
      <path id="Path_580-10" data-name="Path 580" d="M358.14,521.63c-3.392-3.54-3.478-7.5-.233-10.741,3.861-3.861,8.636-2.926,11.382,2.23,1.7,3.186,1.433,5.7-.909,8.681-2.785,3.54-6.749,3.474-10.24-.17Z" fill="#0e0e0c"/>
      <path id="Path_581-10" data-name="Path 581" d="M338.77,517.31a10.274,10.274,0,0,1-7.313-9.393,5.069,5.069,0,0,0-2.5-4.888c-1.375-.9-2.5-2.333-2.5-3.182,0-2.14,4.934-8.41,6.619-8.41,2.58,0,1.4-1.747-1.587-2.344a11.775,11.775,0,0,1-5.107-2.732c-1.887-1.887-2.312-1.964-3.616-.66s-2.009,1.277-5.985-.233c-2.479-.941-4.886-2.324-5.349-3.074-2-3.237,1.792-11.114,5.993-12.447,1.276-.4,1.6-1.6,1.413-5.267-.4-7.966-.936-9.773-5.015-16.884a99.072,99.072,0,0,1-5.784-11.859c-1.017-2.75-5.9-14.675-10.852-26.5s-11.673-28.25-14.936-36.5-7.179-17.7-8.7-21-4.428-10.578-6.456-16.173c-2.238-6.174-4.844-11.411-6.629-13.322-3.434-3.676-5.014-9.752-2.886-11.1,2.112-1.337,3.292-1.1,6.984,1.382,6.19,4.167,7.209,10.527,1.953,12.2-1.854.588-1.781,1.008,1.529,8.818a91.822,91.822,0,0,1,3.742,9.852,8.237,8.237,0,0,0,1.259,3c1.126,1.53,3.5,6.822,12.95,28.848,8.475,19.756,24.011,53,27.807,59.5a61.7,61.7,0,0,1,4.14,8.5c.671,1.925,1.7,3.5,2.286,3.5,1.765,0,2.758,1.557,1.492,2.34-.862.533-.5,2.205,1.335,6.165,1.523,3.287,2.8,4.972,3.24,4.265.461-.747,1.8.431,3.694,3.259,2.838,4.228,5.642,5.624,6.972,3.472.973-1.574,5.222-1.167,5.886.563.33.86.973,1.333,1.429,1.051,1.219-.753,4.362,3.29,3.563,4.584-.468.758-1.027.638-1.78-.383-1.061-1.439-4.839-3.815-6.066-3.815-.33,0,.937,1.35,2.816,3s3.968,3,4.642,3,.978.643.677,1.429c-1.447,3.77-1.752,8.54-.676,10.551,1.573,2.94.5,3.768-1.983,1.525-1.967-1.78-2.006-1.755-2.006,1.3,0,2.882-2.861,6-4.241,4.615-.277-.277-.735.377-1.017,1.454-.451,1.723-.115,1.894,2.79,1.422,3.522-.571,4.477-.048,10.154,5.569,1.874,1.854,3.656,3.121,3.96,2.817.839-.839-1.55-7.363-3.2-8.73-1.682-1.4-1.906-2.958-.424-2.958.564,0,1.417,1.013,1.9,2.25a19.779,19.779,0,0,0,4.552,5.483c4.054,3.559,4.38,6.572.768,7.087-1.232.176-2.24-.162-2.24-.75,0-1.763-1.822-1.207-2.441.744-.947,2.983-6.878,8.82-9.559,9.408a14.146,14.146,0,0,1-5.687-.349Z" fill="#0e0e0c"/>
      <path id="Path_582-10" data-name="Path 582" d="M323.46,515.93c-.993-1.2-.993-1.8,0-3,1.632-1.966,3.629-1.909,4.41.127.612,1.595-.919,4.373-2.41,4.373A4.092,4.092,0,0,1,323.46,515.93Z" transform="translate(-5.461 -25.566)" fill="#0e0e0c"/>
      <path id="Path_583-10" data-name="Path 583" d="M362.96,506.43a2.144,2.144,0,0,1,1.559-1,.975.975,0,0,1,.941,1c0,.55-.7,1-1.559,1S362.62,506.98,362.96,506.43Z" fill="#0e0e0c"/>
      <path id="Path_584-10" data-name="Path 584" d="M348.96,491.43c-.34-.55-.141-1,.441-1a1.034,1.034,0,0,1,1.059,1c0,.55-.2,1-.441,1S349.3,491.98,348.96,491.43Z" fill="#0e0e0c"/>
      <path id="Path_585-10" data-name="Path 585" d="M311.46,462.43a1,1,0,1,1,1,1A1,1,0,0,1,311.46,462.43Z" fill="#0e0e0c"/>
      <path id="Path_586-10" data-name="Path 586" d="M329.71,458.77c-1.715-.692-1.569-2.828.3-4.379,1.278-1.06,1.829-1.008,3.137.3,2.788,2.788.4,5.626-3.437,4.079Z" fill="#0e0e0c"/>
      <path id="Path_587-10" data-name="Path 587" d="M314.46,455.43a.975.975,0,0,1,.941-1,2.144,2.144,0,0,1,1.559,1c.34.55-.084,1-.941,1S314.46,455.98,314.46,455.43Z" fill="#0e0e0c"/>
      <path id="Path_588-10" data-name="Path 588" d="M292.63,452.7c-2.531-2.842-2.19-5.737,1-8.5,1.816-1.572,2.268-1.592,4.913-.224,2.145,1.109,2.909,2.225,2.9,4.231-.019,3.357-.77,4.452-4.033,5.881C295.193,455.06,294.571,454.879,292.63,452.7Z" transform="translate(43.764 47.118)" fill="#0e0e0c"/>
      <path id="Path_589-10" data-name="Path 589" d="M311.43,452.9c-1.737-2.092-.288-3.211,1.649-1.274.935.935,1.174,1.818.59,2.18-.54.334-1.548-.074-2.238-.906Z" fill="#0e0e0c"/>
      <path id="Path_590-10" data-name="Path 590" d="M276.03,446.86a5.315,5.315,0,0,1-1.571-2.429c0-.913,2.807-4,3.637-4,1.507,0,4.363,2.268,4.363,3.464,0,1.535-2.647,4.536-4,4.536A5.316,5.316,0,0,1,276.03,446.86Z" transform="translate(23.722 -21.255)" fill="#0e0e0c"/>
      <path id="Path_591-10" data-name="Path 591" d="M324.021,445.726c-.543-1.425-.428-1.54.56-.56.683.678.991,1.485.683,1.793s-.867-.247-1.243-1.233Z" fill="#0e0e0c"/>
      <path id="Path_592-10" data-name="Path 592" d="M339.67,444.28c.52-1.559,2.663-1.813,3.032-.359.138.542-.589,1.148-1.615,1.345-1.215.234-1.709-.11-1.417-.986Z" fill="#0e0e0c"/>
      <path id="Path_593-10" data-name="Path 593" d="M299.04,441.57c-.431-.7-.513-1.537-.183-1.867.895-.895,1.871.421,1.387,1.871-.339,1.016-.574,1.015-1.2,0Z" fill="#0e0e0c"/>
      <path id="Path_594-10" data-name="Path 594" d="M332.57,441.07c-.859-1.034-.8-1.647.251-2.517a2.778,2.778,0,0,1,4.639,1.992c0,2.237-3.185,2.58-4.89.526Z" fill="#0e0e0c"/>
      <path id="Path_595-10" data-name="Path 595" d="M321.54,430.59c-1.166-2.178.332-4.153,3.149-4.153,2.347,0,3.355,2.588,1.758,4.513-1.676,2.02-3.714,1.871-4.907-.36Z" transform="translate(-24.605 -42.787)" fill="#0e0e0c"/>
      <path id="Path_596-10" data-name="Path 596" d="M285.8,429.89a2.384,2.384,0,0,1,.007-2.142c.712-.712,3.648,1.548,3.648,2.808,0,1.509-3.032.957-3.655-.666Z" fill="#0e0e0c"/>
      <path id="Path_599-10" data-name="Path 599" d="M303.8,404.89a2.385,2.385,0,0,1,0-2.133c.324-.324-.52-1.463-1.876-2.53-2.571-2.022-3.254-5.189-1.371-6.353.621-.384-.6-1.436-2.826-2.432-3.653-1.635-5.677-4.472-6.427-9.009-.4-2.391,2.754-7.446,5.582-8.959,1.9-1.02,3.564-1.143,6.24-.465,7.588,1.924,10.425,11.37,4.854,16.162-2.553,2.2-2.69,2.586-1.2,3.42,2.026,1.134,2.211,5.268.315,7.04-1.153,1.077-1.127,1.452.162,2.395a2.445,2.445,0,0,1-1.3,4.407,2.527,2.527,0,0,1-2.155-1.543Z" transform="translate(20.905 58.663)" fill="#0e0e0c"/>
      <path id="Path_601-10" data-name="Path 601" d="M295.67,363.25c-1.876-1.876-1.44-2.984,1.038-2.632,1.237.176,2.25.957,2.25,1.736,0,1.9-1.791,2.392-3.288.9Z" fill="#0e0e0c"/>
      <path id="Path_603-10" data-name="Path 603" d="M260.456,361.433c0-.55.675-1,1.5-1s1.5.45,1.5,1-.675,1-1.5,1S260.456,361.983,260.456,361.433Z" fill="#0e0e0c"/>
      <path id="Path_607-10" data-name="Path 607" d="M258.354,369.225c-1.958-1.214-9.129-14.394-9.552-17.038-.355-2.221-1.16-3.751-1.972-3.751-.755,0-15.628-30.256-15.628-30.806,0-.926,15.962,28.424,19.006,28.537,1.485.055,1.686-3.344.25-4.231a2.19,2.19,0,0,1-1-1.618c0-.55.546-.663,1.213-.25a15.069,15.069,0,0,0,4.75,1.074c4.744.434,29.657,62.913,31,65.854.043.094-6.986-2.209-6.929-1.827.919,2.988-12.793-19.507-15.829-16.471-3.314,3.314-1.273-16.972-5.306-19.472Z" transform="translate(40.773 28.345)" fill="#0e0e0c"/>
      <path id="Path_609-10" data-name="Path 609" d="M239.46,355.93c0-.917.563-1.479,1.25-1.25,1.416.472,1.26,2.08-.25,2.583C239.91,357.447,239.46,356.847,239.46,355.93Z" fill="#0e0e0c"/>
      <path id="Path_610-10" data-name="Path 610" d="M283.85,353.91c-1.55-2.365-1.541-2.651.132-4.5,3.14-3.469,7.477-1.909,7.477,2.69,0,2.112-2.519,4.335-4.911,4.335-.573,0-1.787-1.137-2.7-2.526Z" transform="translate(-13.793 -8.098)" fill="#0e0e0c"/>
      <path id="Path_612-10" data-name="Path 612" d="M239.81,344.92c-.663-1.727,1.271-4.487,3.143-4.487a4.329,4.329,0,0,1,2.59,1.608c1.134,1.366,1.048,1.818-.569,3-2.479,1.813-4.44,1.767-5.164-.121Z" fill="#0e0e0c"/>
      <path id="Path_613-10" data-name="Path 613" d="M247.186,339.829a3.707,3.707,0,0,1-.729-2.263c0-1.126.3-1.237,1.113-.421a2.523,2.523,0,0,1,.729,2.263C248.088,340.041,247.587,340.23,247.186,339.829Z" fill="#0e0e0c"/>
      <path id="Path_616-10" data-name="Path 616" d="M237.967,317.449c-.345-.559.073-1.016.931-1.016,1.757,0,2.015.6.628,1.457a1.151,1.151,0,0,1-1.559-.441Z" fill="#0e0e0c"/>
    </g>
  </g>
</svg>
