<svg xmlns="http://www.w3.org/2000/svg" width="545.33" height="190.372" viewBox="0 0 545.33 190.372">
  <defs>
    <style>
      .cls-1 {
        fill: #0f1f33;
      }
    </style>
  </defs>
  <g id="small-decor__bottom" transform="translate(146.245 -1352.198)">
    <g id="ink-24501" transform="translate(-155.23 1711.877) rotate(-87)">
      <path id="Path_69" data-name="Path 69" class="cls-1" d="M358.14,521.63c-3.392-3.54-3.478-7.5-.233-10.741,3.861-3.861,8.636-2.926,11.382,2.23,1.7,3.186,1.433,5.7-.909,8.681-2.785,3.54-6.749,3.474-10.24-.17Z"/>
      <path id="Path_70" data-name="Path 70" class="cls-1" d="M338.77,517.31a10.274,10.274,0,0,1-7.313-9.393,5.069,5.069,0,0,0-2.5-4.888c-1.375-.9-2.5-2.333-2.5-3.182,0-2.14,4.934-8.41,6.619-8.41,2.58,0,1.4-1.747-1.587-2.344a11.775,11.775,0,0,1-5.107-2.732c-1.887-1.887-2.312-1.964-3.616-.66s-2.009,1.277-5.985-.233c-2.479-.941-4.886-2.324-5.349-3.074-2-3.237,1.792-11.114,5.993-12.447,1.276-.4,1.6-1.6,1.413-5.267-.4-7.966-.936-9.773-5.015-16.884a99.072,99.072,0,0,1-5.784-11.859c-1.017-2.75-5.9-14.675-10.852-26.5s-11.673-28.25-14.936-36.5-7.179-17.7-8.7-21-4.428-10.578-6.456-16.173c-2.238-6.174-4.844-11.411-6.629-13.322-3.434-3.676-5.014-9.752-2.886-11.1,2.112-1.337,3.292-1.1,6.984,1.382,6.19,4.167,7.209,10.527,1.953,12.2-1.854.588-1.781,1.008,1.529,8.818a91.822,91.822,0,0,1,3.742,9.852,8.237,8.237,0,0,0,1.259,3c1.126,1.53,3.5,6.822,12.95,28.848,8.475,19.756,24.011,53,27.807,59.5a61.7,61.7,0,0,1,4.14,8.5c.671,1.925,1.7,3.5,2.286,3.5,1.765,0,2.758,1.557,1.492,2.34-.862.533-.5,2.205,1.335,6.165,1.523,3.287,2.8,4.972,3.24,4.265.461-.747,1.8.431,3.694,3.259,2.838,4.228,5.642,5.624,6.972,3.472.973-1.574,5.222-1.167,5.886.563.33.86.973,1.333,1.429,1.051,1.219-.753,4.362,3.29,3.563,4.584-.468.758-1.027.638-1.78-.383-1.061-1.439-4.839-3.815-6.066-3.815-.33,0,.937,1.35,2.816,3s3.968,3,4.642,3,.978.643.677,1.429c-1.447,3.77-1.752,8.54-.676,10.551,1.573,2.94.5,3.768-1.983,1.525-1.967-1.78-2.006-1.755-2.006,1.3,0,2.882-2.861,6-4.241,4.615-.277-.277-.735.377-1.017,1.454-.451,1.723-.115,1.894,2.79,1.422,3.522-.571,4.477-.048,10.154,5.569,1.874,1.854,3.656,3.121,3.96,2.817.839-.839-1.55-7.363-3.2-8.73-1.682-1.4-1.906-2.958-.424-2.958.564,0,1.417,1.013,1.9,2.25a19.779,19.779,0,0,0,4.552,5.483c4.054,3.559,4.38,6.572.768,7.087-1.232.176-2.24-.162-2.24-.75,0-1.763-1.822-1.207-2.441.744-.947,2.983-6.878,8.82-9.559,9.408a14.146,14.146,0,0,1-5.687-.349Z"/>
      <path id="Path_71" data-name="Path 71" class="cls-1" d="M323.46,515.93c-.993-1.2-.993-1.8,0-3,1.632-1.966,3.629-1.909,4.41.127.612,1.595-.919,4.373-2.41,4.373A4.092,4.092,0,0,1,323.46,515.93Z"/>
      <path id="Path_72" data-name="Path 72" class="cls-1" d="M362.96,506.43a2.144,2.144,0,0,1,1.559-1,.975.975,0,0,1,.941,1c0,.55-.7,1-1.559,1S362.62,506.98,362.96,506.43Z"/>
      <path id="Path_73" data-name="Path 73" class="cls-1" d="M348.96,491.43c-.34-.55-.141-1,.441-1a1.034,1.034,0,0,1,1.059,1c0,.55-.2,1-.441,1S349.3,491.98,348.96,491.43Z"/>
      <path id="Path_74" data-name="Path 74" class="cls-1" d="M311.46,462.43a1,1,0,1,1,1,1A1,1,0,0,1,311.46,462.43Z"/>
      <path id="Path_75" data-name="Path 75" class="cls-1" d="M329.71,458.77c-1.715-.692-1.569-2.828.3-4.379,1.278-1.06,1.829-1.008,3.137.3,2.788,2.788.4,5.626-3.437,4.079Z"/>
      <path id="Path_76" data-name="Path 76" class="cls-1" d="M314.46,455.43a.975.975,0,0,1,.941-1,2.144,2.144,0,0,1,1.559,1c.34.55-.084,1-.941,1S314.46,455.98,314.46,455.43Z"/>
      <path id="Path_77" data-name="Path 77" class="cls-1" d="M292.63,452.7c-2.531-2.842-2.19-5.737,1-8.5,1.816-1.572,2.268-1.592,4.913-.224,2.145,1.109,2.909,2.225,2.9,4.231-.019,3.357-.77,4.452-4.033,5.881C295.193,455.06,294.571,454.879,292.63,452.7Z"/>
      <path id="Path_78" data-name="Path 78" class="cls-1" d="M311.43,452.9c-1.737-2.092-.288-3.211,1.649-1.274.935.935,1.174,1.818.59,2.18-.54.334-1.548-.074-2.238-.906Z"/>
      <path id="Path_79" data-name="Path 79" class="cls-1" d="M276.03,446.86a5.315,5.315,0,0,1-1.571-2.429c0-.913,2.807-4,3.637-4,1.507,0,4.363,2.268,4.363,3.464,0,1.535-2.647,4.536-4,4.536A5.316,5.316,0,0,1,276.03,446.86Z"/>
      <path id="Path_80" data-name="Path 80" class="cls-1" d="M324.021,445.726c-.543-1.425-.428-1.54.56-.56.683.678.991,1.485.683,1.793s-.867-.247-1.243-1.233Z"/>
      <path id="Path_81" data-name="Path 81" class="cls-1" d="M339.67,444.28c.52-1.559,2.663-1.813,3.032-.359.138.542-.589,1.148-1.615,1.345-1.215.234-1.709-.11-1.417-.986Z"/>
      <path id="Path_82" data-name="Path 82" class="cls-1" d="M299.04,441.57c-.431-.7-.513-1.537-.183-1.867.895-.895,1.871.421,1.387,1.871-.339,1.016-.574,1.015-1.2,0Z"/>
      <path id="Path_83" data-name="Path 83" class="cls-1" d="M332.57,441.07c-.859-1.034-.8-1.647.251-2.517a2.778,2.778,0,0,1,4.639,1.992c0,2.237-3.185,2.58-4.89.526Z"/>
      <path id="Path_84" data-name="Path 84" class="cls-1" d="M321.54,430.59c-1.166-2.178.332-4.153,3.149-4.153,2.347,0,3.355,2.588,1.758,4.513-1.676,2.02-3.714,1.871-4.907-.36Z"/>
      <path id="Path_85" data-name="Path 85" class="cls-1" d="M285.8,429.89a2.384,2.384,0,0,1,.007-2.142c.712-.712,3.648,1.548,3.648,2.808,0,1.509-3.032.957-3.655-.666Z"/>
      <path id="Path_86" data-name="Path 86" class="cls-1" d="M332.96,429.79c-1.822-1.822-1.334-5.869.995-8.249,1.159-1.185,1.671-.886,3.431,2,2.571,4.218,2.6,5.542.141,6.857-2.511,1.344-2.63,1.328-4.567-.609Z"/>
      <path id="Path_87" data-name="Path 87" class="cls-1" d="M352.46,420.51c0-1.431.642-2.073,2.073-2.073,2.563,0,2.272,3.31-.335,3.812C353,422.48,352.46,421.941,352.46,420.51Z"/>
      <path id="Path_88" data-name="Path 88" class="cls-1" d="M303.8,404.89a2.385,2.385,0,0,1,0-2.133c.324-.324-.52-1.463-1.876-2.53-2.571-2.022-3.254-5.189-1.371-6.353.621-.384-.6-1.436-2.826-2.432-3.653-1.635-5.677-4.472-6.427-9.009-.4-2.391,2.754-7.446,5.582-8.959,1.9-1.02,3.564-1.143,6.24-.465,7.588,1.924,10.425,11.37,4.854,16.162-2.553,2.2-2.69,2.586-1.2,3.42,2.026,1.134,2.211,5.268.315,7.04-1.153,1.077-1.127,1.452.162,2.395a2.445,2.445,0,0,1-1.3,4.407,2.527,2.527,0,0,1-2.155-1.543Z"/>
      <path id="Path_89" data-name="Path 89" class="cls-1" d="M348.71,365.71c-2.108-.756-1.49-4.282.75-4.282a1.758,1.758,0,0,1,2,1.941C351.46,365.574,350.532,366.364,348.71,365.71Z"/>
      <path id="Path_90" data-name="Path 90" class="cls-1" d="M295.67,363.25c-1.876-1.876-1.44-2.984,1.038-2.632,1.237.176,2.25.957,2.25,1.736,0,1.9-1.791,2.392-3.288.9Z"/>
      <path id="Path_91" data-name="Path 91" class="cls-1" d="M339.05,362.81a2.12,2.12,0,0,1,.624-2.533c1.877-1.19,3.284-.451,3.284,1.723a2.007,2.007,0,0,1-3.908.809Z"/>
      <path id="Path_92" data-name="Path 92" class="cls-1" d="M260.456,361.433c0-.55.675-1,1.5-1s1.5.45,1.5,1-.675,1-1.5,1S260.456,361.983,260.456,361.433Z"/>
      <path id="Path_93" data-name="Path 93" class="cls-1" d="M311.87,361.06c-.836-2.177-.251-2.762,1.611-1.611,1.144.707,1.2,1.168.254,2.113s-1.352.836-1.865-.5Z"/>
      <path id="Path_94" data-name="Path 94" class="cls-1" d="M329.46,359.85c0-1.766,2.153-1.458,2.771.4.218.653-.317,1.188-1.187,1.188a1.588,1.588,0,0,1-1.583-1.583Z"/>
      <path id="Path_95" data-name="Path 95" class="cls-1" d="M333.46,360.43c0-.55.2-1,.441-1s.719.45,1.059,1,.141,1-.441,1A1.034,1.034,0,0,1,333.46,360.43Z"/>
      <path id="Path_96" data-name="Path 96" class="cls-1" d="M252.18,357.66a7.074,7.074,0,0,1-3.378-5.473c-.355-2.221-1.16-3.751-1.972-3.751-.755,0-1.372-.45-1.372-1,0-.926,1.706-1.382,4.75-1.269,1.485.055,1.686-3.344.25-4.231a2.19,2.19,0,0,1-1-1.618c0-.55.546-.663,1.213-.25a15.069,15.069,0,0,0,4.75,1.074c4.744.434,7.586,2.011,8.926,4.952,1.858,4.077,1.295,7.313-1.813,10.42-3.314,3.314-6.322,3.648-10.355,1.148Z"/>
      <path id="Path_97" data-name="Path 97" class="cls-1" d="M321.456,356.933a1.5,1.5,0,1,1,1.5,1.5A1.5,1.5,0,0,1,321.456,356.933Z"/>
      <path id="Path_98" data-name="Path 98" class="cls-1" d="M239.46,355.93c0-.917.563-1.479,1.25-1.25,1.416.472,1.26,2.08-.25,2.583C239.91,357.447,239.46,356.847,239.46,355.93Z"/>
      <path id="Path_99" data-name="Path 99" class="cls-1" d="M283.85,353.91c-1.55-2.365-1.541-2.651.132-4.5,3.14-3.469,7.477-1.909,7.477,2.69,0,2.112-2.519,4.335-4.911,4.335-.573,0-1.787-1.137-2.7-2.526Z"/>
      <path id="Path_100" data-name="Path 100" class="cls-1" d="M311.98,354.81c-2.3-2.3-1.489-4.823,1.67-5.189,1.855-.215,3,.3,3.738,1.678C319.666,355.556,315.458,358.288,311.98,354.81Z"/>
      <path id="Path_101" data-name="Path 101" class="cls-1" d="M239.81,344.92c-.663-1.727,1.271-4.487,3.143-4.487a4.329,4.329,0,0,1,2.59,1.608c1.134,1.366,1.048,1.818-.569,3-2.479,1.813-4.44,1.767-5.164-.121Z"/>
      <path id="Path_102" data-name="Path 102" class="cls-1" d="M247.186,339.829a3.707,3.707,0,0,1-.729-2.263c0-1.126.3-1.237,1.113-.421a2.523,2.523,0,0,1,.729,2.263C248.088,340.041,247.587,340.23,247.186,339.829Z"/>
      <path id="Path_103" data-name="Path 103" class="cls-1" d="M292.02,322.49c.216-3.03-.278-4.543-2.14-6.552-3.094-3.338-3.07-6.584.076-10.323,5.4-6.417,11.957-4.273,11.957,3.909,0,3.425-.543,4.528-3.356,6.824-1.846,1.507-3.465,3.828-3.6,5.16l-.372,3.671a1.487,1.487,0,0,1-1.487,1.25c-.964,0-1.278-1.147-1.079-3.939Z"/>
      <path id="Path_104" data-name="Path 104" class="cls-1" d="M314.46,322.43c-2.491-2.491-2.554-5.189-.171-7.345,4.519-4.089,11.821.35,9.093,5.528-2.292,4.351-5.694,5.044-8.921,1.817Z"/>
      <path id="Path_105" data-name="Path 105" class="cls-1" d="M237.967,317.449c-.345-.559.073-1.016.931-1.016,1.757,0,2.015.6.628,1.457a1.151,1.151,0,0,1-1.559-.441Z"/>
      <path id="Path_106" data-name="Path 106" class="cls-1" d="M247.03,287.58a13.157,13.157,0,0,1-1.529-4.343c.024-.715.957.43,2.072,2.545s1.8,4.069,1.529,4.343S247.9,289.254,247.03,287.58Z"/>
      <path id="Path_107" data-name="Path 107" class="cls-1" d="M242.63,278.92c-.687-1.509-1.044-2.948-.793-3.2.679-.679,2.8,3.655,2.4,4.884-.194.582-.915-.176-1.6-1.685Z"/>
      <path id="Path_108" data-name="Path 108" class="cls-1" d="M314.46,274.49a1.034,1.034,0,0,1,1-1.059c.55,0,1,.2,1,.441s-.45.719-1,1.059S314.46,275.072,314.46,274.49Z"/>
      <path id="Path_109" data-name="Path 109" class="cls-1" d="M236.14,264.89c-.907-1.9-1.217-3.457-.69-3.457,1.333,0,4.191,5.77,3.171,6.4-.457.283-1.573-1.042-2.48-2.943Z"/>
      <path id="Path_110" data-name="Path 110" class="cls-1" d="M329.15,261.79c-.8-.8.1-2.361,1.365-2.361.518,0,.941.675.941,1.5,0,1.546-1.18,1.987-2.306.861Z"/>
      <path id="Path_111" data-name="Path 111" class="cls-1" d="M333.15,260.79c-.933-.933.195-2.361,1.865-2.361a1.476,1.476,0,0,1,1.441,1.5c0,1.506-2.111,2.056-3.306.861Z"/>
    </g>
    <g id="ink-24501-2" data-name="ink-24501" transform="matrix(-0.07, 0.998, -0.998, -0.07, 546.45, 1138.245)">
      <path id="Path_69-2" data-name="Path 69" class="cls-1" d="M358.14,521.63c-3.392-3.54-3.478-7.5-.233-10.741,3.861-3.861,8.636-2.926,11.382,2.23,1.7,3.186,1.433,5.7-.909,8.681-2.785,3.54-6.749,3.474-10.24-.17Z"/>
      <path id="Path_70-2" data-name="Path 70" class="cls-1" d="M338.77,517.31a10.274,10.274,0,0,1-7.313-9.393,5.069,5.069,0,0,0-2.5-4.888c-1.375-.9-2.5-2.333-2.5-3.182,0-2.14,4.934-8.41,6.619-8.41,2.58,0,1.4-1.747-1.587-2.344a11.775,11.775,0,0,1-5.107-2.732c-1.887-1.887-2.312-1.964-3.616-.66s-2.009,1.277-5.985-.233c-2.479-.941-4.886-2.324-5.349-3.074-2-3.237,1.792-11.114,5.993-12.447,1.276-.4,1.6-1.6,1.413-5.267-.4-7.966-.936-9.773-5.015-16.884a99.072,99.072,0,0,1-5.784-11.859c-1.017-2.75-5.9-14.675-10.852-26.5s-11.673-28.25-14.936-36.5-7.179-17.7-8.7-21-4.428-10.578-6.456-16.173c-2.238-6.174-4.844-11.411-6.629-13.322-3.434-3.676-5.014-9.752-2.886-11.1,2.112-1.337,3.292-1.1,6.984,1.382,6.19,4.167,7.209,10.527,1.953,12.2-1.854.588-1.781,1.008,1.529,8.818a91.822,91.822,0,0,1,3.742,9.852,8.237,8.237,0,0,0,1.259,3c1.126,1.53,3.5,6.822,12.95,28.848,8.475,19.756,24.011,53,27.807,59.5a61.7,61.7,0,0,1,4.14,8.5c.671,1.925,1.7,3.5,2.286,3.5,1.765,0,2.758,1.557,1.492,2.34-.862.533-.5,2.205,1.335,6.165,1.523,3.287,2.8,4.972,3.24,4.265.461-.747,1.8.431,3.694,3.259,2.838,4.228,5.642,5.624,6.972,3.472.973-1.574,5.222-1.167,5.886.563.33.86.973,1.333,1.429,1.051,1.219-.753,4.362,3.29,3.563,4.584-.468.758-1.027.638-1.78-.383-1.061-1.439-4.839-3.815-6.066-3.815-.33,0,.937,1.35,2.816,3s3.968,3,4.642,3,.978.643.677,1.429c-1.447,3.77-1.752,8.54-.676,10.551,1.573,2.94.5,3.768-1.983,1.525-1.967-1.78-2.006-1.755-2.006,1.3,0,2.882-2.861,6-4.241,4.615-.277-.277-.735.377-1.017,1.454-.451,1.723-.115,1.894,2.79,1.422,3.522-.571,4.477-.048,10.154,5.569,1.874,1.854,3.656,3.121,3.96,2.817.839-.839-1.55-7.363-3.2-8.73-1.682-1.4-1.906-2.958-.424-2.958.564,0,1.417,1.013,1.9,2.25a19.779,19.779,0,0,0,4.552,5.483c4.054,3.559,4.38,6.572.768,7.087-1.232.176-2.24-.162-2.24-.75,0-1.763-1.822-1.207-2.441.744-.947,2.983-6.878,8.82-9.559,9.408a14.146,14.146,0,0,1-5.687-.349Z"/>
      <path id="Path_71-2" data-name="Path 71" class="cls-1" d="M323.46,515.93c-.993-1.2-.993-1.8,0-3,1.632-1.966,3.629-1.909,4.41.127.612,1.595-.919,4.373-2.41,4.373A4.092,4.092,0,0,1,323.46,515.93Z"/>
      <path id="Path_72-2" data-name="Path 72" class="cls-1" d="M362.96,506.43a2.144,2.144,0,0,1,1.559-1,.975.975,0,0,1,.941,1c0,.55-.7,1-1.559,1S362.62,506.98,362.96,506.43Z"/>
      <path id="Path_73-2" data-name="Path 73" class="cls-1" d="M348.96,491.43c-.34-.55-.141-1,.441-1a1.034,1.034,0,0,1,1.059,1c0,.55-.2,1-.441,1S349.3,491.98,348.96,491.43Z"/>
      <path id="Path_74-2" data-name="Path 74" class="cls-1" d="M311.46,462.43a1,1,0,1,1,1,1A1,1,0,0,1,311.46,462.43Z"/>
      <path id="Path_75-2" data-name="Path 75" class="cls-1" d="M329.71,458.77c-1.715-.692-1.569-2.828.3-4.379,1.278-1.06,1.829-1.008,3.137.3,2.788,2.788.4,5.626-3.437,4.079Z"/>
      <path id="Path_76-2" data-name="Path 76" class="cls-1" d="M314.46,455.43a.975.975,0,0,1,.941-1,2.144,2.144,0,0,1,1.559,1c.34.55-.084,1-.941,1S314.46,455.98,314.46,455.43Z"/>
      <path id="Path_77-2" data-name="Path 77" class="cls-1" d="M292.63,452.7c-2.531-2.842-2.19-5.737,1-8.5,1.816-1.572,2.268-1.592,4.913-.224,2.145,1.109,2.909,2.225,2.9,4.231-.019,3.357-.77,4.452-4.033,5.881C295.193,455.06,294.571,454.879,292.63,452.7Z"/>
      <path id="Path_78-2" data-name="Path 78" class="cls-1" d="M311.43,452.9c-1.737-2.092-.288-3.211,1.649-1.274.935.935,1.174,1.818.59,2.18-.54.334-1.548-.074-2.238-.906Z"/>
      <path id="Path_79-2" data-name="Path 79" class="cls-1" d="M276.03,446.86a5.315,5.315,0,0,1-1.571-2.429c0-.913,2.807-4,3.637-4,1.507,0,4.363,2.268,4.363,3.464,0,1.535-2.647,4.536-4,4.536A5.316,5.316,0,0,1,276.03,446.86Z"/>
      <path id="Path_80-2" data-name="Path 80" class="cls-1" d="M324.021,445.726c-.543-1.425-.428-1.54.56-.56.683.678.991,1.485.683,1.793s-.867-.247-1.243-1.233Z"/>
      <path id="Path_81-2" data-name="Path 81" class="cls-1" d="M339.67,444.28c.52-1.559,2.663-1.813,3.032-.359.138.542-.589,1.148-1.615,1.345-1.215.234-1.709-.11-1.417-.986Z"/>
      <path id="Path_82-2" data-name="Path 82" class="cls-1" d="M299.04,441.57c-.431-.7-.513-1.537-.183-1.867.895-.895,1.871.421,1.387,1.871-.339,1.016-.574,1.015-1.2,0Z"/>
      <path id="Path_83-2" data-name="Path 83" class="cls-1" d="M332.57,441.07c-.859-1.034-.8-1.647.251-2.517a2.778,2.778,0,0,1,4.639,1.992c0,2.237-3.185,2.58-4.89.526Z"/>
      <path id="Path_84-2" data-name="Path 84" class="cls-1" d="M321.54,430.59c-1.166-2.178.332-4.153,3.149-4.153,2.347,0,3.355,2.588,1.758,4.513-1.676,2.02-3.714,1.871-4.907-.36Z"/>
      <path id="Path_85-2" data-name="Path 85" class="cls-1" d="M285.8,429.89a2.384,2.384,0,0,1,.007-2.142c.712-.712,3.648,1.548,3.648,2.808,0,1.509-3.032.957-3.655-.666Z"/>
      <path id="Path_86-2" data-name="Path 86" class="cls-1" d="M332.96,429.79c-1.822-1.822-1.334-5.869.995-8.249,1.159-1.185,1.671-.886,3.431,2,2.571,4.218,2.6,5.542.141,6.857-2.511,1.344-2.63,1.328-4.567-.609Z"/>
      <path id="Path_87-2" data-name="Path 87" class="cls-1" d="M352.46,420.51c0-1.431.642-2.073,2.073-2.073,2.563,0,2.272,3.31-.335,3.812C353,422.48,352.46,421.941,352.46,420.51Z"/>
      <path id="Path_88-2" data-name="Path 88" class="cls-1" d="M303.8,404.89a2.385,2.385,0,0,1,0-2.133c.324-.324-.52-1.463-1.876-2.53-2.571-2.022-3.254-5.189-1.371-6.353.621-.384-.6-1.436-2.826-2.432-3.653-1.635-5.677-4.472-6.427-9.009-.4-2.391,2.754-7.446,5.582-8.959,1.9-1.02,3.564-1.143,6.24-.465,7.588,1.924,10.425,11.37,4.854,16.162-2.553,2.2-2.69,2.586-1.2,3.42,2.026,1.134,2.211,5.268.315,7.04-1.153,1.077-1.127,1.452.162,2.395a2.445,2.445,0,0,1-1.3,4.407,2.527,2.527,0,0,1-2.155-1.543Z"/>
      <path id="Path_89-2" data-name="Path 89" class="cls-1" d="M348.71,365.71c-2.108-.756-1.49-4.282.75-4.282a1.758,1.758,0,0,1,2,1.941C351.46,365.574,350.532,366.364,348.71,365.71Z"/>
      <path id="Path_90-2" data-name="Path 90" class="cls-1" d="M295.67,363.25c-1.876-1.876-1.44-2.984,1.038-2.632,1.237.176,2.25.957,2.25,1.736,0,1.9-1.791,2.392-3.288.9Z"/>
      <path id="Path_91-2" data-name="Path 91" class="cls-1" d="M339.05,362.81a2.12,2.12,0,0,1,.624-2.533c1.877-1.19,3.284-.451,3.284,1.723a2.007,2.007,0,0,1-3.908.809Z"/>
      <path id="Path_92-2" data-name="Path 92" class="cls-1" d="M260.456,361.433c0-.55.675-1,1.5-1s1.5.45,1.5,1-.675,1-1.5,1S260.456,361.983,260.456,361.433Z"/>
      <path id="Path_93-2" data-name="Path 93" class="cls-1" d="M311.87,361.06c-.836-2.177-.251-2.762,1.611-1.611,1.144.707,1.2,1.168.254,2.113s-1.352.836-1.865-.5Z"/>
      <path id="Path_94-2" data-name="Path 94" class="cls-1" d="M329.46,359.85c0-1.766,2.153-1.458,2.771.4.218.653-.317,1.188-1.187,1.188a1.588,1.588,0,0,1-1.583-1.583Z"/>
      <path id="Path_95-2" data-name="Path 95" class="cls-1" d="M333.46,360.43c0-.55.2-1,.441-1s.719.45,1.059,1,.141,1-.441,1A1.034,1.034,0,0,1,333.46,360.43Z"/>
      <path id="Path_96-2" data-name="Path 96" class="cls-1" d="M252.18,357.66a7.074,7.074,0,0,1-3.378-5.473c-.355-2.221-1.16-3.751-1.972-3.751-.755,0-1.372-.45-1.372-1,0-.926,1.706-1.382,4.75-1.269,1.485.055,1.686-3.344.25-4.231a2.19,2.19,0,0,1-1-1.618c0-.55.546-.663,1.213-.25a15.069,15.069,0,0,0,4.75,1.074c4.744.434,7.586,2.011,8.926,4.952,1.858,4.077,1.295,7.313-1.813,10.42-3.314,3.314-6.322,3.648-10.355,1.148Z"/>
      <path id="Path_97-2" data-name="Path 97" class="cls-1" d="M321.456,356.933a1.5,1.5,0,1,1,1.5,1.5A1.5,1.5,0,0,1,321.456,356.933Z"/>
      <path id="Path_98-2" data-name="Path 98" class="cls-1" d="M239.46,355.93c0-.917.563-1.479,1.25-1.25,1.416.472,1.26,2.08-.25,2.583C239.91,357.447,239.46,356.847,239.46,355.93Z"/>
      <path id="Path_99-2" data-name="Path 99" class="cls-1" d="M283.85,353.91c-1.55-2.365-1.541-2.651.132-4.5,3.14-3.469,7.477-1.909,7.477,2.69,0,2.112-2.519,4.335-4.911,4.335-.573,0-1.787-1.137-2.7-2.526Z"/>
      <path id="Path_100-2" data-name="Path 100" class="cls-1" d="M311.98,354.81c-2.3-2.3-1.489-4.823,1.67-5.189,1.855-.215,3,.3,3.738,1.678C319.666,355.556,315.458,358.288,311.98,354.81Z"/>
      <path id="Path_101-2" data-name="Path 101" class="cls-1" d="M239.81,344.92c-.663-1.727,1.271-4.487,3.143-4.487a4.329,4.329,0,0,1,2.59,1.608c1.134,1.366,1.048,1.818-.569,3-2.479,1.813-4.44,1.767-5.164-.121Z"/>
      <path id="Path_102-2" data-name="Path 102" class="cls-1" d="M247.186,339.829a3.707,3.707,0,0,1-.729-2.263c0-1.126.3-1.237,1.113-.421a2.523,2.523,0,0,1,.729,2.263C248.088,340.041,247.587,340.23,247.186,339.829Z"/>
      <path id="Path_103-2" data-name="Path 103" class="cls-1" d="M292.02,322.49c.216-3.03-.278-4.543-2.14-6.552-3.094-3.338-3.07-6.584.076-10.323,5.4-6.417,11.957-4.273,11.957,3.909,0,3.425-.543,4.528-3.356,6.824-1.846,1.507-3.465,3.828-3.6,5.16l-.372,3.671a1.487,1.487,0,0,1-1.487,1.25c-.964,0-1.278-1.147-1.079-3.939Z"/>
      <path id="Path_104-2" data-name="Path 104" class="cls-1" d="M314.46,322.43c-2.491-2.491-2.554-5.189-.171-7.345,4.519-4.089,11.821.35,9.093,5.528-2.292,4.351-5.694,5.044-8.921,1.817Z"/>
      <path id="Path_105-2" data-name="Path 105" class="cls-1" d="M237.967,317.449c-.345-.559.073-1.016.931-1.016,1.757,0,2.015.6.628,1.457a1.151,1.151,0,0,1-1.559-.441Z"/>
      <path id="Path_106-2" data-name="Path 106" class="cls-1" d="M247.03,287.58a13.157,13.157,0,0,1-1.529-4.343c.024-.715.957.43,2.072,2.545s1.8,4.069,1.529,4.343S247.9,289.254,247.03,287.58Z"/>
      <path id="Path_107-2" data-name="Path 107" class="cls-1" d="M242.63,278.92c-.687-1.509-1.044-2.948-.793-3.2.679-.679,2.8,3.655,2.4,4.884-.194.582-.915-.176-1.6-1.685Z"/>
      <path id="Path_108-2" data-name="Path 108" class="cls-1" d="M314.46,274.49a1.034,1.034,0,0,1,1-1.059c.55,0,1,.2,1,.441s-.45.719-1,1.059S314.46,275.072,314.46,274.49Z"/>
      <path id="Path_109-2" data-name="Path 109" class="cls-1" d="M236.14,264.89c-.907-1.9-1.217-3.457-.69-3.457,1.333,0,4.191,5.77,3.171,6.4-.457.283-1.573-1.042-2.48-2.943Z"/>
      <path id="Path_110-2" data-name="Path 110" class="cls-1" d="M329.15,261.79c-.8-.8.1-2.361,1.365-2.361.518,0,.941.675.941,1.5,0,1.546-1.18,1.987-2.306.861Z"/>
      <path id="Path_111-2" data-name="Path 111" class="cls-1" d="M333.15,260.79c-.933-.933.195-2.361,1.865-2.361a1.476,1.476,0,0,1,1.441,1.5c0,1.506-2.111,2.056-3.306.861Z"/>
    </g>
    <g id="ink-24501-3" data-name="ink-24501" transform="translate(733.577 1330.289) rotate(114)">
      <path id="Path_69-3" data-name="Path 69" class="cls-1" d="M358.14,521.63c-3.392-3.54-3.478-7.5-.233-10.741,3.861-3.861,8.636-2.926,11.382,2.23,1.7,3.186,1.433,5.7-.909,8.681-2.785,3.54-6.749,3.474-10.24-.17Z" transform="translate(6.88 -5.719)"/>
      <path id="Path_70-3" data-name="Path 70" class="cls-1" d="M338.77,517.31a10.274,10.274,0,0,1-7.313-9.393,5.069,5.069,0,0,0-2.5-4.888c-1.375-.9-2.5-2.333-2.5-3.182,0-2.14,4.934-8.41,6.619-8.41,2.58,0,1.4-1.747-1.587-2.344a11.775,11.775,0,0,1-5.107-2.732c-1.887-1.887-2.312-1.964-3.616-.66s-2.009,1.277-5.985-.233c-2.479-.941-4.886-2.324-5.349-3.074-2-3.237,1.792-11.114,5.993-12.447,1.276-.4,1.6-1.6,1.413-5.267-.4-7.966-.936-9.773-5.015-16.884a99.072,99.072,0,0,1-5.784-11.859c-1.017-2.75-5.9-14.675-10.852-26.5s-11.673-28.25-14.936-36.5-7.179-17.7-8.7-21-4.428-10.578-6.456-16.173c-2.238-6.174-4.844-11.411-6.629-13.322-3.434-3.676-5.014-9.752-2.886-11.1,2.112-1.337,3.292-1.1,6.984,1.382,6.19,4.167,7.209,10.527,1.953,12.2-1.854.588-1.781,1.008,1.529,8.818a91.822,91.822,0,0,1,3.742,9.852,8.237,8.237,0,0,0,1.259,3c1.126,1.53,3.5,6.822,12.95,28.848,8.475,19.756,24.011,53,27.807,59.5a61.7,61.7,0,0,1,4.14,8.5c.671,1.925,1.7,3.5,2.286,3.5,1.765,0,2.758,1.557,1.492,2.34-.862.533-.5,2.205,1.335,6.165,1.523,3.287,2.8,4.972,3.24,4.265.461-.747,1.8.431,3.694,3.259,2.838,4.228,5.642,5.624,6.972,3.472.973-1.574,5.222-1.167,5.886.563.33.86.973,1.333,1.429,1.051,1.219-.753,4.362,3.29,3.563,4.584-.468.758-1.027.638-1.78-.383-1.061-1.439-4.839-3.815-6.066-3.815-.33,0,.937,1.35,2.816,3s3.968,3,4.642,3,.978.643.677,1.429c-1.447,3.77-1.752,8.54-.676,10.551,1.573,2.94.5,3.768-1.983,1.525-1.967-1.78-2.006-1.755-2.006,1.3,0,2.882-2.861,6-4.241,4.615-.277-.277-.735.377-1.017,1.454-.451,1.723-.115,1.894,2.79,1.422,3.522-.571,4.477-.048,10.154,5.569,1.874,1.854,3.656,3.121,3.96,2.817.839-.839-1.55-7.363-3.2-8.73-1.682-1.4-1.906-2.958-.424-2.958.564,0,1.417,1.013,1.9,2.25a19.779,19.779,0,0,0,4.552,5.483c4.054,3.559,4.38,6.572.768,7.087-1.232.176-2.24-.162-2.24-.75,0-1.763-1.822-1.207-2.441.744-.947,2.983-6.878,8.82-9.559,9.408a14.146,14.146,0,0,1-5.687-.349Z" transform="translate(6.88 -5.719)"/>
      <path id="Path_71-3" data-name="Path 71" class="cls-1" d="M323.46,515.93c-.993-1.2-.993-1.8,0-3,1.632-1.966,3.629-1.909,4.41.127.612,1.595-.919,4.373-2.41,4.373A4.092,4.092,0,0,1,323.46,515.93Z" transform="translate(4.636 -5.719)"/>
      <path id="Path_72-3" data-name="Path 72" class="cls-1" d="M362.96,506.43a2.144,2.144,0,0,1,1.559-1,.975.975,0,0,1,.941,1c0,.55-.7,1-1.559,1S362.62,506.98,362.96,506.43Z" transform="translate(6.88 -5.719)"/>
      <path id="Path_73-3" data-name="Path 73" class="cls-1" d="M348.96,491.43c-.34-.55-.141-1,.441-1a1.034,1.034,0,0,1,1.059,1c0,.55-.2,1-.441,1S349.3,491.98,348.96,491.43Z" transform="translate(6.88 -5.719)"/>
      <path id="Path_74-3" data-name="Path 74" class="cls-1" d="M311.46,462.43a1,1,0,1,1,1,1A1,1,0,0,1,311.46,462.43Z" transform="translate(3.94 -4.398)"/>
      <path id="Path_75-3" data-name="Path 75" class="cls-1" d="M329.71,458.77c-1.715-.692-1.569-2.828.3-4.379,1.278-1.06,1.829-1.008,3.137.3,2.788,2.788.4,5.626-3.437,4.079Z" transform="translate(4.964 -4.287)"/>
      <path id="Path_76-3" data-name="Path 76" class="cls-1" d="M314.46,455.43a.975.975,0,0,1,.941-1,2.144,2.144,0,0,1,1.559,1c.34.55-.084,1-.941,1S314.46,455.98,314.46,455.43Z" transform="translate(4.114 -4.246)"/>
      <path id="Path_77-3" data-name="Path 77" class="cls-1" d="M292.63,452.7c-2.531-2.842-2.19-5.737,1-8.5,1.816-1.572,2.268-1.592,4.913-.224,2.145,1.109,2.909,2.225,2.9,4.231-.019,3.357-.77,4.452-4.033,5.881C295.193,455.06,294.571,454.879,292.63,452.7Z" transform="translate(3.077 -4.15)"/>
      <path id="Path_78-3" data-name="Path 78" class="cls-1" d="M311.43,452.9c-1.737-2.092-.288-3.211,1.649-1.274.935.935,1.174,1.818.59,2.18-.54.334-1.548-.074-2.238-.906Z" transform="translate(3.938 -4.184)"/>
      <path id="Path_79-3" data-name="Path 79" class="cls-1" d="M276.03,446.86a5.315,5.315,0,0,1-1.571-2.429c0-.913,2.807-4,3.637-4,1.507,0,4.363,2.268,4.363,3.464,0,1.535-2.647,4.536-4,4.536A5.316,5.316,0,0,1,276.03,446.86Z" transform="translate(2.124 -4.034)"/>
      <path id="Path_80-3" data-name="Path 80" class="cls-1" d="M324.021,445.726c-.543-1.425-.428-1.54.56-.56.683.678.991,1.485.683,1.793s-.867-.247-1.243-1.233Z" transform="translate(4.561 -4.039)"/>
      <path id="Path_81-3" data-name="Path 81" class="cls-1" d="M339.67,444.28c.52-1.559,2.663-1.813,3.032-.359.138.542-.589,1.148-1.615,1.345-1.215.234-1.709-.11-1.417-.986Z" transform="translate(5.439 -4.003)"/>
      <path id="Path_82-3" data-name="Path 82" class="cls-1" d="M299.04,441.57c-.431-.7-.513-1.537-.183-1.867.895-.895,1.871.421,1.387,1.871-.339,1.016-.574,1.015-1.2,0Z" transform="translate(3.271 -3.934)"/>
      <path id="Path_83-3" data-name="Path 83" class="cls-1" d="M332.57,441.07c-.859-1.034-.8-1.647.251-2.517a2.778,2.778,0,0,1,4.639,1.992c0,2.237-3.185,2.58-4.89.526Z" transform="translate(5.134 -3.925)"/>
      <path id="Path_84-3" data-name="Path 84" class="cls-1" d="M321.54,430.59c-1.166-2.178.332-4.153,3.149-4.153,2.347,0,3.355,2.588,1.758,4.513-1.676,2.02-3.714,1.871-4.907-.36Z" transform="translate(4.58 -3.695)"/>
      <path id="Path_85-3" data-name="Path 85" class="cls-1" d="M285.8,429.89a2.384,2.384,0,0,1,.007-2.142c.712-.712,3.648,1.548,3.648,2.808,0,1.509-3.032.957-3.655-.666Z" transform="translate(2.639 -3.691)"/>
      <path id="Path_86-3" data-name="Path 86" class="cls-1" d="M332.96,429.79c-1.822-1.822-1.334-5.869.995-8.249,1.159-1.185,1.671-.886,3.431,2,2.571,4.218,2.6,5.542.141,6.857-2.511,1.344-2.63,1.328-4.567-.609Z" transform="translate(5.208 -3.636)"/>
      <path id="Path_87-3" data-name="Path 87" class="cls-1" d="M352.46,420.51c0-1.431.642-2.073,2.073-2.073,2.563,0,2.272,3.31-.335,3.812C353,422.48,352.46,421.941,352.46,420.51Z" transform="translate(6.88 -3.491)"/>
      <path id="Path_88-3" data-name="Path 88" class="cls-1" d="M303.8,404.89a2.385,2.385,0,0,1,0-2.133c.324-.324-.52-1.463-1.876-2.53-2.571-2.022-3.254-5.189-1.371-6.353.621-.384-.6-1.436-2.826-2.432-3.653-1.635-5.677-4.472-6.427-9.009-.4-2.391,2.754-7.446,5.582-8.959,1.9-1.02,3.564-1.143,6.24-.465,7.588,1.924,10.425,11.37,4.854,16.162-2.553,2.2-2.69,2.586-1.2,3.42,2.026,1.134,2.211,5.268.315,7.04-1.153,1.077-1.127,1.452.162,2.395a2.445,2.445,0,0,1-1.3,4.407,2.527,2.527,0,0,1-2.155-1.543Z" transform="translate(3.338 -2.812)"/>
      <path id="Path_89-3" data-name="Path 89" class="cls-1" d="M348.71,365.71c-2.108-.756-1.49-4.282.75-4.282a1.758,1.758,0,0,1,2,1.941C351.46,365.574,350.532,366.364,348.71,365.71Z" transform="translate(6.88 -2.253)"/>
      <path id="Path_90-3" data-name="Path 90" class="cls-1" d="M295.67,363.25c-1.876-1.876-1.44-2.984,1.038-2.632,1.237.176,2.25.957,2.25,1.736,0,1.9-1.791,2.392-3.288.9Z" transform="translate(3.122 -2.226)"/>
      <path id="Path_91-3" data-name="Path 91" class="cls-1" d="M339.05,362.81a2.12,2.12,0,0,1,.624-2.533c1.877-1.19,3.284-.451,3.284,1.723a2.007,2.007,0,0,1-3.908.809Z" transform="translate(5.441 -2.215)"/>
      <path id="Path_92-3" data-name="Path 92" class="cls-1" d="M260.456,361.433c0-.55.675-1,1.5-1s1.5.45,1.5,1-.675,1-1.5,1S260.456,361.983,260.456,361.433Z" transform="translate(1.315 -2.21)"/>
      <path id="Path_93-3" data-name="Path 93" class="cls-1" d="M311.87,361.06c-.836-2.177-.251-2.762,1.611-1.611,1.144.707,1.2,1.168.254,2.113s-1.352.836-1.865-.5Z" transform="translate(3.969 -2.187)"/>
      <path id="Path_94-3" data-name="Path 94" class="cls-1" d="M329.46,359.85c0-1.766,2.153-1.458,2.771.4.218.653-.317,1.188-1.187,1.188a1.588,1.588,0,0,1-1.583-1.583Z" transform="translate(4.9 -2.178)"/>
      <path id="Path_95-3" data-name="Path 95" class="cls-1" d="M333.46,360.43c0-.55.2-1,.441-1s.719.45,1.059,1,.141,1-.441,1A1.034,1.034,0,0,1,333.46,360.43Z" transform="translate(5.064 -2.188)"/>
      <path id="Path_96-3" data-name="Path 96" class="cls-1" d="M252.18,357.66a7.074,7.074,0,0,1-3.378-5.473c-.355-2.221-1.16-3.751-1.972-3.751-.755,0-1.372-.45-1.372-1,0-.926,1.706-1.382,4.75-1.269,1.485.055,1.686-3.344.25-4.231a2.19,2.19,0,0,1-1-1.618c0-.55.546-.663,1.213-.25a15.069,15.069,0,0,0,4.75,1.074c4.744.434,7.586,2.011,8.926,4.952,1.858,4.077,1.295,7.313-1.813,10.42-3.314,3.314-6.322,3.648-10.355,1.148Z" transform="translate(0 -1.888)"/>
      <path id="Path_97-3" data-name="Path 97" class="cls-1" d="M321.456,356.933a1.5,1.5,0,1,1,1.5,1.5A1.5,1.5,0,0,1,321.456,356.933Z" transform="translate(4.49 -2.109)"/>
      <path id="Path_98-3" data-name="Path 98" class="cls-1" d="M239.46,355.93c0-.917.563-1.479,1.25-1.25,1.416.472,1.26,2.08-.25,2.583C239.91,357.447,239.46,356.847,239.46,355.93Z" transform="translate(0 -2.089)"/>
      <path id="Path_99-3" data-name="Path 99" class="cls-1" d="M283.85,353.91c-1.55-2.365-1.541-2.651.132-4.5,3.14-3.469,7.477-1.909,7.477,2.69,0,2.112-2.519,4.335-4.911,4.335-.573,0-1.787-1.137-2.7-2.526Z" transform="translate(2.586 -1.982)"/>
      <path id="Path_100-3" data-name="Path 100" class="cls-1" d="M311.98,354.81c-2.3-2.3-1.489-4.823,1.67-5.189,1.855-.215,3,.3,3.738,1.678C319.666,355.556,315.458,358.288,311.98,354.81Z" transform="translate(4.063 -2.011)"/>
      <path id="Path_101-3" data-name="Path 101" class="cls-1" d="M239.81,344.92c-.663-1.727,1.271-4.487,3.143-4.487a4.329,4.329,0,0,1,2.59,1.608c1.134,1.366,1.048,1.818-.569,3-2.479,1.813-4.44,1.767-5.164-.121Z" transform="translate(0 -1.803)"/>
      <path id="Path_102-3" data-name="Path 102" class="cls-1" d="M247.186,339.829a3.707,3.707,0,0,1-.729-2.263c0-1.126.3-1.237,1.113-.421a2.523,2.523,0,0,1,.729,2.263C248.088,340.041,247.587,340.23,247.186,339.829Z" transform="translate(0 -1.703)"/>
      <path id="Path_103-3" data-name="Path 103" class="cls-1" d="M292.02,322.49c.216-3.03-.278-4.543-2.14-6.552-3.094-3.338-3.07-6.584.076-10.323,5.4-6.417,11.957-4.273,11.957,3.909,0,3.425-.543,4.528-3.356,6.824-1.846,1.507-3.465,3.828-3.6,5.16l-.372,3.671a1.487,1.487,0,0,1-1.487,1.25c-.964,0-1.278-1.147-1.079-3.939Z" transform="translate(2.982 -1.029)"/>
      <path id="Path_104-3" data-name="Path 104" class="cls-1" d="M314.46,322.43c-2.491-2.491-2.554-5.189-.171-7.345,4.519-4.089,11.821.35,9.093,5.528-2.292,4.351-5.694,5.044-8.921,1.817Z" transform="translate(4.3 -1.235)"/>
      <path id="Path_105-3" data-name="Path 105" class="cls-1" d="M237.967,317.449c-.345-.559.073-1.016.931-1.016,1.757,0,2.015.6.628,1.457a1.151,1.151,0,0,1-1.559-.441Z" transform="translate(0 -1.255)"/>
      <path id="Path_106-3" data-name="Path 106" class="cls-1" d="M247.03,287.58a13.157,13.157,0,0,1-1.529-4.343c.024-.715.957.43,2.072,2.545s1.8,4.069,1.529,4.343S247.9,289.254,247.03,287.58Z"/>
      <path id="Path_107-3" data-name="Path 107" class="cls-1" d="M242.63,278.92c-.687-1.509-1.044-2.948-.793-3.2.679-.679,2.8,3.655,2.4,4.884-.194.582-.915-.176-1.6-1.685Z"/>
      <path id="Path_108-3" data-name="Path 108" class="cls-1" d="M314.46,274.49a1.034,1.034,0,0,1,1-1.059c.55,0,1,.2,1,.441s-.45.719-1,1.059S314.46,275.072,314.46,274.49Z" transform="translate(4.095)"/>
      <path id="Path_109-3" data-name="Path 109" class="cls-1" d="M236.14,264.89c-.907-1.9-1.217-3.457-.69-3.457,1.333,0,4.191,5.77,3.171,6.4-.457.283-1.573-1.042-2.48-2.943Z"/>
      <path id="Path_110-3" data-name="Path 110" class="cls-1" d="M329.15,261.79c-.8-.8.1-2.361,1.365-2.361.518,0,.941.675.941,1.5,0,1.546-1.18,1.987-2.306.861Z" transform="translate(4.86)"/>
      <path id="Path_111-3" data-name="Path 111" class="cls-1" d="M333.15,260.79c-.933-.933.195-2.361,1.865-2.361a1.476,1.476,0,0,1,1.441,1.5c0,1.506-2.111,2.056-3.306.861Z" transform="translate(5.106)"/>
    </g>
    <g id="ink-24501-4" data-name="ink-24501" transform="translate(-476.746 1579.62) rotate(-68)">
      <path id="Path_69-4" data-name="Path 69" class="cls-1" d="M358.14,521.63c-3.392-3.54-3.478-7.5-.233-10.741,3.861-3.861,8.636-2.926,11.382,2.23,1.7,3.186,1.433,5.7-.909,8.681-2.785,3.54-6.749,3.474-10.24-.17Z" transform="translate(6.88 -5.719)"/>
      <path id="Path_70-4" data-name="Path 70" class="cls-1" d="M338.77,517.31a10.274,10.274,0,0,1-7.313-9.393,5.069,5.069,0,0,0-2.5-4.888c-1.375-.9-2.5-2.333-2.5-3.182,0-2.14,4.934-8.41,6.619-8.41,2.58,0,1.4-1.747-1.587-2.344a11.775,11.775,0,0,1-5.107-2.732c-1.887-1.887-2.312-1.964-3.616-.66s-2.009,1.277-5.985-.233c-2.479-.941-4.886-2.324-5.349-3.074-2-3.237,1.792-11.114,5.993-12.447,1.276-.4,1.6-1.6,1.413-5.267-.4-7.966-.936-9.773-5.015-16.884a99.072,99.072,0,0,1-5.784-11.859c-1.017-2.75-5.9-14.675-10.852-26.5s-11.673-28.25-14.936-36.5-7.179-17.7-8.7-21-4.428-10.578-6.456-16.173c-2.238-6.174-4.844-11.411-6.629-13.322-3.434-3.676-5.014-9.752-2.886-11.1,2.112-1.337,3.292-1.1,6.984,1.382,6.19,4.167,7.209,10.527,1.953,12.2-1.854.588-1.781,1.008,1.529,8.818a91.822,91.822,0,0,1,3.742,9.852,8.237,8.237,0,0,0,1.259,3c1.126,1.53,3.5,6.822,12.95,28.848,8.475,19.756,24.011,53,27.807,59.5a61.7,61.7,0,0,1,4.14,8.5c.671,1.925,1.7,3.5,2.286,3.5,1.765,0,2.758,1.557,1.492,2.34-.862.533-.5,2.205,1.335,6.165,1.523,3.287,2.8,4.972,3.24,4.265.461-.747,1.8.431,3.694,3.259,2.838,4.228,5.642,5.624,6.972,3.472.973-1.574,5.222-1.167,5.886.563.33.86.973,1.333,1.429,1.051,1.219-.753,4.362,3.29,3.563,4.584-.468.758-1.027.638-1.78-.383-1.061-1.439-4.839-3.815-6.066-3.815-.33,0,.937,1.35,2.816,3s3.968,3,4.642,3,.978.643.677,1.429c-1.447,3.77-1.752,8.54-.676,10.551,1.573,2.94.5,3.768-1.983,1.525-1.967-1.78-2.006-1.755-2.006,1.3,0,2.882-2.861,6-4.241,4.615-.277-.277-.735.377-1.017,1.454-.451,1.723-.115,1.894,2.79,1.422,3.522-.571,4.477-.048,10.154,5.569,1.874,1.854,3.656,3.121,3.96,2.817.839-.839-1.55-7.363-3.2-8.73-1.682-1.4-1.906-2.958-.424-2.958.564,0,1.417,1.013,1.9,2.25a19.779,19.779,0,0,0,4.552,5.483c4.054,3.559,4.38,6.572.768,7.087-1.232.176-2.24-.162-2.24-.75,0-1.763-1.822-1.207-2.441.744-.947,2.983-6.878,8.82-9.559,9.408a14.146,14.146,0,0,1-5.687-.349Z" transform="translate(6.88 -5.719)"/>
      <path id="Path_71-4" data-name="Path 71" class="cls-1" d="M323.46,515.93c-.993-1.2-.993-1.8,0-3,1.632-1.966,3.629-1.909,4.41.127.612,1.595-.919,4.373-2.41,4.373A4.092,4.092,0,0,1,323.46,515.93Z" transform="translate(4.636 -5.719)"/>
      <path id="Path_72-4" data-name="Path 72" class="cls-1" d="M362.96,506.43a2.144,2.144,0,0,1,1.559-1,.975.975,0,0,1,.941,1c0,.55-.7,1-1.559,1S362.62,506.98,362.96,506.43Z" transform="translate(6.88 -5.719)"/>
      <path id="Path_73-4" data-name="Path 73" class="cls-1" d="M348.96,491.43c-.34-.55-.141-1,.441-1a1.034,1.034,0,0,1,1.059,1c0,.55-.2,1-.441,1S349.3,491.98,348.96,491.43Z" transform="translate(6.88 -5.719)"/>
      <path id="Path_74-4" data-name="Path 74" class="cls-1" d="M311.46,462.43a1,1,0,1,1,1,1A1,1,0,0,1,311.46,462.43Z" transform="translate(3.94 -4.398)"/>
      <path id="Path_75-4" data-name="Path 75" class="cls-1" d="M329.71,458.77c-1.715-.692-1.569-2.828.3-4.379,1.278-1.06,1.829-1.008,3.137.3,2.788,2.788.4,5.626-3.437,4.079Z" transform="translate(4.964 -4.287)"/>
      <path id="Path_76-4" data-name="Path 76" class="cls-1" d="M314.46,455.43a.975.975,0,0,1,.941-1,2.144,2.144,0,0,1,1.559,1c.34.55-.084,1-.941,1S314.46,455.98,314.46,455.43Z" transform="translate(4.114 -4.246)"/>
      <path id="Path_77-4" data-name="Path 77" class="cls-1" d="M292.63,452.7c-2.531-2.842-2.19-5.737,1-8.5,1.816-1.572,2.268-1.592,4.913-.224,2.145,1.109,2.909,2.225,2.9,4.231-.019,3.357-.77,4.452-4.033,5.881C295.193,455.06,294.571,454.879,292.63,452.7Z" transform="translate(3.077 -4.15)"/>
      <path id="Path_78-4" data-name="Path 78" class="cls-1" d="M311.43,452.9c-1.737-2.092-.288-3.211,1.649-1.274.935.935,1.174,1.818.59,2.18-.54.334-1.548-.074-2.238-.906Z" transform="translate(3.938 -4.184)"/>
      <path id="Path_79-4" data-name="Path 79" class="cls-1" d="M276.03,446.86a5.315,5.315,0,0,1-1.571-2.429c0-.913,2.807-4,3.637-4,1.507,0,4.363,2.268,4.363,3.464,0,1.535-2.647,4.536-4,4.536A5.316,5.316,0,0,1,276.03,446.86Z" transform="translate(2.124 -4.034)"/>
      <path id="Path_80-4" data-name="Path 80" class="cls-1" d="M324.021,445.726c-.543-1.425-.428-1.54.56-.56.683.678.991,1.485.683,1.793s-.867-.247-1.243-1.233Z" transform="translate(4.561 -4.039)"/>
      <path id="Path_81-4" data-name="Path 81" class="cls-1" d="M339.67,444.28c.52-1.559,2.663-1.813,3.032-.359.138.542-.589,1.148-1.615,1.345-1.215.234-1.709-.11-1.417-.986Z" transform="translate(5.439 -4.003)"/>
      <path id="Path_82-4" data-name="Path 82" class="cls-1" d="M299.04,441.57c-.431-.7-.513-1.537-.183-1.867.895-.895,1.871.421,1.387,1.871-.339,1.016-.574,1.015-1.2,0Z" transform="translate(3.271 -3.934)"/>
      <path id="Path_83-4" data-name="Path 83" class="cls-1" d="M332.57,441.07c-.859-1.034-.8-1.647.251-2.517a2.778,2.778,0,0,1,4.639,1.992c0,2.237-3.185,2.58-4.89.526Z" transform="translate(5.134 -3.925)"/>
      <path id="Path_84-4" data-name="Path 84" class="cls-1" d="M321.54,430.59c-1.166-2.178.332-4.153,3.149-4.153,2.347,0,3.355,2.588,1.758,4.513-1.676,2.02-3.714,1.871-4.907-.36Z" transform="translate(4.58 -3.695)"/>
      <path id="Path_85-4" data-name="Path 85" class="cls-1" d="M285.8,429.89a2.384,2.384,0,0,1,.007-2.142c.712-.712,3.648,1.548,3.648,2.808,0,1.509-3.032.957-3.655-.666Z" transform="translate(2.639 -3.691)"/>
      <path id="Path_86-4" data-name="Path 86" class="cls-1" d="M332.96,429.79c-1.822-1.822-1.334-5.869.995-8.249,1.159-1.185,1.671-.886,3.431,2,2.571,4.218,2.6,5.542.141,6.857-2.511,1.344-2.63,1.328-4.567-.609Z" transform="translate(5.208 -3.636)"/>
      <path id="Path_87-4" data-name="Path 87" class="cls-1" d="M352.46,420.51c0-1.431.642-2.073,2.073-2.073,2.563,0,2.272,3.31-.335,3.812C353,422.48,352.46,421.941,352.46,420.51Z" transform="translate(6.88 -3.491)"/>
      <path id="Path_88-4" data-name="Path 88" class="cls-1" d="M303.8,404.89a2.385,2.385,0,0,1,0-2.133c.324-.324-.52-1.463-1.876-2.53-2.571-2.022-3.254-5.189-1.371-6.353.621-.384-.6-1.436-2.826-2.432-3.653-1.635-5.677-4.472-6.427-9.009-.4-2.391,2.754-7.446,5.582-8.959,1.9-1.02,3.564-1.143,6.24-.465,7.588,1.924,10.425,11.37,4.854,16.162-2.553,2.2-2.69,2.586-1.2,3.42,2.026,1.134,2.211,5.268.315,7.04-1.153,1.077-1.127,1.452.162,2.395a2.445,2.445,0,0,1-1.3,4.407,2.527,2.527,0,0,1-2.155-1.543Z" transform="translate(3.338 -2.812)"/>
      <path id="Path_89-4" data-name="Path 89" class="cls-1" d="M348.71,365.71c-2.108-.756-1.49-4.282.75-4.282a1.758,1.758,0,0,1,2,1.941C351.46,365.574,350.532,366.364,348.71,365.71Z" transform="translate(6.88 -2.253)"/>
      <path id="Path_90-4" data-name="Path 90" class="cls-1" d="M295.67,363.25c-1.876-1.876-1.44-2.984,1.038-2.632,1.237.176,2.25.957,2.25,1.736,0,1.9-1.791,2.392-3.288.9Z" transform="translate(3.122 -2.226)"/>
      <path id="Path_91-4" data-name="Path 91" class="cls-1" d="M339.05,362.81a2.12,2.12,0,0,1,.624-2.533c1.877-1.19,3.284-.451,3.284,1.723a2.007,2.007,0,0,1-3.908.809Z" transform="translate(5.441 -2.215)"/>
      <path id="Path_92-4" data-name="Path 92" class="cls-1" d="M260.456,361.433c0-.55.675-1,1.5-1s1.5.45,1.5,1-.675,1-1.5,1S260.456,361.983,260.456,361.433Z" transform="translate(1.315 -2.21)"/>
      <path id="Path_93-4" data-name="Path 93" class="cls-1" d="M311.87,361.06c-.836-2.177-.251-2.762,1.611-1.611,1.144.707,1.2,1.168.254,2.113s-1.352.836-1.865-.5Z" transform="translate(3.969 -2.187)"/>
      <path id="Path_94-4" data-name="Path 94" class="cls-1" d="M329.46,359.85c0-1.766,2.153-1.458,2.771.4.218.653-.317,1.188-1.187,1.188a1.588,1.588,0,0,1-1.583-1.583Z" transform="translate(4.9 -2.178)"/>
      <path id="Path_95-4" data-name="Path 95" class="cls-1" d="M333.46,360.43c0-.55.2-1,.441-1s.719.45,1.059,1,.141,1-.441,1A1.034,1.034,0,0,1,333.46,360.43Z" transform="translate(5.064 -2.188)"/>
      <path id="Path_96-4" data-name="Path 96" class="cls-1" d="M252.18,357.66a7.074,7.074,0,0,1-3.378-5.473c-.355-2.221-1.16-3.751-1.972-3.751-.755,0-1.372-.45-1.372-1,0-.926,1.706-1.382,4.75-1.269,1.485.055,1.686-3.344.25-4.231a2.19,2.19,0,0,1-1-1.618c0-.55.546-.663,1.213-.25a15.069,15.069,0,0,0,4.75,1.074c4.744.434,7.586,2.011,8.926,4.952,1.858,4.077,1.295,7.313-1.813,10.42-3.314,3.314-6.322,3.648-10.355,1.148Z" transform="translate(0 -1.888)"/>
      <path id="Path_97-4" data-name="Path 97" class="cls-1" d="M321.456,356.933a1.5,1.5,0,1,1,1.5,1.5A1.5,1.5,0,0,1,321.456,356.933Z" transform="translate(4.49 -2.109)"/>
      <path id="Path_98-4" data-name="Path 98" class="cls-1" d="M239.46,355.93c0-.917.563-1.479,1.25-1.25,1.416.472,1.26,2.08-.25,2.583C239.91,357.447,239.46,356.847,239.46,355.93Z" transform="translate(0 -2.089)"/>
      <path id="Path_99-4" data-name="Path 99" class="cls-1" d="M283.85,353.91c-1.55-2.365-1.541-2.651.132-4.5,3.14-3.469,7.477-1.909,7.477,2.69,0,2.112-2.519,4.335-4.911,4.335-.573,0-1.787-1.137-2.7-2.526Z" transform="translate(2.586 -1.982)"/>
      <path id="Path_100-4" data-name="Path 100" class="cls-1" d="M311.98,354.81c-2.3-2.3-1.489-4.823,1.67-5.189,1.855-.215,3,.3,3.738,1.678C319.666,355.556,315.458,358.288,311.98,354.81Z" transform="translate(4.063 -2.011)"/>
      <path id="Path_101-4" data-name="Path 101" class="cls-1" d="M239.81,344.92c-.663-1.727,1.271-4.487,3.143-4.487a4.329,4.329,0,0,1,2.59,1.608c1.134,1.366,1.048,1.818-.569,3-2.479,1.813-4.44,1.767-5.164-.121Z" transform="translate(0 -1.803)"/>
      <path id="Path_102-4" data-name="Path 102" class="cls-1" d="M247.186,339.829a3.707,3.707,0,0,1-.729-2.263c0-1.126.3-1.237,1.113-.421a2.523,2.523,0,0,1,.729,2.263C248.088,340.041,247.587,340.23,247.186,339.829Z" transform="translate(0 -1.703)"/>
      <path id="Path_103-4" data-name="Path 103" class="cls-1" d="M292.02,322.49c.216-3.03-.278-4.543-2.14-6.552-3.094-3.338-3.07-6.584.076-10.323,5.4-6.417,11.957-4.273,11.957,3.909,0,3.425-.543,4.528-3.356,6.824-1.846,1.507-3.465,3.828-3.6,5.16l-.372,3.671a1.487,1.487,0,0,1-1.487,1.25c-.964,0-1.278-1.147-1.079-3.939Z" transform="translate(2.982 -1.029)"/>
      <path id="Path_104-4" data-name="Path 104" class="cls-1" d="M314.46,322.43c-2.491-2.491-2.554-5.189-.171-7.345,4.519-4.089,11.821.35,9.093,5.528-2.292,4.351-5.694,5.044-8.921,1.817Z" transform="translate(4.3 -1.235)"/>
      <path id="Path_105-4" data-name="Path 105" class="cls-1" d="M237.967,317.449c-.345-.559.073-1.016.931-1.016,1.757,0,2.015.6.628,1.457a1.151,1.151,0,0,1-1.559-.441Z" transform="translate(0 -1.255)"/>
      <path id="Path_106-4" data-name="Path 106" class="cls-1" d="M247.03,287.58a13.157,13.157,0,0,1-1.529-4.343c.024-.715.957.43,2.072,2.545s1.8,4.069,1.529,4.343S247.9,289.254,247.03,287.58Z"/>
      <path id="Path_107-4" data-name="Path 107" class="cls-1" d="M242.63,278.92c-.687-1.509-1.044-2.948-.793-3.2.679-.679,2.8,3.655,2.4,4.884-.194.582-.915-.176-1.6-1.685Z"/>
      <path id="Path_108-4" data-name="Path 108" class="cls-1" d="M314.46,274.49a1.034,1.034,0,0,1,1-1.059c.55,0,1,.2,1,.441s-.45.719-1,1.059S314.46,275.072,314.46,274.49Z" transform="translate(4.095)"/>
      <path id="Path_109-4" data-name="Path 109" class="cls-1" d="M236.14,264.89c-.907-1.9-1.217-3.457-.69-3.457,1.333,0,4.191,5.77,3.171,6.4-.457.283-1.573-1.042-2.48-2.943Z"/>
      <path id="Path_110-4" data-name="Path 110" class="cls-1" d="M329.15,261.79c-.8-.8.1-2.361,1.365-2.361.518,0,.941.675.941,1.5,0,1.546-1.18,1.987-2.306.861Z" transform="translate(4.86)"/>
      <path id="Path_111-4" data-name="Path 111" class="cls-1" d="M333.15,260.79c-.933-.933.195-2.361,1.865-2.361a1.476,1.476,0,0,1,1.441,1.5c0,1.506-2.111,2.056-3.306.861Z" transform="translate(5.106)"/>
    </g>
  </g>
</svg>
