<svg id="twitter" xmlns="http://www.w3.org/2000/svg" width="35" height="35" viewBox="0 0 35 35">
  <defs>
    <style>
      .cls-1 {
        fill: none;
      }

      .cls-2 {
        fill: #f2a579;
      }
    </style>
  </defs>
  <g id="invisible_box" data-name="invisible box">
    <rect id="Rectangle_50" data-name="Rectangle 50" class="cls-1" width="35" height="35"/>
    <rect id="Rectangle_51" data-name="Rectangle 51" class="cls-1" width="35" height="35"/>
  </g>
  <g id="icons_Q2" data-name="icons Q2" transform="translate(1.458 4.421)">
    <path id="Path_112" data-name="Path 112" class="cls-2" d="M34.083,9.08a13.344,13.344,0,0,1-3.792,1.094,6.854,6.854,0,0,0,2.917-3.646,16.917,16.917,0,0,1-4.156,1.6A6.635,6.635,0,0,0,17.6,12.58a5.542,5.542,0,0,0,.219,1.531A18.812,18.812,0,0,1,4.26,7.257a6.2,6.2,0,0,0-.948,3.281A6.49,6.49,0,0,0,6.3,16.007a5.906,5.906,0,0,1-2.99-.8h0a6.49,6.49,0,0,0,5.25,6.49,6.271,6.271,0,0,1-1.75.292l-1.24-.146a6.708,6.708,0,0,0,6.2,4.594A13.271,13.271,0,0,1,3.6,29.2H2a18.3,18.3,0,0,0,10.063,2.99c12.1,0,18.74-10.062,18.74-18.74v-.948A13.344,13.344,0,0,0,34.083,9.08Z" transform="translate(-2 -6.063)"/>
  </g>
</svg>
